SplineFontDB: 3.0
FontName: Untitled1
FullName: Untitled1
FamilyName: Untitled1
Weight: Regular
Copyright: Copyright (c) 2017, ウルヰ,,,
UComments: "2017-10-21: Created with FontForge (http://fontforge.org)"
Version: 001.000
ItalicAngle: 0
UnderlinePosition: -100
UnderlineWidth: 50
Ascent: 800
Descent: 200
InvalidEm: 0
LayerCount: 2
Layer: 0 0 "Back" 1
Layer: 1 0 "Fore" 0
XUID: [1021 881 2055310830 19285]
OS2Version: 0
OS2_WeightWidthSlopeOnly: 0
OS2_UseTypoMetrics: 1
CreationTime: 1508636382
ModificationTime: 1508646904
OS2TypoAscent: 0
OS2TypoAOffset: 1
OS2TypoDescent: 0
OS2TypoDOffset: 1
OS2TypoLinegap: 0
OS2WinAscent: 0
OS2WinAOffset: 1
OS2WinDescent: 0
OS2WinDOffset: 1
HheadAscent: 0
HheadAOffset: 1
HheadDescent: 0
HheadDOffset: 1
OS2Vendor: 'PfEd'
DEI: 91125
Encoding: ISO8859-1
UnicodeInterp: none
NameList: AGL For New Fonts
DisplaySize: -48
AntiAlias: 1
FitToEm: 0
BeginChars: 356 125

StartChar: W
Encoding: 87 87 0
Width: 1000
VWidth: 0
Flags: H
LayerCount: 2
Fore
SplineSet
543.48046875 -1.791015625 m 5
 522.823242188 -36.4814453125 l 5
 500.9765625 -2.52734375 l 5
 103.9765625 614.47265625 l 5
 79.224609375 652.940429688 l 5
 124.967773438 653 l 5
 889.967773438 654 l 5
 934.017578125 654.057617188 l 5
 911.48046875 616.208984375 l 5
 543.48046875 -1.791015625 l 5
521.176757812 58.4814453125 m 5
 845.982421875 603.942382812 l 5
 170.775390625 603.059570312 l 5
 521.176757812 58.4814453125 l 5
471.51953125 786.791015625 m 5
 492.176757812 821.481445312 l 5
 514.0234375 787.52734375 l 5
 911.0234375 170.52734375 l 5
 935.775390625 132.059570312 l 5
 890.032226562 132 l 5
 125.032226562 131 l 5
 80.982421875 130.942382812 l 5
 103.51953125 168.791015625 l 5
 471.51953125 786.791015625 l 5
493.823242188 726.518554688 m 5
 169.017578125 181.057617188 l 5
 844.224609375 181.940429688 l 5
 493.823242188 726.518554688 l 5
EndSplineSet
EndChar

StartChar: T
Encoding: 84 84 1
Width: 1000
VWidth: 0
Flags: H
LayerCount: 2
Fore
SplineSet
495.618164062 -9.9970703125 m 5
 470.62109375 -9.615234375 l 5
 471.002929688 15.3818359375 l 5
 481.002929688 670.381835938 l 5
 481.384765625 695.37890625 l 5
 506.381835938 694.997070312 l 5
 531.37890625 694.615234375 l 5
 530.997070312 669.618164062 l 5
 520.997070312 14.6181640625 l 5
 520.615234375 -10.37890625 l 5
 495.618164062 -9.9970703125 l 5
226.38671875 581.861328125 m 5
 204.248046875 593.474609375 l 5
 215.861328125 615.61328125 l 5
 247.861328125 676.61328125 l 5
 254.8125 689.864257812 l 5
 269.774414062 689.999023438 l 5
 712.774414062 693.999023438 l 5
 725.374023438 694.112304688 l 5
 732.9609375 684.052734375 l 5
 778.9609375 623.052734375 l 5
 794.012695312 603.091796875 l 5
 774.052734375 588.0390625 l 5
 754.091796875 572.987304688 l 5
 739.0390625 592.947265625 l 5
 700.625976562 643.887695312 l 5
 285.1875 640.135742188 l 5
 260.138671875 592.38671875 l 5
 248.525390625 570.248046875 l 5
 226.38671875 581.861328125 l 5
504.374023438 714.330078125 m 5
 531.73046875 760.407226562 l 5
 473.158203125 759.626953125 l 5
 504.374023438 714.330078125 l 5
485.35546875 653.813476562 m 5
 405.415039062 769.813476562 l 5
 378.841796875 808.373046875 l 5
 425.666992188 808.998046875 l 5
 575.666992188 810.998046875 l 5
 620.26953125 811.592773438 l 5
 597.497070312 773.237304688 l 5
 527.4375 655.237304688 l 5
 507.506835938 621.669921875 l 5
 485.35546875 653.813476562 l 5
EndSplineSet
EndChar

StartChar: P
Encoding: 80 80 2
Width: 1000
VWidth: 0
Flags: H
LayerCount: 2
Fore
SplineSet
255.1015625 414.249023438 m 5
 257.350585938 439.147460938 l 5
 282.249023438 436.8984375 l 5
 281.252929688 436.98828125 283.249023438 436.8984375 282.249023438 436.8984375 c 5
 747.249023438 394.8984375 l 5
 772.147460938 392.649414062 l 5
 769.8984375 367.750976562 l 5
 767.649414062 342.852539062 l 5
 742.750976562 345.1015625 l 5
 277.750976562 387.1015625 l 5
 276.750976562 387.1015625 276.754882812 387.19140625 277.750976562 387.1015625 c 5
 252.852539062 389.350585938 l 5
 255.1015625 414.249023438 l 5
232.974609375 636.676757812 m 5
 215.651367188 654.702148438 l 5
 233.676757812 672.025390625 l 5
 232.956054688 671.33203125 234.676757812 672.025390625 233.676757812 672.025390625 c 5
 313.90625 749.12890625 416.341796875 802.947265625 543.516601562 779.588867188 c 4
 579.225585938 773.030273438 618.431640625 758.799804688 654.083007812 739.06640625 c 4
 720.927734375 702.068359375 793.965820312 632.434570312 749.865234375 552.87890625 c 4
 692.852539062 450.033203125 589.559570312 429.810546875 501.263671875 368.46875 c 4
 385.387695312 287.96484375 274.7734375 261.3203125 279.970703125 153.200195312 c 4
 280.08203125 150.896484375 280.274414062 148.650390625 280.54296875 146.458984375 c 4
 289.4921875 73.552734375 400.016601562 34.453125 497.897460938 46.806640625 c 4
 598.612304688 59.28515625 663.442382812 136.229492188 725.268554688 227.971679688 c 6
 739.239257812 248.703125 l 5
 759.971679688 234.731445312 l 5
 780.703125 220.760742188 l 5
 766.731445312 200.028320312 l 6
 704.553710938 107.764648438 629.4140625 12.71875 504.07421875 -2.810546875 c 4
 401.776367188 -15.7216796875 245.915039062 18.1591796875 230.916015625 140.3671875 c 4
 230.494140625 143.798828125 230.198242188 147.27734375 230.029296875 150.799804688 c 4
 222.82421875 300.661132812 376.772460938 342.861328125 472.736328125 409.53125 c 4
 574.440429688 480.189453125 661.147460938 495.966796875 706.134765625 577.12109375 c 4
 726.3125 613.520507812 696.693359375 658.333984375 629.870117188 695.3203125 c 4
 598.96484375 712.426757812 563.926757812 725.002929688 534.483398438 730.411132812 c 4
 427.474609375 750.06640625 342.09375 706.87109375 268.323242188 635.974609375 c 6
 250.297851562 618.651367188 l 5
 232.974609375 636.676757812 l 5
EndSplineSet
EndChar

StartChar: K
Encoding: 75 75 3
Width: 1000
VWidth: 0
Flags: H
LayerCount: 2
Fore
SplineSet
678.854492188 315.600585938 m 1
 697.700195312 351.578125 l 1
 721.33203125 318.546875 l 1
 897.33203125 72.546875 l 1
 924.9609375 33.9296875 l 1
 877.487304688 33.0048828125 l 1
 569.487304688 27.0048828125 l 1
 527.25390625 26.181640625 l 1
 546.854492188 63.6005859375 l 1
 678.854492188 315.600585938 l 1
704.299804688 256.421875 m 1
 610.74609375 77.818359375 l 1
 829.0390625 82.0703125 l 1
 704.299804688 256.421875 l 1
808.014648438 536.193359375 m 1
 783.603515625 541.588867188 l 1
 759.193359375 546.985351562 l 1
 764.588867188 571.396484375 l 1
 790.688476562 689.46484375 l 1
 106.456054688 22.103515625 l 1
 88.55859375 4.6474609375 l 1
 71.103515625 22.5439453125 l 1
 53.6474609375 40.44140625 l 1
 71.5439453125 57.896484375 l 1
 735.037109375 705.029296875 l 1
 611.116210938 673.759765625 l 1
 598.78515625 722.21484375 l 1
 629.82421875 730.180664062 l 1
 873 792 l 1
 808.014648438 536.193359375 l 1
EndSplineSet
EndChar

StartChar: S
Encoding: 83 83 4
Width: 1000
VWidth: 0
Flags: H
LayerCount: 2
Fore
SplineSet
804.748737342 371.535533906 m 0
 808.041073291 348.489182258 820.326179217 339.372707172 828.304613334 339.942595323 c 0
 843.632701791 340.931504256 855.497737841 355.607641813 853.205761346 372.797465528 c 0
 850.531302162 394.193138995 834.741068961 407.691549412 816.9919597 406.077994025 c 0
 811.367129338 405.690074689 801.251497718 396.016211268 804.748737342 371.535533906 c 0
755.251262658 364.464466094 m 0
 750.748502282 395.983788732 760.632870662 452.309925311 813.0080403 455.922005975 c 0
 861.258931039 460.308450588 897.468697838 421.806861005 902.794238654 379.202534472 c 0
 908.502262159 336.392358187 878.367298209 293.068495744 831.695386666 290.057404677 c 0
 783.673820783 286.627292828 759.958926709 331.510817742 755.251262658 364.464466094 c 0
143.007604789 349.383411302 m 1
 142.391016091 374.375806513 l 1
 167.383411302 374.992395211 l 1
 166.383715494 374.967731663 167.383411302 373.992395211 167.383411302 374.992395211 c 1
 775.383411302 389.992395211 l 1
 800.375806513 390.608983909 l 1
 800.992395211 365.616588698 l 1
 801.608983909 340.624193487 l 1
 776.616588698 340.007604789 l 1
 168.616588698 325.007604789 l 1
 168.616588698 326.007604789 167.616892889 324.982941241 168.616588698 325.007604789 c 1
 143.624193487 324.391016091 l 1
 143.007604789 349.383411302 l 1
505.266296476 -7.99858168351 m 1
 480.267714792 -8.26487815949 l 1
 480.001418316 16.733703524 l 1
 480.012070176 15.7337602567 480.001418316 17.733703524 480.001418316 16.733703524 c 1
 472.001418316 767.733703524 l 1
 471.392302311 824.914468529 l 1
 513.780473221 786.531479123 l 1
 767.780473221 556.531479123 l 1
 786.311952344 539.751005901 l 1
 769.531479123 521.219526779 l 1
 752.751005901 502.688047656 l 1
 734.219526779 519.468520877 l 1
 522.607697689 711.085531471 l 1
 529.998581684 17.266296476 l 1
 529.998581684 16.266296476 530.009233543 16.2663532086 529.998581684 17.266296476 c 1
 530.264878159 -7.73228520752 l 1
 505.266296476 -7.99858168351 l 1
EndSplineSet
EndChar

StartChar: X
Encoding: 88 88 5
Width: 1000
VWidth: 0
Flags: HW
LayerCount: 2
Fore
SplineSet
836.645927868 770.997492533 m 1
 861.643420401 771.351564665 l 1
 861.997492533 746.354072132 l 1
 871.997492533 40.3540721322 l 1
 872.351564665 15.3565795994 l 1
 847.354072132 15.0025074672 l 1
 822.356579599 14.6484353351 l 1
 822.002507467 39.6459278678 l 1
 812.002507467 745.645927868 l 1
 811.648435335 770.643420401 l 1
 836.645927868 770.997492533 l 1
344.107711737 117.015928641 m 1
 319.123640379 117.908216904 l 1
 320.015928641 142.892288263 l 2
 322.673725584 217.310602646 289.578801211 282.510236006 330.368086682 368.620949779 c 0
 398.208828091 514.542544506 561.795421492 496.069961556 536.723940244 598.027318631 c 0
 511.187093716 701.822243228 393.140828341 694.49618116 254.734153871 719.366130479 c 0
 250.249959359 720.113496231 244.597697405 720.06459834 239.165458753 719.07954735 c 0
 212.947257572 714.325289173 196.526930228 693.356132342 199.596747752 676.472135955 c 2
 204.068883707 651.875388203 l 1
 179.472135955 647.403252248 l 1
 154.875388203 642.931116293 l 1
 150.403252248 667.527864045 l 2
 140.505749511 721.964129096 187.311702657 760.492088759 230.244233682 768.277227613 c 0
 240.98434369 770.224777541 251.828472013 770.540098541 263.265846129 768.633869521 c 0
 380.859171659 747.50381884 548.812906284 758.177756772 585.276059756 609.972681369 c 0
 620.204578508 467.930038444 413.791171909 429.457455494 375.631913318 347.379050221 c 0
 344.421198789 281.489763994 373.326274416 234.689397354 369.984071359 141.107711737 c 2
 369.091783096 116.123640379 l 1
 344.107711737 117.015928641 l 1
344.053710938 81.478515625 m 4
 347.345703125 58.431640625 359.630859375 49.3154296875 367.609375 49.884765625 c 4
 382.9375 50.8740234375 394.802734375 65.5498046875 392.510742188 82.740234375 c 4
 389.8359375 104.135742188 374.045898438 117.633789062 356.296875 116.020507812 c 4
 350.671875 115.6328125 340.555664062 105.958984375 344.053710938 81.478515625 c 4
294.555664062 74.4072265625 m 4
 290.052734375 105.926757812 299.9375 162.252929688 352.3125 165.864257812 c 4
 400.563476562 170.250976562 436.7734375 131.749023438 442.098632812 89.1455078125 c 4
 447.806640625 46.3349609375 417.671875 3.0107421875 371 0 c 4
 322.978515625 -3.4296875 299.263671875 41.453125 294.555664062 74.4072265625 c 4
EndSplineSet
EndChar

StartChar: F
Encoding: 70 70 6
Width: 1000
VWidth: 0
Flags: HW
LayerCount: 2
Fore
SplineSet
908.788766729 661.755738524 m 1
 932.544505254 653.966971795 l 1
 924.755738524 630.211233271 l 2
 885.164700695 509.458567893 864.908182999 438.061615008 763.68120804 347.379116607 c 0
 651.92392528 247.263217468 513.179576851 349.578681362 426.672137264 293.069814558 c 0
 305.747998043 214.079046196 265.19299113 155.192415696 170.288484158 40.0954604313 c 2
 154.383944589 20.8069762734 l 1
 135.095460431 36.7115158422 l 1
 115.806976273 52.6160554109 l 1
 131.711515842 71.9045395687 l 2
 224.80700887 184.807584304 272.252001957 251.920953804 399.327862736 334.930185442 c 0
 529.234485649 419.788506138 650.07607472 312.736782532 730.31879196 384.620883393 c 0
 823.19551463 467.822947451 836.835299305 522.541432107 877.244261476 645.788766729 c 2
 885.033028205 669.544505254 l 1
 908.788766729 661.755738524 l 1
787.409781006 780.996641365 m 1
 812.406422371 780.586860359 l 1
 811.996641365 755.590218994 l 2
 809.980498448 632.605501041 798.638235997 551.611648399 695.68120804 459.379116607 c 0
 583.923918764 359.263211631 445.179573401 461.578704293 358.672137264 405.069814558 c 0
 237.747998043 326.079046196 197.19299113 267.192415696 102.288484158 152.095460431 c 2
 86.3839445891 132.806976273 l 1
 67.0954604313 148.711515842 l 1
 47.8069762734 164.616055411 l 1
 63.7115158422 183.904539569 l 2
 156.80700887 296.807584304 204.252001957 363.920953804 331.327862736 446.930185442 c 0
 461.234460252 531.788527368 582.076081236 424.736788369 662.31879196 496.620883393 c 0
 753.465279628 578.273117226 760.019501552 635.394498959 762.003358635 756.409781006 c 2
 762.413139641 781.406422371 l 1
 787.409781006 780.996641365 l 1
478.892411665 765.237031203 m 1
 497.91058469 785.215718017 l 1
 515.928918229 764.330831414 l 1
 708.259749643 541.401913184 l 1
 689.330831414 525.071081771 l 1
 670.401913184 508.740250357 l 1
 496.08941531 710.784281983 l 1
 299.870557131 504.655380462 l 1
 281.762968797 521.892411665 l 1
 263.655380462 539.129442869 l 1
 478.892411665 765.237031203 l 1
494.860351562 746 m 1
 519.860351562 746.138671875 l 1
 520 739.139648438 l 1
 523.999612054 42.1392736048 l 1
 524.138885659 17.1396615505 l 1
 499.139273605 17.0003879457 l 1
 474.139661551 16.861114341 l 1
 474.000387946 41.8607263952 l 1
 470 738.860351562 l 1
 469.861328125 745.860351562 l 1
 494.860351562 746 l 1
EndSplineSet
EndChar

StartChar: N
Encoding: 78 78 7
Width: 1004
VWidth: 0
Flags: HW
LayerCount: 2
Fore
SplineSet
765.5703125 73.06640625 m 5
 499.560546875 358.3671875 l 5
 225.577148438 68.3720703125 l 5
 765.5703125 73.06640625 l 5
787.073242188 662.977539062 m 5
 534.059570312 394.881835938 l 5
 796.3359375 113.416992188 l 5
 787.073242188 662.977539062 l 5
499.791015625 430.359375 m 5
 834.991210938 785.696289062 l 5
 847.275390625 56.8369140625 l 5
 848.424804688 22.3115234375 l 5
 822.744140625 22.3134765625 l 5
 798.999023438 22.009765625 l 5
 108.987304688 16.1015625 l 5
 465.291015625 393.844726562 l 5
 156.651367188 725.024414062 l 5
 193.294921875 759.04296875 l 5
 499.791015625 430.359375 l 5
EndSplineSet
EndChar

StartChar: M
Encoding: 77 77 8
Width: 1000
VWidth: 0
Flags: H
LayerCount: 2
Fore
SplineSet
198.01171875 527.243164062 m 1
 197.25390625 552.231445312 l 1
 222.243164062 552.98828125 l 2
 318.9609375 555.918945312 429.801757812 563.872070312 509.845703125 471.427734375 c 0
 516.032226562 464.376953125 520.73046875 455.422851562 522.30078125 445.893554688 c 0
 531.796875 388.247070312 439.221679688 339.361328125 429.717773438 325.698242188 c 1
 529.807617188 250.299804688 594.573242188 273.266601562 757.579101562 262.950195312 c 2
 782.529296875 261.37109375 l 1
 780.950195312 236.420898438 l 1
 779.37109375 211.470703125 l 1
 754.420898438 213.049804688 l 2
 602.274414062 222.6796875 514.98046875 197.921875 397.854492188 287.110351562 c 0
 388.091796875 294.543945312 379.837890625 305.65625 378.34765625 319.232421875 c 0
 376.517578125 335.905273438 384.294921875 348.758789062 391.377929688 357.950195312 c 0
 418.931640625 393.705078125 468.7265625 424.326171875 472.82421875 437.739257812 c 0
 472.766601562 437.8203125 472.560546875 438.110351562 472.154296875 438.572265625 c 0
 410.198242188 510.127929688 325.0390625 506.081054688 223.756835938 503.01171875 c 2
 198.768554688 502.25390625 l 1
 198.01171875 527.243164062 l 1
214.068359375 791 m 1
 239.068359375 790.931640625 l 1
 239 765.931640625 l 1
 239.002929688 766.931640625 240 765.931640625 239 765.931640625 c 1
 237.069335938 60.1748046875 l 1
 787.826171875 63.9990234375 l 1
 812.826171875 64.1728515625 l 1
 812.999023438 39.173828125 l 1
 813.172851562 14.173828125 l 1
 788.173828125 14.0009765625 l 1
 212.173828125 10.0009765625 l 1
 186.930664062 9.8251953125 l 1
 187 35.068359375 l 1
 189 766.068359375 l 1
 188 766.068359375 189.002929688 767.068359375 189 766.068359375 c 1
 189.068359375 791.068359375 l 1
 214.068359375 791 l 1
EndSplineSet
EndChar

StartChar: H
Encoding: 72 72 9
Width: 1000
VWidth: 0
Flags: HW
LayerCount: 2
Fore
SplineSet
786.160699907 760.319448839 m 1
 797.480148746 738.02886612 l 1
 775.189566027 726.709417281 l 2
 627.274223817 651.596075931 495.352982552 587.823793113 514.950478043 505.488860759 c 0
 530.675759389 439.420402314 799.318703957 499.698037455 811.449751673 361.534752423 c 0
 826.252606766 200.130087296 671.081202604 130.063136982 543.356813461 45.0861594293 c 2
 522.542582265 31.2381350312 l 1
 508.694557867 52.0523662269 l 1
 494.846533469 72.8665974226 l 1
 515.660764664 86.7146218207 l 2
 655.771758615 179.932595832 772.761030789 235.912879178 761.654286241 357.016569864 c 0
 754.336232403 440.363563624 502.430765653 342.150151463 466.309287582 493.911529866 c 0
 433.570845573 631.455503762 623.985541808 706.003533444 752.550668348 771.290582719 c 2
 774.841251068 782.610031559 l 1
 786.160699907 760.319448839 l 1
486.281793657 718.019644152 m 1
 497.601242496 695.729061432 l 1
 475.310659777 684.409612593 l 2
 327.395305075 609.2962649 195.474036024 545.524157637 215.071620919 463.188849669 c 0
 230.796349846 397.120222954 499.438795038 457.398530101 511.569861367 319.235033078 c 0
 526.373826907 157.830423185 371.202233891 87.7632907366 243.477907211 2.78635474177 c 1
 244.477907211 2.78635474177 244.310476458 3.3402757177 243.477907211 2.78635474177 c 1
 222.663676015 -11.0616696563 l 1
 208.815651617 9.75256153938 l 1
 194.967627219 30.5667927351 l 1
 215.781858414 44.4148171332 l 2
 355.892903601 137.632825233 472.881990898 193.61300972 461.774419077 314.716594552 c 0
 454.456366803 398.063570506 202.550421546 299.850670039 166.430332206 451.611931581 c 0
 133.691979601 589.155529863 324.10664805 663.7037351 452.671762098 728.990778032 c 2
 474.962344818 740.310226871 l 1
 486.281793657 718.019644152 l 1
EndSplineSet
EndChar

StartChar: Z
Encoding: 90 90 10
Width: 1000
VWidth: 0
Flags: H
LayerCount: 2
Fore
SplineSet
669.722912083 758.204847433 m 1
 689.927759516 743.48193535 l 1
 675.204847433 723.277087917 l 2
 580.911974879 593.875167072 530.117761117 520.910063772 534.985935934 375.838454226 c 0
 539.671404226 236.21149914 605.8 172.6 700 47 c 2
 715 27 l 1
 695 12 l 1
 675 -3 l 1
 660 17 l 2
 568.32 139.24 490.189803983 215.7839043 485.014064066 374.161545774 c 0
 479.755103937 535.085725723 541.088025121 624.124832928 634.795152567 752.722912083 c 2
 649.51806465 772.927759516 l 1
 669.722912083 758.204847433 l 1
855.765625 395.525390625 m 5
 141.234146483 2.0201809144 l 1
 133.162824627 16.6020717818 125.091502771 31.1839626493 117.020180914 45.7658535167 c 1
 329.424876799 163.335425245 541.829572684 280.904996973 754.234268568 398.474568701 c 1
 137.843548784 754.871098624 l 1
 146.186065397 769.299549488 154.528582011 783.728000352 162.871098624 798.156451216 c 1
 162.871098624 798.156451216 632.014648438 524.897460938 855.765625 395.525390625 c 5
EndSplineSet
EndChar

StartChar: Y
Encoding: 89 89 11
Width: 1000
VWidth: 0
Flags: H
LayerCount: 2
Fore
SplineSet
312.860351562 574.19921875 m 1
 295.719726562 592.3984375 l 1
 313.918945312 609.5390625 l 1
 490.859876199 792.199344935 l 1
 506.60711361 807.030076466 l 1
 523.54705359 793.577771187 l 1
 712.516601562 613.702148438 l 1
 732.09375 598.155273438 l 1
 716.546875 578.578125 l 1
 701 559 l 1
 681.421875 574.546875 l 1
 509.39288639 740.969923534 l 1
 348.19921875 573.139648438 l 1
 330 556 l 1
 312.860351562 574.19921875 l 1
507.576338353 633.003590042 m 0
 362.406299412 635.464025471 245.745945798 490.340588989 241.992475828 337.38668771 c 0
 238.414590536 191.572090508 356.766236563 49.6881055001 499.471614174 46.9955512056 c 0
 662.407854969 43.9209771912 792.381731453 171.866330363 797.009968818 335.705933084 c 0
 801.604439318 498.350188797 671.195135166 630.230390096 507.576338353 633.003590042 c 0
508.423661528 682.99640996 m 0
 698.804866502 679.769609876 852.395560682 525.649811203 846.990031182 334.294066916 c 0
 841.618268547 144.133669637 689.580426281 -6.60066469118 498.528385826 -2.99555120559 c 0
 323.233763437 0.311894499868 187.831503214 168.422050117 192.007524172 338.61331229 c 0
 196.254054202 511.659411011 327.585886364 686.061365183 508.423661528 682.99640996 c 0
EndSplineSet
EndChar

StartChar: C
Encoding: 67 67 12
Width: 1000
VWidth: 0
Flags: H
LayerCount: 2
Fore
SplineSet
480.741210938 719.614257812 m 0
 484.033203125 696.567382812 496.318359375 687.451171875 504.296875 688.020507812 c 0
 519.625 689.009765625 531.490234375 703.685546875 529.198242188 720.875976562 c 0
 526.5234375 742.271484375 510.733398438 755.76953125 492.984375 754.15625 c 0
 487.359375 753.768554688 477.243164062 744.094726562 480.741210938 719.614257812 c 0
431.243164062 712.54296875 m 0
 426.740234375 744.0625 436.625 800.388671875 489 804 c 0
 537.250976562 808.38671875 573.4609375 769.884765625 578.786132812 727.28125 c 0
 584.494140625 684.470703125 554.359375 641.146484375 507.6875 638.135742188 c 0
 459.666015625 634.706054688 435.951171875 679.588867188 431.243164062 712.54296875 c 0
476.8984375 640.405273438 m 1
 498.1328125 673.831054688 l 1
 519.177734375 640.286132812 l 1
 886.177556009 41.2857488122 l 1
 910.23460379 2.93868354817 l 1
 864.966124692 3.00002295074 l 1
 126.966124692 4.00002295074 l 1
 81.5391472489 4.06157712072 l 1
 105.898054216 42.4055169281 l 1
 476.8984375 640.405273438 l 1
497.8671875 580.168945312 m 1
 172.460852751 53.9384228793 l 1
 819.76539621 53.0613164518 l 1
 497.8671875 580.168945312 l 1
EndSplineSet
EndChar

StartChar: L
Encoding: 76 76 13
Width: 1000
VWidth: 0
Flags: H
LayerCount: 2
Fore
SplineSet
466.963684808 396.544991826 m 1
 465.742896198 312.015699148 468.227283993 229.082755091 482.704067296 135.835239108 c 0
 494.386282333 60.5861559835 590.733950838 47.1008328009 705.458726136 44.9957910523 c 0
 801.659843792 43.2302951365 825.202019131 62.3768267963 906.353285532 127.498213414 c 2
 925.851498946 143.144927883 l 1
 941.498213414 123.646714468 l 1
 957.144927883 104.148501054 l 1
 937.646714468 88.5017865857 l 2
 856.797980869 23.6231732037 812.463203083 -6.97638888646 704.541273864 -4.99579105233 c 0
 601.266049162 -3.10083280092 452.760202042 2.78884401649 433.295932704 128.164760892 c 0
 418.920510294 220.759393474 415.969313645 303.474844937 416.822306921 385.572212014 c 1
 122.220384642 542.949134665 l 1
 83.9517742607 563.392301123 l 1
 120.829450738 586.249391336 l 1
 433.829450738 780.249391336 l 1
 470.581393365 803.028550664 l 1
 471.986790832 759.812578564 l 2
 476.29060865 627.47018066 469.43338498 519.290884233 467.294368433 415.297055875 c 1
 467 409 l 1
 466.963684808 396.544991826 l 1
417.905164118 441.680865346 m 1
 420.185851928 527.373681089 424.594487762 612.515112708 423.05166536 714.744016086 c 1
 184.048225739 566.607698877 l 1
 417.905164118 441.680865346 l 1
EndSplineSet
EndChar

StartChar: G
Encoding: 71 71 14
Width: 1000
VWidth: 0
Flags: H
LayerCount: 2
Fore
SplineSet
96.5952005218 288.408771837 m 2
 215.278569945 314.688660781 331.116954281 353.556603914 440.403164902 381.135172625 c 0
 445.35707824 382.385301425 463.014648438 388.873046875 466 393 c 0
 470.387695312 399.065429688 495.482421875 414.309570312 500 420 c 0
 504.517578125 425.690429688 497.176757812 422.325195312 502 428 c 1
 489.801757812 423.499023438 459.611275006 419.719139715 447 418 c 0
 252.866210937 391.536132812 211.512559357 638.166244015 156.725670038 777.87281178 c 2
 147.598481817 801.147141742 l 1
 170.87281178 810.274329962 l 1
 194.147141742 819.401518183 l 1
 203.274329962 796.12718822 l 2
 268.487440643 629.833755985 300.391117983 440.927369232 438.623278917 459.770905408 c 0
 504.116237325 468.698776626 589.115234375 531.583984375 645 613 c 0
 692.172851562 681.723632812 713.85319147 763.087204974 724.474089873 785.846246366 c 1
 724.474089873 785.846246366 775.617854323 808.038118537 775.715920624 783.337916478 c 0
 775.793845864 763.710693191 773.353597102 772.375367599 769.920658312 764.997419894 c 0
 768.431365187 761.583951245 766.424724243 756.927492887 764.02078008 751.250964944 c 0
 722.366847654 652.891895317 680.950615635 583.487966413 641.981077194 529.967026814 c 0
 601.781611168 474.756899133 564.359616814 436.571809037 533.337355454 401.557797366 c 1
 642.358341847 421.06015815 746.217916383 421.108359185 835.664383188 368.55489268 c 0
 911.441928609 324.032477908 893.863336169 224.78736009 851.008539842 152.035839717 c 0
 822.676198139 103.938051109 780.078010681 59.3805399063 728.788877264 31.9540848943 c 0
 627.57730493 -22.1679961471 443.670903386 -17.298878445 389.759192083 84.4060656616 c 0
 379.398359784 103.951872026 374.775052932 126.80479801 377.112421594 151.368214751 c 0
 384.163202097 225.464895596 398.591677301 279.721115383 419.268040749 323.952618208 c 1
 321.820156603 297.772088364 216.551872501 263.759508618 107.404799478 239.591228163 c 2
 82.996027641 234.186428685 l 1
 77.5912281628 258.595200522 l 1
 72.1864286846 283.003972359 l 1
 96.5952005218 288.408771837 l 2
96.5952005218 288.408771837 m 1
 97.5715513953 288.624963816 95.5952005218 288.408771837 96.5952005218 288.408771837 c 1
485.600851881 340.63786838 m 0
 483.445370905 337.302851408 481.260390632 333.801778744 479.27673356 330.480994922 c 0
 453.857581705 287.92751658 435.28793533 234.911170175 426.887578406 146.631785249 c 0
 425.402096664 131.020851612 428.199134762 118.646862945 433.936382827 107.823491181 c 0
 466.09574121 47.1545628943 616.329481786 28.5171665287 705.211122736 76.0459151057 c 0
 746.750382789 98.2587031014 783.809402558 136.46990002 807.927308624 177.413142898 c 0
 848.558409634 246.389654893 845.535257149 304.763875455 810.335616812 325.44510732 c 0
 727.677749501 374.009993292 625.669239108 370.904834311 505.837256629 345.153679783 c 0
 499.303555433 343.749627662 492.391664354 342.204136791 485.600851881 340.63786838 c 0
EndSplineSet
EndChar

StartChar: Q
Encoding: 81 81 15
Width: 1000
VWidth: 0
Flags: H
LayerCount: 2
Fore
SplineSet
522.402063832 509.564994874 m 1
 516.967058706 485.162931041 l 1
 492.564994874 490.597936168 l 1
 302.60981353 532.906135649 l 1
 295.998011762 8.68470976156 l 1
 295.682721524 -16.3133020007 l 1
 270.684709762 -15.9980117622 l 1
 245.686697999 -15.6827215238 l 1
 246.001988238 9.31529023844 l 1
 246.014599847 10.3152107089 245.001988238 9.31529023844 246.001988238 9.31529023844 c 1
 253.001988238 564.315290238 l 1
 253.39018647 595.093864351 l 1
 283.435005126 588.402063832 l 1
 503.435005126 539.402063832 l 1
 527.837068959 533.967058706 l 1
 522.402063832 509.564994874 l 1
746.697265625 806.998046875 m 1
 771.6953125 807.30078125 l 1
 771.998046875 782.302734375 l 1
 776.998168098 343.30264126 l 1
 777.330919705 315.817358573 l 1
 749.937339853 318.085236643 l 1
 290.937339853 356.085236643 l 1
 266.022576496 358.147896791 l 1
 268.085236643 383.062660147 l 1
 270.147896791 407.977423504 l 1
 295.062660147 405.914763357 l 1
 726.669080295 370.182641427 l 1
 722.001953125 781.697265625 l 1
 721.69921875 806.6953125 l 1
 746.697265625 806.998046875 l 1
EndSplineSet
EndChar

StartChar: D
Encoding: 68 68 16
Width: 1000
VWidth: 0
Flags: HW
LayerCount: 2
Fore
SplineSet
815.75789351 778.408472174 m 1
 835.166365684 762.650578663 l 1
 819.408472174 743.24210649 l 1
 219.408472174 4.2421064896 l 1
 203.650578663 -15.166365684 l 1
 184.24210649 0.59152782636 l 1
 164.833634316 16.3494213368 l 1
 180.591527826 35.7578935104 l 1
 780.591527826 774.75789351 l 1
 796.349421337 794.166365684 l 1
 815.75789351 778.408472174 l 1
184.24210649 778.408472174 m 1
 203.650578663 794.166365684 l 1
 219.408472174 774.75789351 l 1
 819.408472174 35.7578935104 l 1
 835.166365684 16.3494213368 l 1
 815.75789351 0.59152782636 l 1
 796.349421337 -15.166365684 l 1
 780.591527826 4.2421064896 l 1
 180.591527826 743.24210649 l 1
 164.833634316 762.650578663 l 1
 184.24210649 778.408472174 l 1
EndSplineSet
EndChar

StartChar: B
Encoding: 66 66 17
Width: 1000
VWidth: 0
Flags: HW
LayerCount: 2
Fore
SplineSet
384.622169882 586.770754201 m 1
 409.392924083 590.148584319 l 1
 412.770754201 565.377830118 l 2
 423.678351539 485.388782977 429.151061435 436.283897583 462.36267807 439.860533221 c 0
 500.980038322 443.895182799 501.563369818 519.422021092 499.219302483 580.304093002 c 2
 499 586 l 1
 548.544496265 581.750547664 l 2
 555.415400342 581.161227324 559.727011741 519.06175758 563.335429208 503.725983343 c 0
 586.332776236 405.987258475 584.549087107 338.297580805 523.273731281 253.372087642 c 0
 511.28615672 236.757764326 492.07099051 231.323261987 476.019358153 232.459393744 c 0
 435.672273676 235.315153393 380.968302082 275.408226357 385.096753749 322.197345257 c 2
 387.294099007 347.100591508 l 1
 412.197345257 344.903246251 l 1
 437.100591508 342.705900993 l 1
 434.910061756 317.879897135 l 2
 435.49318251 309.662940936 466.64767477 281.04251909 481.576218742 282.331973935 c 0
 482.151530293 282.381666542 482.457322264 282.458877331 482.641990435 282.515740671 c 0
 482.66151041 282.541287966 482.69229825 282.580830479 482.726268719 282.627912358 c 0
 521.652538983 336.57835711 533.583007812 404.440429688 529 457 c 1
 517.467773438 438.364257812 494.214323815 393.001732493 467.597800541 390.135337679 c 0
 370.881762201 379.719764319 370.321622959 506.611404038 363.229245799 558.622169882 c 2
 359.851415681 583.392924083 l 1
 384.622169882 586.770754201 l 1
776.336558609 662.519201987 m 1
 755.855760596 648.182643378 l 1
 741.519201987 668.663441391 l 2
 720.229859647 699.076787591 686.465662326 744.059424837 669.405273438 743.025390625 c 0
 471 731 360.47265625 747.2265625 251 635 c 0
 167.681640625 549.584960938 185.1171875 512.987304688 185.999023438 397.190429688 c 0
 186.909179688 277.70703125 174.245117188 191.046875 259.7734375 104.581054688 c 0
 367.806640625 -4.6357421875 509.822397913 63.2839512396 752.705150356 75.7236170519 c 1
 759.521126798 88.5279725082 764.13719703 125.696602044 767.36970613 144.283529369 c 2
 771.653235498 168.913823239 l 1
 796.283529369 164.63029387 l 1
 820.913823239 160.346764502 l 1
 816.63029387 135.716470631 l 2
 815.395021288 128.613653281 817.855543991 28.7161252655 760.163990534 26.0271121807 c 0
 534.076842802 15.489151905 360.739257812 -68.58984375 224.2265625 69.4189453125 c 0
 121.827148438 172.939453125 136.854492188 284.740234375 136.000976562 396.809570312 c 0
 135.141601562 509.581054688 115.609375 567.80859375 215.208007812 669.913085938 c 0
 350.64453125 808.756835938 485 785 671 793 c 0
 721.890985446 795.188859589 761.770140353 726.923212409 782.480798013 697.336558609 c 2
 796.817356622 676.855760596 l 1
 776.336558609 662.519201987 l 1
EndSplineSet
EndChar

StartChar: A
Encoding: 65 65 18
Width: 1000
VWidth: 0
Flags: H
LayerCount: 2
Fore
SplineSet
481.444927254 495.575594047 m 1
 500.809541367 519.887760667 l 1
 520.405441785 495.761625205 l 1
 892.405441785 37.7616252055 l 1
 925.571172046 -3.07145129855 l 1
 872.96603264 -2.99997692436 l 1
 136.96603264 -1.99997692436 l 1
 85.1825694124 -1.92961895802 l 1
 117.444927254 38.5755940469 l 1
 481.444927254 495.575594047 l 1
501.190458633 440.112239333 m 1
 188.817430588 47.929618958 l 1
 820.428827954 47.0714512986 l 1
 501.190458633 440.112239333 l 1
168.181472024 579.536418273 m 1
 146.717890298 592.354946249 l 1
 159.536418273 613.818527976 l 2
 199.053285102 679.986304992 236.541969613 776.252292159 341.537510129 773.994220989 c 0
 464.683988158 771.345909634 449.846821869 616.147204274 496.617095869 614.992382693 c 0
 532.117507737 614.115829314 567.616075461 773.499924562 661.208392986 768.97077865 c 0
 756.527590159 764.358065089 800.257907082 680.614796922 849.068596199 614.908100033 c 2
 863.976696232 594.839503835 l 1
 843.908100033 579.931403801 l 1
 823.839503835 565.023303768 l 1
 808.931403801 585.091899967 l 2
 753.742092918 659.385203078 721.402097341 715.999356786 658.791607014 719.02922135 c 0
 628.383955585 720.500717022 593.901333512 562.575063495 495.382904131 565.007617307 c 0
 380.153178131 567.852795726 403.316011842 722.654090366 340.462489871 724.005779011 c 0
 273.452171012 725.446926591 248.946714898 666.013695008 202.463581727 588.181472024 c 2
 189.645053751 566.717890298 l 1
 168.181472024 579.536418273 l 1
EndSplineSet
EndChar

StartChar: E
Encoding: 69 69 19
Width: 1000
VWidth: 0
Flags: H
LayerCount: 2
Fore
SplineSet
644.433112953 191.602202568 m 1
 647.142988335 185.68974719 l 1
 642.591710439 183.603744821 l 2
 641.384238524 178.816772221 640.019638495 174.08981707 638.586724767 169.598002979 c 0
 626.964040129 133.163891408 610.003307046 104.30547431 600.19043181 66.6894525713 c 2
 593.879884381 42.4990207614 l 1
 569.689452571 48.8095681901 l 1
 545.499020761 55.1201156188 l 1
 551.80956819 79.3105474287 l 2
 558.948709876 106.677257224 568.712966633 129.136623144 577.123908061 149.030103397 c 1
 549.994621793 133.769261659 504.129454618 112.130991645 470.501903981 153.351860167 c 0
 420.949042042 216.118818624 499.58650611 276.267628494 535.753903842 299.203051446 c 0
 544.859154326 304.806282513 554.171389252 307.786717832 563.73681278 309.126013579 c 0
 596.153885582 313.664866212 641.011586803 297.572423358 646.791375453 254.224008482 c 0
 649.734914538 231.002755701 648.366801777 210.439680052 644.433112953 191.602202568 c 1
597.894841194 218.022987747 m 0
 598.649603738 227.146184675 598.544739985 237.235525284 597.208624547 247.775991518 c 0
 596.676486592 251.767026183 586.666752412 261.848811088 570.669897803 259.609023242 c 0
 567.287410512 259.135426769 564.113322738 257.946011065 562.246096158 256.796948554 c 0
 516.767675946 227.956974761 499.052040044 198.346788294 509.502585827 184.64121877 c 0
 519.675438335 172.588640988 533.21431142 183.235894073 587.430627103 212.601808245 c 0
 590.681430349 214.362584644 594.332857604 216.261692184 597.894841194 218.022987747 c 0
250.774181267 411.381980331 m 1
 249.376649922 287.942491363 284.785958716 176.55242266 289.986760119 16.8135224225 c 1
 288.986760119 16.8135224225 290.019301016 15.8140520177 289.986760119 16.8135224225 c 1
 290.800282542 -8.17323769698 l 1
 265.813522422 -8.98676011947 l 1
 240.826762303 -9.80028254197 l 1
 240.013239881 15.1864775775 l 2
 234.733176874 177.359841346 194.186726071 292.505637443 201.60072464 438.239786968 c 0
 203.763973825 480.761953276 210.149116714 525.544432601 222.80825147 574.305544252 c 0
 251.684891915 684.655563095 333.589976687 803.399359976 462.355435732 780.617680223 c 0
 478.155592989 777.822267786 494.857482672 774.074410231 512.050509501 769.412970007 c 0
 635.679311269 735.894249005 820.255522089 644.950533223 780.123188064 497.43708924 c 0
 724.785082425 294.03168299 416.355998177 395.307579766 250.774181267 411.381980331 c 1
253.384789604 461.358759714 m 1
 453.689386307 442.576052013 692.918614252 367.364875063 731.876811936 510.56291076 c 0
 757.206016373 603.664851392 628.492286365 686.037703658 498.96667302 721.155191122 c 0
 483.139558748 725.446299828 467.844407011 728.870039907 453.644564268 731.382319777 c 0
 366.446568571 746.809724205 298.320217536 665.363962304 271.185624091 561.67105164 c 0
 262.010761613 526.330840616 256.368311407 492.920659299 253.384789604 461.358759714 c 1
172.002743033 10.3703297328 m 1
 172.373072766 35.3675867001 l 1
 197.370329733 34.9972569673 l 1
 332.370329733 32.9972569673 l 1
 357.3675867 32.6269272344 l 1
 356.997256967 7.62967026715 l 1
 356.626927234 -17.3675867001 l 1
 331.629670267 -16.9972569673 l 1
 196.629670267 -14.9972569673 l 1
 171.6324133 -14.6269272344 l 1
 172.002743033 10.3703297328 l 1
EndSplineSet
EndChar

StartChar: I
Encoding: 73 73 20
Width: 1000
VWidth: 0
Flags: HW
LayerCount: 2
Fore
SplineSet
862.649515013 620.05505455 m 1
 841.704569562 606.405539537 l 1
 828.05505455 627.350484987 l 2
 826.332463386 629.993771428 824.562820995 632.621946231 822.74873255 635.230759859 c 0
 765.09453304 718.142407175 677.264628571 765.085473169 616.31771097 722.506021553 c 0
 482.31608079 628.888444304 417.832352395 377.086700914 457.315800191 211.80877449 c 0
 467.615206367 168.694981195 488.890392371 131.770928923 517.246360828 103.426157571 c 0
 595.491677375 25.2117382603 729.138078574 9.81174468853 842.269324323 123.624503966 c 2
 859.893828289 141.355179643 l 1
 877.624503966 123.730675677 l 1
 895.355179643 106.106171711 l 1
 877.730675677 88.375496034 l 2
 746.604778568 -43.5403161171 579.701383849 -29.7009219338 481.898004333 68.0638373267 c 0
 447.013179058 102.934887404 421.113365062 148.162161662 408.684199809 200.19122551 c 0
 365.26725698 381.934783461 429.68391921 653.111555696 587.68228903 763.493978447 c 0
 687.424989687 833.177395818 803.355958332 750.699024621 863.79943896 663.776153589 c 0
 865.898225459 660.757919922 867.947419996 657.714683383 869.94494545 654.649515013 c 2
 883.594460463 633.704569562 l 1
 862.649515013 620.05505455 l 1
120.60029067 578.265751698 m 1
 97.8660423683 588.665461028 l 1
 108.265751698 611.39970933 l 2
 122.903775996 643.399111284 146.355059661 678.475814703 175.097887709 710.089851058 c 0
 235.58591081 776.620206323 337.224991742 842.995467328 418.870242375 768.449803706 c 0
 602.307268221 600.470954195 668.963654232 406.927065703 597.981377489 165.936464501 c 0
 578.270402628 99.0158227249 544.803317037 50.7141417156 501.832032935 21.769074919 c 0
 386.110568474 -56.1798528038 227.197884874 15.0161952713 132.261485703 156.038838703 c 2
 118.300324406 176.777353 l 1
 139.038838703 190.738514297 l 1
 159.777353 204.699675594 l 1
 173.738514297 183.961161297 l 2
 261.971105471 52.8966449172 392.879196312 8.66468719495 473.898546789 63.2385860297 c 0
 505.196027673 84.3202849752 532.733549941 121.379063639 550.018622511 180.063535499 c 0
 615.712868257 403.100841489 557.704597054 573.518180412 385.116267413 731.56254969 c 0
 339.738620477 772.994314284 272.364190575 742.745993637 212.093263354 676.454420619 c 0
 186.702763468 648.527586657 165.715271623 616.791364907 153.734248302 590.60029067 c 2
 143.334538972 567.866042368 l 1
 120.60029067 578.265751698 l 1
EndSplineSet
EndChar

StartChar: U
Encoding: 85 85 21
Width: 1000
VWidth: 0
Flags: H
LayerCount: 2
Fore
SplineSet
147.137363677 778.617119613 m 1
 149.75448329 803.479755936 l 1
 174.617119613 800.862636323 l 2
 309.684668799 786.644999567 381.081269068 766.956795339 512.400190859 764.996811432 c 0
 626.303315382 763.049749474 690.522149132 780.708425738 809.871009993 790.909183077 c 2
 872.025576602 796.221539197 l 1
 830.742173824 749.455184487 l 2
 710.99469754 613.803746509 602.892896047 561.64773578 528.892550401 428.425455441 c 1
 583.962983623 421.057264988 642.681895506 415.475783498 710.97670488 412.980995941 c 0
 776.22019549 410.262517166 806.679011544 430.997428653 879.715233091 460.211917272 c 2
 902.927150363 469.496684181 l 1
 912.211917272 446.284766909 l 1
 921.496684181 423.072849637 l 1
 898.284766909 413.788082728 l 2
 831.320988456 387.002571347 787.77980451 359.737482834 709.02329512 363.019004059 c 0
 632.264872271 365.822964711 566.804652415 372.478688081 505.679542069 381.15971793 c 1
 454.062926266 260.703736167 501.489257812 188.133789062 511.938476562 39.755859375 c 2
 517.865234375 -44.412109375 l 1
 457 19 l 1
 134.04362544 449.942008287 l 1
 97.7733499283 498.011048122 l 1
 157.423658301 489.764461711 l 2
 284.311194952 472.222405953 378.345518469 451.650192344 476.357339011 436.132043832 c 1
 547.715187984 575.185436019 646.518280904 634.085412907 747.492744793 734.130007665 c 1
 670.57326269 724.816784033 606.330050143 713.383868209 511.572711996 715.003651767 c 0
 374.954409255 717.042730913 300.297777247 737.356848218 169.382880387 751.137363677 c 2
 144.520244064 753.75448329 l 1
 147.137363677 778.617119613 l 1
454.849486088 388.946859449 m 1
 376.37003369 401.765007721 302.328892072 416.972982027 210.704245566 431.355993994 c 1
 460 94 l 1
 445.404296875 181.920898438 415.350862089 287.332807922 454.849486088 388.946859449 c 1
EndSplineSet
EndChar

StartChar: R
Encoding: 82 82 22
Width: 1000
VWidth: 0
Flags: H
LayerCount: 2
Fore
SplineSet
583.432952358 781.342317749 m 1
 591.775270107 804.909365392 l 1
 615.342317749 796.567047642 l 2
 720.457441126 759.358154412 884.626933667 725.515929485 886.996409851 577.423667964 c 0
 889.143713811 450.732734339 644.400697361 419.867660337 637.09988058 408.10198076 c 1
 647.227369802 389.065933018 886 333.966120306 886 202 c 0
 886 67.9926628624 711.37445674 34.5470405602 617.836885028 7.95302507357 c 2
 593.789910102 1.11614004546 l 1
 586.953025074 25.1631149719 l 1
 580.116140045 49.2100898983 l 1
 604.163114972 56.0469749264 l 1
 605.124993969 56.3204503276 603.163114972 56.0469749264 604.163114972 56.0469749264 c 1
 714.62554326 87.4529594398 836 120.007337138 836 202 c 0
 836 297.495064043 587 304.861795928 587 408 c 0
 587 517.211062284 838.517256093 487.270041336 837.003590149 576.576332036 c 0
 835.373066333 678.484070515 719.542558874 706.641845588 598.657682251 749.432952358 c 2
 575.090634608 757.775270107 l 1
 583.432952358 781.342317749 l 1
415.243932565 785.410848524 m 1
 426.654781089 763.166915958 l 1
 404.410848524 751.756067435 l 2
 250.728526497 672.91903211 125.264283996 580.439835465 127.996884239 417.394687646 c 0
 130.781624255 241.027819958 246.407057615 138.343799788 416.493087005 59.6913006482 c 2
 439.184387653 49.1982136432 l 1
 428.691300648 26.5069129951 l 1
 418.198213643 3.81561234686 l 1
 395.506912995 14.3086993518 l 2
 219.592942385 95.6562002117 81.2183757448 212.972180042 78.0031157609 416.605312354 c 0
 74.7357160037 611.560164535 227.271473503 717.080967891 381.589151476 796.243932565 c 2
 403.833084042 807.654781089 l 1
 415.243932565 785.410848524 l 1
EndSplineSet
EndChar

StartChar: O
Encoding: 79 79 23
Width: 1000
VWidth: 0
Flags: H
LayerCount: 2
Fore
SplineSet
468.955078125 245.333007812 m 0
 472.247070312 222.286132812 484.532226562 213.169921875 492.510742188 213.739257812 c 0
 507.838867188 214.728515625 519.704101562 229.404296875 517.412109375 246.594726562 c 0
 514.737304688 267.990234375 498.947265625 281.48828125 481.198242188 279.875 c 0
 475.573242188 279.487304688 465.45703125 269.813476562 468.955078125 245.333007812 c 0
419.45703125 238.26171875 m 0
 414.954101562 269.78125 424.838867188 326.107421875 477.213867188 329.71875 c 0
 525.46484375 334.10546875 561.674804688 295.603515625 567 253 c 0
 572.708007812 210.189453125 542.573242188 166.865234375 495.901367188 163.854492188 c 0
 447.879882812 160.424804688 424.165039062 205.307617188 419.45703125 238.26171875 c 0
188.554749223 -1.14707838489 m 1
 165.407670838 8.2981723923 l 1
 174.852921615 31.4452507772 l 1
 478.852921615 776.445250777 l 1
 502.371425217 834.0810573 l 1
 525.250251914 776.188350556 l 1
 821.250251914 27.1883505561 l 1
 830.43860247 3.93809864221 l 1
 807.188350556 -5.25025191387 l 1
 783.938098642 -14.43860247 l 1
 774.749748086 8.81164944392 l 1
 501.628574783 699.9189427 l 1
 221.147078385 12.5547492228 l 1
 211.701827608 -10.5923291621 l 1
 188.554749223 -1.14707838489 l 1
EndSplineSet
EndChar

StartChar: ltd01
Encoding: 256 -1 24
Width: 1000
VWidth: 0
Flags: HW
LayerCount: 2
Fore
SplineSet
808.014648438 536.193359375 m 5
 783.603515625 541.588867188 l 5
 759.193359375 546.985351562 l 5
 764.588867188 571.396484375 l 5
 790.688476562 689.46484375 l 5
 106.456054688 22.103515625 l 5
 88.55859375 4.6474609375 l 5
 71.103515625 22.5439453125 l 5
 53.6474609375 40.44140625 l 5
 71.5439453125 57.896484375 l 5
 735.037109375 705.029296875 l 5
 611.116210938 673.759765625 l 5
 598.78515625 722.21484375 l 5
 629.82421875 730.180664062 l 5
 873 792 l 5
 808.014648438 536.193359375 l 5
EndSplineSet
EndChar

StartChar: V
Encoding: 86 86 25
Width: 1000
VWidth: 0
Flags: HW
LayerCount: 2
Fore
SplineSet
683.429251381 783 m 1
 673.663596276 770.561639287 l 2
 579.24225005 650.298661463 484.556385082 488.631649813 486.982440393 423.936841515 c 0
 489.712428749 351.141893115 544.168452701 160.620331267 685.982728727 29.346305486 c 2
 694 21.9249124833 l 1
 675 -16.6841030461 l 1
 662.184935689 -13.0531681579 l 2
 413.93623747 57.283963004 285.089510534 223.567951864 277.020440006 422.989266359 c 0
 269.305492947 613.658672229 432.383748348 742.873759313 646.536686695 809.859986474 c 2
 658 813.445667412 l 1
 683.429251381 783 l 1
583.968817784 733.993798645 m 1
 419.522458842 664.85618449 321.514171742 560.083900445 326.979559994 425.010733641 c 0
 333.108090801 273.548472275 415.10747103 144.635225369 582.157699773 68.9478242481 c 1
 479.872091207 200.417364613 439.760692925 348.917700622 437.017559607 422.063158485 c 0
 434.031180782 501.69992716 507.282037273 626.009398839 583.968817784 733.993798645 c 1
EndSplineSet
EndChar

StartChar: ltd02
Encoding: 257 -1 26
Width: 1000
VWidth: 0
Flags: HW
LayerCount: 2
Fore
SplineSet
226.38671875 581.861328125 m 1
 204.248046875 593.474609375 l 1
 215.861328125 615.61328125 l 1
 247.861328125 676.61328125 l 1
 254.8125 689.864257812 l 1
 269.774414062 689.999023438 l 1
 712.774414062 693.999023438 l 1
 725.374023438 694.112304688 l 1
 732.9609375 684.052734375 l 1
 778.9609375 623.052734375 l 1
 794.012695312 603.091796875 l 1
 774.052734375 588.0390625 l 1
 754.091796875 572.987304688 l 1
 739.0390625 592.947265625 l 1
 700.625976562 643.887695312 l 1
 285.1875 640.135742188 l 1
 260.138671875 592.38671875 l 1
 248.525390625 570.248046875 l 1
 226.38671875 581.861328125 l 1
504.374023438 714.330078125 m 1
 531.73046875 760.407226562 l 1
 473.158203125 759.626953125 l 1
 504.374023438 714.330078125 l 1
485.35546875 653.813476562 m 1
 405.415039062 769.813476562 l 1
 378.841796875 808.373046875 l 1
 425.666992188 808.998046875 l 1
 575.666992188 810.998046875 l 1
 620.26953125 811.592773438 l 1
 597.497070312 773.237304688 l 1
 527.4375 655.237304688 l 1
 506 653 l 1
 485.35546875 653.813476562 l 1
EndSplineSet
EndChar

StartChar: ltd03
Encoding: 258 -1 27
Width: 1000
VWidth: 0
Flags: HW
LayerCount: 2
Fore
SplineSet
852.749023438 371.53515625 m 4
 856.041015625 348.489257812 868.326171875 339.373046875 876.3046875 339.942382812 c 4
 891.6328125 340.931640625 903.498046875 355.607421875 901.206054688 372.797851562 c 4
 898.53125 394.193359375 882.741210938 407.69140625 864.9921875 406.078125 c 4
 859.3671875 405.690429688 849.251953125 396.016601562 852.749023438 371.53515625 c 4
803.250976562 364.46484375 m 4
 798.748046875 395.983398438 808.6328125 452.309570312 861.0078125 455.921875 c 4
 909.258789062 460.30859375 945.46875 421.806640625 950.793945312 379.202148438 c 4
 956.501953125 336.392578125 926.3671875 293.068359375 879.6953125 290.057617188 c 4
 831.673828125 286.626953125 807.958984375 331.510742188 803.250976562 364.46484375 c 4
56.0078125 349.383789062 m 1
 55.390625 374.375976562 l 1
 80.3837890625 374.9921875 l 1
 79.3837890625 374.967773438 80.3837890625 373.9921875 80.3837890625 374.9921875 c 1
 823.383789062 389.9921875 l 5
 848.375976562 390.609375 l 5
 848.9921875 365.616210938 l 5
 849.609375 340.624023438 l 5
 824.616210938 340.0078125 l 5
 81.6162109375 325.0078125 l 1
 81.6162109375 326.0078125 80.6171875 324.983398438 81.6162109375 325.0078125 c 1
 56.6240234375 324.390625 l 1
 56.0078125 349.383789062 l 1
EndSplineSet
EndChar

StartChar: ltd04
Encoding: 259 -1 28
Width: 1000
VWidth: 0
Flags: HW
LayerCount: 2
Fore
SplineSet
873.645507812 770.997070312 m 1
 898.643554688 771.3515625 l 1
 898.997070312 746.354492188 l 1
 908.997070312 40.3544921875 l 1
 909.3515625 15.3564453125 l 1
 884.354492188 15.0029296875 l 1
 859.356445312 14.6484375 l 1
 859.002929688 39.6455078125 l 1
 849.002929688 745.645507812 l 1
 848.6484375 770.643554688 l 1
 873.645507812 770.997070312 l 1
EndSplineSet
EndChar

StartChar: lt-SP
Encoding: 260 -1 29
Width: 1000
Flags: HW
LayerCount: 2
Fore
SplineSet
255.1015625 414.249023438 m 5
 257.350585938 439.147460938 l 5
 282.249023438 436.8984375 l 5
 281.252929688 436.98828125 283.249023438 436.8984375 282.249023438 436.8984375 c 5
 747.249023438 394.8984375 l 5
 772.147460938 392.649414062 l 5
 769.8984375 367.750976562 l 5
 767.649414062 342.852539062 l 5
 742.750976562 345.1015625 l 5
 277.750976562 387.1015625 l 5
 276.750976562 387.1015625 276.754882812 387.19140625 277.750976562 387.1015625 c 5
 252.852539062 389.350585938 l 5
 255.1015625 414.249023438 l 5
232.974609375 636.676757812 m 5
 215.651367188 654.702148438 l 5
 233.676757812 672.025390625 l 5
 232.956054688 671.33203125 234.676757812 672.025390625 233.676757812 672.025390625 c 5
 313.90625 749.12890625 416.341796875 802.947265625 543.516601562 779.588867188 c 4
 579.225585938 773.030273438 618.431640625 758.799804688 654.083007812 739.06640625 c 4
 720.927734375 702.068359375 793.965820312 632.434570312 749.865234375 552.87890625 c 4
 692.852539062 450.033203125 589.559570312 429.810546875 501.263671875 368.46875 c 4
 385.387695312 287.96484375 274.7734375 261.3203125 279.970703125 153.200195312 c 4
 280.08203125 150.896484375 280.274414062 148.650390625 280.54296875 146.458984375 c 4
 289.4921875 73.552734375 400.016601562 34.453125 497.897460938 46.806640625 c 4
 598.612304688 59.28515625 663.442382812 136.229492188 725.268554688 227.971679688 c 6
 739.239257812 248.703125 l 5
 759.971679688 234.731445312 l 5
 780.703125 220.760742188 l 5
 766.731445312 200.028320312 l 6
 704.553710938 107.764648438 629.4140625 12.71875 504.07421875 -2.810546875 c 4
 401.776367188 -15.7216796875 245.915039062 18.1591796875 230.916015625 140.3671875 c 4
 230.494140625 143.798828125 230.198242188 147.27734375 230.029296875 150.799804688 c 4
 222.82421875 300.661132812 376.772460938 342.861328125 472.736328125 409.53125 c 4
 574.440429688 480.189453125 661.147460938 495.966796875 706.134765625 577.12109375 c 4
 726.3125 613.520507812 696.693359375 658.333984375 629.870117188 695.3203125 c 4
 598.96484375 712.426757812 563.926757812 725.002929688 534.483398438 730.411132812 c 4
 427.474609375 750.06640625 342.09375 706.87109375 268.323242188 635.974609375 c 6
 250.297851562 618.651367188 l 5
 232.974609375 636.676757812 l 5
852.749023438 371.53515625 m 4
 856.041015625 348.489257812 868.326171875 339.373046875 876.3046875 339.942382812 c 4
 891.6328125 340.931640625 903.498046875 355.607421875 901.206054688 372.797851562 c 4
 898.53125 394.193359375 882.741210938 407.69140625 864.9921875 406.078125 c 4
 859.3671875 405.690429688 849.251953125 396.016601562 852.749023438 371.53515625 c 4
803.250976562 364.46484375 m 4
 798.748046875 395.983398438 808.6328125 452.309570312 861.0078125 455.921875 c 4
 909.258789062 460.30859375 945.46875 421.806640625 950.793945312 379.202148438 c 4
 956.501953125 336.392578125 926.3671875 293.068359375 879.6953125 290.057617188 c 4
 831.673828125 286.626953125 807.958984375 331.510742188 803.250976562 364.46484375 c 4
56.0078125 349.383789062 m 1
 55.390625 374.375976562 l 1
 80.3837890625 374.9921875 l 1
 79.3837890625 374.967773438 80.3837890625 373.9921875 80.3837890625 374.9921875 c 1
 823.383789062 389.9921875 l 5
 848.375976562 390.609375 l 5
 848.9921875 365.616210938 l 5
 849.609375 340.624023438 l 5
 824.616210938 340.0078125 l 5
 81.6162109375 325.0078125 l 1
 81.6162109375 326.0078125 80.6171875 324.983398438 81.6162109375 325.0078125 c 1
 56.6240234375 324.390625 l 1
 56.0078125 349.383789062 l 1
EndSplineSet
EndChar

StartChar: lt-XP
Encoding: 261 -1 30
Width: 1000
Flags: HW
LayerCount: 2
Fore
SplineSet
209.763464473 349.66217025 m 0
 210.088144239 349.636523499 l 1
 209.863115804 347.146671657 l 1
 186.209982773 349.283555854 l 1
 186.294335374 350.217253283 l 0
 186.322452907 350.528485759 l 0
 190.482715488 396.5897681 l 1
 214.136825521 394.45391958 l 1
 213.913201085 391.963941535 l 1
 214.024414062 391.958984375 l 1025
214.136861851 394.453916299 m 1
 656.290017227 354.517279652 l 1
 652.017279652 307.209982773 l 1
 209.919249283 347.141601562 l 2
 209.545985633 347.141601562 209.387126888 347.149056914 209.196507573 347.171700509 c 1024
167.203923627 603.573175478 m 0
 169.442435572 605.724502422 l 1
 171.17535908 603.922565851 l 1024
167.203923627 603.573208833 m 1
 169.442449535 605.724515841 l 2
 241.813555646 675.274773592 334.425848938 723.975077772 449.390835024 702.859320157 c 0
 481.682263192 696.928742143 517.078045735 684.077864834 549.280142274 666.25380446 c 0
 609.436216711 632.95723563 676.260000162 569.663070759 635.972158975 496.984768764 c 0
 584.374384283 403.907854982 490.961537712 385.555780064 411.850896867 330.595501493 c 0
 307.065228266 257.796386292 208.595761488 234.181224752 213.222164263 137.940456877 c 0
 213.321281264 135.897491897 213.491665713 133.905510208 213.728968445 131.965776543 c 0
 221.630225333 67.5994633122 319.982899072 32.2637183806 407.953725728 43.3664915743 c 0
 497.978454382 54.5202896061 556.07075431 123.319377469 611.705584788 205.873342315 c 2
 624.977397945 225.56819763 l 1
 664.367965008 199.022627197 l 1
 651.095175802 179.326822339 l 2
 595.127531049 96.2783112081 527.238958636 10.2826554688 413.823515253 -3.76945836845 c 0
 321.651673404 -15.4026362696 180.23238465 14.9706795132 166.583566091 126.177497068 c 0
 166.199810761 129.297852099 165.931600454 132.459660884 165.777809307 135.659699741 c 0
 159.244172324 271.559348991 298.883479491 309.949814634 384.74968365 369.604690054 c 0
 476.597157866 433.415803609 554.256854634 447.547849909 594.428233274 520.015234166 c 0
 611.988556301 551.691994541 586.412074865 591.411203597 526.277471181 624.694439794 c 0
 498.584970236 640.022446163 467.148054745 651.302940644 440.809338158 656.140683908 c 0
 345.001263002 673.738382864 268.592437502 635.130022369 202.35734201 571.475666842 c 2
 185.232450019 555.018741504 l 1
 152.318546191 589.267549981 l 1
 167.203923627 603.573208833 l 1
873.645507812 770.997070312 m 1
 898.643554688 771.3515625 l 1
 898.997070312 746.354492188 l 1
 908.997070312 40.3544921875 l 1
 909.3515625 15.3564453125 l 1
 884.354492188 15.0029296875 l 1
 859.356445312 14.6484375 l 1
 859.002929688 39.6455078125 l 1
 849.002929688 745.645507812 l 1
 848.6484375 770.643554688 l 1
 873.645507812 770.997070312 l 1
EndSplineSet
EndChar

StartChar: lt-KP
Encoding: 262 -1 31
Width: 1000
Flags: HW
LayerCount: 2
Fore
SplineSet
661.777953365 162.310169238 m 1
 660.426058332 147.371214399 l 1
 642.995699305 148.945227602 l 1
 646.145357304 183.803378815 l 1
 663.116574951 182.270677163 l 1
 663.116575826 182.270683925 l 1
 867.004300695 163.854577085 l 1
 863.854577085 128.995699305 l 1
 661.42592082 147.280905287 l 1
 661.777953365 162.310169238 l 1
625.823056275 262.251407565 m 0
 638.273544185 274.217906578 l 1
 648.672311792 263.40746745 l 1024
625.656604273 262.091426065 m 1
 625.656604273 262.091426066 l 1
 624.844142172 261.310546875 l 1
 625.656604273 262.091426065 l 1
625.656604273 262.091426065 m 1
 638.27384808 274.218198643 l 2
 671.350283599 306.005275209 714.843362167 329.115235542 768.761335526 319.21250467 c 0
 783.967754832 316.419064548 800.307928202 310.467279935 815.264854038 302.188833516 c 0
 841.978612044 287.402602596 877.742491678 255.826449072 856.505756526 217.514969712 c 0
 831.982820227 173.279595603 787.971879023 164.283599798 754.785104637 141.228307357 c 0
 705.456099744 106.956897283 667.708623844 98.4796277197 669.479392711 61.6453064113 c 0
 669.515755738 60.8990738684 669.577034576 60.1818320828 669.66091458 59.4978287813 c 0
 672.320173686 37.8356752913 709.704739737 21.3026002269 748.237024998 26.1657490701 c 0
 784.809797429 30.6968968628 809.216044342 58.7705263018 833.887628522 95.3794395356 c 2
 843.666821532 109.892705359 l 1
 872.692510046 90.3331784683 l 1
 862.911920812 75.8203768319 l 2
 837.994520097 38.8454118632 806.364002789 -1.89969135488 752.569125673 -8.56497921274 c 0
 711.029169117 -13.8084061053 641.823936843 -0.997611840887 634.922348734 55.230561074 c 0
 634.730258301 56.7917122201 634.596297057 58.3723163446 634.520370848 59.9601644516 c 0
 631.343062197 126.050553117 699.436021288 145.39249258 734.815477948 169.971885626 c 0
 777.383393751 199.546051913 809.799423215 205.450412338 825.894604195 234.484976346 c 0
 830.366716572 242.552093517 825.092538643 256.746176286 798.316135218 271.566085514 c 0
 786.685696896 278.00375684 773.253987364 282.80095547 762.437985992 284.787476452 c 0
 722.632307222 292.099261069 691.083999571 276.426713539 662.525879748 248.981922808 c 2
 649.908573934 236.856799585 l 1
 625.656604273 262.091426065 l 1
808.014648438 536.193359375 m 5
 783.603515625 541.588867188 l 5
 759.193359375 546.985351562 l 5
 764.588867188 571.396484375 l 5
 790.688476562 689.46484375 l 5
 106.456054688 22.103515625 l 5
 88.55859375 4.6474609375 l 5
 71.103515625 22.5439453125 l 5
 53.6474609375 40.44140625 l 5
 71.5439453125 57.896484375 l 5
 735.037109375 705.029296875 l 5
 611.116210938 673.759765625 l 5
 598.78515625 722.21484375 l 5
 629.82421875 730.180664062 l 5
 873 792 l 5
 808.014648438 536.193359375 l 5
EndSplineSet
EndChar

StartChar: lt-TP
Encoding: 263 -1 32
Width: 1000
Flags: HW
LayerCount: 2
Fore
SplineSet
325.157814977 352.08666279 m 1
 720.432494558 316.384032739 l 1
 716.384032739 271.567505442 l 1
 321.976277019 307.191776712 l 1
 321.976277019 307.191776712 302.787684862 308.924648544 302.057373093 308.990601099 c 2
 299.567505443 309.215454569 l 1
 303.615978202 354.03320158 l 1
 325.157814977 352.08666279 l 1
280.732119906 535.120004507 m 0
 285.209083393 539.422631409 l 1
 288.675275806 535.819090712 l 1024
280.732119906 535.120060847 m 1
 285.209106977 539.422654075 l 2
 349.72088936 601.420671704 432.508794433 645.002911519 535.265105363 626.129766353 c 0
 564.139769614 620.826256593 595.723663876 609.355822405 624.477268423 593.440230708 c 0
 677.944690043 563.846116829 738.554062447 506.890374491 702.079084385 441.09063274 c 0
 655.8963685 357.781779383 572.363114187 341.30171799 502.437152822 292.722258213 c 0
 408.743494238 227.628730797 322.418041776 207.043172852 326.473663602 122.680905032 c 0
 326.559579491 120.89838638 326.708738083 119.162209827 326.915947288 117.471571084 c 0
 333.768291111 61.6461400643 419.951042934 30.0744215286 498.010970809 39.9263429854 c 0
 577.344470916 49.7554083523 628.700253285 110.409486982 678.141635869 183.774024734 c 2
 690.715521859 202.433254062 l 1
 728.032825312 177.284421569 l 1
 715.457927825 158.625321542 l 2
 665.700363422 84.7919574625 605.063949413 7.84558719421 503.572813768 -4.72836960804 c 0
 421.527099939 -15.0835778365 294.55080352 11.7805663849 282.25104076 111.989400138 c 0
 281.906573184 114.796062046 281.663959735 117.64216276 281.526321486 120.519600064 c 0
 275.664146412 242.45820517 400.99439929 277.038905086 476.763053541 329.678140089 c 0
 558.75485842 386.641168101 627.365263484 399.12887114 662.721672908 462.909324044 c 0
 677.663679785 489.864418789 656.129607425 524.487560739 602.685782052 554.068577984 c 0
 578.205094433 567.619109475 550.369422733 577.601972323 527.135290245 581.870232732 c 0
 442.52694594 597.410363594 375.090091187 563.389869006 316.390525982 506.976782654 c 2
 300.1680289 491.386002747 l 1
 268.986647296 523.831910114 l 1
 280.732119906 535.120060847 l 1
226.38671875 581.861328125 m 1
 204.248046875 593.474609375 l 1
 215.861328125 615.61328125 l 1
 247.861328125 676.61328125 l 1
 254.8125 689.864257812 l 1
 269.774414062 689.999023438 l 1
 712.774414062 693.999023438 l 1
 725.374023438 694.112304688 l 1
 732.9609375 684.052734375 l 1
 778.9609375 623.052734375 l 1
 794.012695312 603.091796875 l 1
 774.052734375 588.0390625 l 1
 754.091796875 572.987304688 l 1
 739.0390625 592.947265625 l 1
 700.625976562 643.887695312 l 1
 285.1875 640.135742188 l 1
 260.138671875 592.38671875 l 1
 248.525390625 570.248046875 l 1
 226.38671875 581.861328125 l 1
504.374023438 714.330078125 m 1
 531.73046875 760.407226562 l 1
 473.158203125 759.626953125 l 1
 504.374023438 714.330078125 l 1
485.35546875 653.813476562 m 1
 405.415039062 769.813476562 l 1
 378.841796875 808.373046875 l 1
 425.666992188 808.998046875 l 1
 575.666992188 810.998046875 l 1
 620.26953125 811.592773438 l 1
 597.497070312 773.237304688 l 1
 527.4375 655.237304688 l 1
 506 653 l 1
 485.35546875 653.813476562 l 1
EndSplineSet
EndChar

StartChar: lt-ST
Encoding: 264 -1 33
Width: 1000
Flags: HW
LayerCount: 2
Fore
SplineSet
495.618164062 -9.9970703125 m 5
 470.62109375 -9.615234375 l 5
 471.002929688 15.3818359375 l 5
 481.002929688 670.381835938 l 5
 481.384765625 695.37890625 l 5
 506.381835938 694.997070312 l 5
 531.37890625 694.615234375 l 5
 530.997070312 669.618164062 l 5
 520.997070312 14.6181640625 l 5
 520.615234375 -10.37890625 l 5
 495.618164062 -9.9970703125 l 5
226.38671875 581.861328125 m 5
 204.248046875 593.474609375 l 5
 215.861328125 615.61328125 l 5
 247.861328125 676.61328125 l 5
 254.8125 689.864257812 l 5
 269.774414062 689.999023438 l 5
 712.774414062 693.999023438 l 5
 725.374023438 694.112304688 l 5
 732.9609375 684.052734375 l 5
 778.9609375 623.052734375 l 5
 794.012695312 603.091796875 l 5
 774.052734375 588.0390625 l 5
 754.091796875 572.987304688 l 5
 739.0390625 592.947265625 l 5
 700.625976562 643.887695312 l 5
 285.1875 640.135742188 l 5
 260.138671875 592.38671875 l 5
 248.525390625 570.248046875 l 5
 226.38671875 581.861328125 l 5
504.374023438 714.330078125 m 5
 531.73046875 760.407226562 l 5
 473.158203125 759.626953125 l 5
 504.374023438 714.330078125 l 5
485.35546875 653.813476562 m 5
 405.415039062 769.813476562 l 5
 378.841796875 808.373046875 l 5
 425.666992188 808.998046875 l 5
 575.666992188 810.998046875 l 5
 620.26953125 811.592773438 l 5
 597.497070312 773.237304688 l 5
 527.4375 655.237304688 l 5
 507.506835938 621.669921875 l 5
 485.35546875 653.813476562 l 5
852.749023438 371.53515625 m 4
 856.041015625 348.489257812 868.326171875 339.373046875 876.3046875 339.942382812 c 4
 891.6328125 340.931640625 903.498046875 355.607421875 901.206054688 372.797851562 c 4
 898.53125 394.193359375 882.741210938 407.69140625 864.9921875 406.078125 c 4
 859.3671875 405.690429688 849.251953125 396.016601562 852.749023438 371.53515625 c 4
803.250976562 364.46484375 m 4
 798.748046875 395.983398438 808.6328125 452.309570312 861.0078125 455.921875 c 4
 909.258789062 460.30859375 945.46875 421.806640625 950.793945312 379.202148438 c 4
 956.501953125 336.392578125 926.3671875 293.068359375 879.6953125 290.057617188 c 4
 831.673828125 286.626953125 807.958984375 331.510742188 803.250976562 364.46484375 c 4
56.0078125 349.383789062 m 1
 55.390625 374.375976562 l 1
 80.3837890625 374.9921875 l 1
 79.3837890625 374.967773438 80.3837890625 373.9921875 80.3837890625 374.9921875 c 1
 823.383789062 389.9921875 l 5
 848.375976562 390.609375 l 5
 848.9921875 365.616210938 l 5
 849.609375 340.624023438 l 5
 824.616210938 340.0078125 l 5
 81.6162109375 325.0078125 l 1
 81.6162109375 326.0078125 80.6171875 324.983398438 81.6162109375 325.0078125 c 1
 56.6240234375 324.390625 l 1
 56.0078125 349.383789062 l 1
EndSplineSet
EndChar

StartChar: lt-XT
Encoding: 265 -1 34
Width: 1000
Flags: HW
LayerCount: 2
Fore
SplineSet
406.037543558 -10.2469244248 m 1
 383.539497099 -9.90317443115 l 1
 382.289642151 -9.88407776732 l 1
 382.308739644 -8.63422283256 l 1
 382.652489404 13.8628317457 l 1
 391.652489644 603.36284748 l 1
 391.996239644 625.859917792 l 1
 392.015337111 627.10977107 l 1
 393.265190401 627.090674431 l 1
 415.763238105 626.746924418 l 1
 438.260308417 626.403174418 l 1
 439.510162523 626.384076939 l 1
 439.495839413 625.446686359 l 1
 439.491065043 625.134222833 l 1
 439.147315284 602.637168254 l 1
 430.147315043 13.1371525201 l 1
 429.803565043 -9.35991779244 l 1
 429.784467564 -10.6097718984 l 1
 428.534613458 -10.5906744185 l 1
 406.037543558 -10.2469244248 l 1
163.167390509 522.56785474 m 1
 143.242564549 533.020014337 l 1
 142.135625761 533.600691975 l 1
 142.716303399 534.707630763 l 1
 153.168453274 554.632438189 l 1
 181.968250278 609.532814167 l 1
 188.224109653 621.458595417 l 1
 188.571663929 622.121151275 l 1
 189.319814298 622.127879148 l 1
 202.785586947 622.248972468 l 1
 601.485875446 625.849559244 l 1
 612.825719196 625.951121744 l 1
 613.455612905 625.956763231 l 1
 613.834908267 625.453838845 l 1
 620.663079987 616.400065956 l 1
 662.062496616 561.499671927 l 1
 675.609371616 543.534828177 l 1
 676.361953563 542.536810768 l 1
 675.363955821 541.78420274 l 1
 657.400062552 528.237308072 l 1
 639.435218802 514.690433072 l 1
 638.437235977 513.937877204 l 1
 637.684619447 514.935814282 l 1
 624.136715474 532.899750967 l 1
 589.944755127 578.243384266 l 1
 217.428329227 574.878877959 l 1
 195.231938788 532.567759862 l 1
 184.779790351 512.642955174 l 1
 184.199135031 511.536058932 l 1
 183.092216472 512.116671706 l 1
 163.167390509 522.56785474 l 1
413.85819036 645.213992067 m 1
 436.344169832 683.086617497 l 1
 388.200699582 682.445358602 l 1
 413.85819036 645.213992067 l 1
395.791047359 587.722335846 m 1
 323.843770034 692.122743449 l 1
 299.928730971 726.826845012 l 1
 298.600171323 728.754772825 l 1
 300.941324866 728.786021479 l 1
 343.08392256 729.34852174 l 1
 478.083922779 731.148326431 l 1
 518.225524341 731.683482681 l 1
 520.455648493 731.713214052 l 1
 519.317017609 729.795439979 l 1
 498.821900538 695.275908924 l 1
 435.768181618 589.075700167 l 1
 417.830681618 558.864762667 l 1
 416.834171268 557.186406603 l 1
 415.726589236 558.793632161 l 1
 395.791047359 587.722335846 l 1
873.645507812 770.997070312 m 1
 898.643554688 771.3515625 l 1
 898.997070312 746.354492188 l 1
 908.997070312 40.3544921875 l 1
 909.3515625 15.3564453125 l 1
 884.354492188 15.0029296875 l 1
 859.356445312 14.6484375 l 1
 859.002929688 39.6455078125 l 1
 849.002929688 745.645507812 l 1
 848.6484375 770.643554688 l 1
 873.645507812 770.997070312 l 1
EndSplineSet
EndChar

StartChar: lt-KT
Encoding: 266 -1 35
Width: 1000
Flags: HW
LayerCount: 2
Fore
SplineSet
748.132448483 -11.4981475177 m 1
 738.133058927 -11.3448215913 l 1
 730.633929232 -11.2298334712 l 1
 730.748928581 -3.73070394819 l 1
 730.90224111 6.26683422447 l 1
 734.902237529 268.266599461 l 1
 735.054581279 278.265622899 l 1
 735.16883699 285.764752557 l 1
 742.667966649 285.650496846 l 1
 752.667722323 285.498141904 l 1
 762.66674576 285.344821591 l 1
 770.165875456 285.229833471 l 1
 770.050876107 277.730703948 l 1
 769.897563578 267.733165776 l 1
 765.897567158 5.73340053883 l 1
 765.745223408 -4.26562289867 l 1
 765.630967697 -11.764752557 l 1
 758.131838039 -11.6504968458 l 1
 748.132448483 -11.4981475177 l 1
637.070845046 226.102390715 m 1
 628.215089103 230.748049187 l 1
 621.573489853 234.232178833 l 1
 625.057619499 240.873778084 l 1
 629.703077557 249.729151988 l 1
 642.50295182 274.129675242 l 1
 645.283225257 279.429479929 l 1
 647.368251649 283.403992829 l 1
 651.856280871 283.444999459 l 1
 657.842455153 283.499694431 l 1
 835.042530145 285.099311487 l 1
 840.082569207 285.144233362 l 1
 843.861162461 285.177911969 l 1
 846.136834562 282.161255258 l 1
 849.172873569 278.136647327 l 1
 867.572010594 253.736624072 l 1
 873.593494969 245.752249072 l 1
 878.109768038 239.763755947 l 1
 872.120922795 235.247949816 l 1
 864.136547795 229.227442004 l 1
 856.152172795 223.206934191 l 1
 850.164613482 218.692097699 l 1
 845.648958092 224.679039446 l 1
 839.62699881 232.663067593 l 1
 826.537724726 250.020872586 l 1
 668.631510318 248.595510167 l 1
 660.697263313 233.470948478 l 1
 656.051755501 224.615479728 l 1
 652.567927159 217.974454839 l 1
 645.926601002 221.457708831 l 1
 637.070845046 226.102390715 l 1
737.966978018 257.269575389 m 1
 705.990382554 303.670013848 l 1
 695.361476304 319.093841973 l 1
 687.389983014 330.661442583 l 1
 701.437008797 330.848941337 l 1
 720.166634858 331.098943123 l 1
 780.166851231 331.898750691 l 1
 798.007671544 332.136055379 l 1
 811.387630945 332.314025171 l 1
 804.556478868 320.807924697 l 1
 795.447976115 305.465952124 l 1
 767.423616472 258.265848467 l 1
 759.451936784 244.839090655 l 1
 753.472927514 234.768602054 l 1
 746.827299642 244.412196959 l 1
 737.966978018 257.269575389 l 1
808.014648438 536.193359375 m 5
 783.603515625 541.588867188 l 5
 759.193359375 546.985351562 l 5
 764.588867188 571.396484375 l 5
 790.688476562 689.46484375 l 5
 106.456054688 22.103515625 l 5
 88.55859375 4.6474609375 l 5
 71.103515625 22.5439453125 l 5
 53.6474609375 40.44140625 l 5
 71.5439453125 57.896484375 l 5
 735.037109375 705.029296875 l 5
 611.116210938 673.759765625 l 5
 598.78515625 722.21484375 l 5
 629.82421875 730.180664062 l 5
 873 792 l 5
 808.014648438 536.193359375 l 5
EndSplineSet
EndChar

StartChar: lt-SK
Encoding: 267 -1 36
Width: 1000
Flags: HW
LayerCount: 2
Fore
SplineSet
678.854492188 315.600585938 m 1
 697.700195312 351.578125 l 1
 721.33203125 318.546875 l 1
 897.33203125 72.546875 l 1
 924.9609375 33.9296875 l 1
 877.487304688 33.0048828125 l 1
 569.487304688 27.0048828125 l 1
 527.25390625 26.181640625 l 1
 546.854492188 63.6005859375 l 1
 678.854492188 315.600585938 l 1
704.299804688 256.421875 m 1
 610.74609375 77.818359375 l 1
 829.0390625 82.0703125 l 1
 704.299804688 256.421875 l 1
808.014648438 536.193359375 m 1
 783.603515625 541.588867188 l 1
 759.193359375 546.985351562 l 1
 764.588867188 571.396484375 l 1
 790.688476562 689.46484375 l 1
 106.456054688 22.103515625 l 1
 88.55859375 4.6474609375 l 1
 71.103515625 22.5439453125 l 1
 53.6474609375 40.44140625 l 1
 71.5439453125 57.896484375 l 1
 735.037109375 705.029296875 l 1
 611.116210938 673.759765625 l 1
 598.78515625 722.21484375 l 1
 629.82421875 730.180664062 l 1
 873 792 l 1
 808.014648438 536.193359375 l 1
852.749023438 371.53515625 m 4
 856.041015625 348.489257812 868.326171875 339.373046875 876.3046875 339.942382812 c 4
 891.6328125 340.931640625 903.498046875 355.607421875 901.206054688 372.797851562 c 4
 898.53125 394.193359375 882.741210938 407.69140625 864.9921875 406.078125 c 4
 859.3671875 405.690429688 849.251953125 396.016601562 852.749023438 371.53515625 c 4
803.250976562 364.46484375 m 4
 798.748046875 395.983398438 808.6328125 452.309570312 861.0078125 455.921875 c 4
 909.258789062 460.30859375 945.46875 421.806640625 950.793945312 379.202148438 c 4
 956.501953125 336.392578125 926.3671875 293.068359375 879.6953125 290.057617188 c 4
 831.673828125 286.626953125 807.958984375 331.510742188 803.250976562 364.46484375 c 4
56.0078125 349.383789062 m 1
 55.390625 374.375976562 l 1
 80.3837890625 374.9921875 l 1
 79.3837890625 374.967773438 80.3837890625 373.9921875 80.3837890625 374.9921875 c 1
 823.383789062 389.9921875 l 5
 848.375976562 390.609375 l 5
 848.9921875 365.616210938 l 5
 849.609375 340.624023438 l 5
 824.616210938 340.0078125 l 5
 81.6162109375 325.0078125 l 1
 81.6162109375 326.0078125 80.6171875 324.983398438 81.6162109375 325.0078125 c 1
 56.6240234375 324.390625 l 1
 56.0078125 349.383789062 l 1
EndSplineSet
EndChar

StartChar: lt-XK
Encoding: 268 -1 37
Width: 1000
Flags: HW
LayerCount: 2
Fore
SplineSet
569.861463895 284.621030695 m 1
 586.822405925 316.999945593 l 1
 587.764671808 318.798757639 l 1
 588.946278625 317.147274942 l 1
 610.215828716 287.419709546 l 1
 768.61522804 66.0193395215 l 1
 793.481438977 31.264456709 l 1
 794.862898697 29.3336249153 l 1
 792.489209434 29.2873468722 l 1
 749.762624708 28.4543386266 l 1
 472.563432915 23.0549250894 l 1
 434.552690728 22.3137141519 l 1
 432.440986492 22.272535838 l 1
 433.42103655 24.1434961041 l 1
 451.06165468 57.8202408023 l 1
 569.861463895 284.621030695 l 1
594.03512769 228.400380096 m 1
 511.759156666 71.3270307575 l 1
 703.736740478 75.0668042465 l 1
 594.03512769 228.400380096 l 1
686.943140886 481.353671709 m 1
 664.973299435 486.209165856 l 1
 643.004549435 491.066587731 l 1
 641.784142673 491.336426958 l 1
 642.053867022 492.556859114 l 1
 646.909347023 514.526636579 l 1
 669.495025151 616.700702535 l 1
 56.6833486374 18.9987267244 l 1
 40.5759267624 3.28778922444 l 1
 39.681098115 2.41498679446 l 1
 38.8082963694 3.30981610944 l 1
 23.0982825338 19.4163156584 l 1
 7.38832159628 35.5247140959 l 1
 6.51560053252 36.419569193 l 1
 7.41042985173 37.2923166876 l 1
 23.5168658257 53.0012919544 l 1
 617.335057292 632.177843333 l 1
 510.310715993 605.171779959 l 1
 509.10117045 604.866568424 l 1
 508.793498494 606.075490451 l 1
 497.694865682 649.684865451 l 1
 497.387180968 650.893837609 l 1
 498.595537439 651.203931466 l 1
 526.533820604 658.373575684 l 1
 745.392219042 714.011270996 l 1
 747.429220456 714.529112965 l 1
 746.911712033 712.492026787 l 1
 688.424407345 482.266440849 l 1
 688.126106199 481.092227804 l 1
 686.943140886 481.353671709 l 1
873.645507812 770.997070312 m 1
 898.643554688 771.3515625 l 1
 898.997070312 746.354492188 l 1
 908.997070312 40.3544921875 l 1
 909.3515625 15.3564453125 l 1
 884.354492188 15.0029296875 l 1
 859.356445312 14.6484375 l 1
 859.002929688 39.6455078125 l 1
 849.002929688 745.645507812 l 1
 848.6484375 770.643554688 l 1
 873.645507812 770.997070312 l 1
EndSplineSet
EndChar

StartChar: lt-TK
Encoding: 269 -1 38
Width: 1000
Flags: HW
LayerCount: 2
Fore
SplineSet
640.869403647 253.640482629 m 1
 655.945570058 282.422698761 l 1
 657.830136191 286.020562319 l 1
 660.193382539 282.717339894 l 1
 679.098649546 256.292544195 l 1
 819.898425324 59.4918033513 l 1
 842.001940949 28.5982486638 l 1
 844.764962098 24.7364401438 l 1
 840.017403679 24.6440281684 l 1
 802.03893428 23.9047712562 l 1
 555.638536748 19.1039898716 l 1
 521.851427373 18.4457867466 l 1
 517.628138886 18.3635133077 l 1
 519.588159779 22.1053380852 l 1
 535.268823169 52.0408836762 l 1
 640.869403647 253.640482629 l 1
663.769483769 200.37987494 m 1
 592.771232934 64.8366648747 l 1
 758.435362214 68.0633106772 l 1
 663.769483769 200.37987494 l 1
745.872575319 426.513991686 m 1
 726.34325272 430.830403622 l 1
 706.814932407 435.146809872 l 1
 704.373877378 435.686363966 l 1
 704.913405749 438.127424681 l 1
 709.229829552 457.656800968 l 1
 728.302494365 543.936501923 l 1
 186.910574109 15.8928944709 l 1
 172.592214734 1.92805072088 l 1
 170.802490472 0.18251416814 l 1
 169.056955464 1.97223993592 l 1
 155.093089783 16.2896212038 l 1
 141.128246033 30.6079805788 l 1
 139.382709481 32.39770484 l 1
 141.172435248 34.1432398481 l 1
 155.489786728 48.1070764756 l 1
 679.633015073 559.326402231 l 1
 589.504241968 536.583793659 l 1
 587.085086041 535.973356898 l 1
 586.469792484 538.391282098 l 1
 576.605534671 577.154953973 l 1
 575.990267273 579.572776378 l 1
 578.406822887 580.193000625 l 1
 603.24343072 586.567465967 l 1
 797.784446345 636.022544092 l 1
 801.858430005 637.058208369 l 1
 800.823424981 632.984057174 l 1
 748.835143731 428.339525924 l 1
 748.238535587 425.991062174 l 1
 745.872575319 426.513991686 l 1
226.38671875 581.861328125 m 1
 204.248046875 593.474609375 l 1
 215.861328125 615.61328125 l 1
 247.861328125 676.61328125 l 1
 254.8125 689.864257812 l 1
 269.774414062 689.999023438 l 1
 712.774414062 693.999023438 l 1
 725.374023438 694.112304688 l 1
 732.9609375 684.052734375 l 1
 778.9609375 623.052734375 l 1
 794.012695312 603.091796875 l 1
 774.052734375 588.0390625 l 1
 754.091796875 572.987304688 l 1
 739.0390625 592.947265625 l 1
 700.625976562 643.887695312 l 1
 285.1875 640.135742188 l 1
 260.138671875 592.38671875 l 1
 248.525390625 570.248046875 l 1
 226.38671875 581.861328125 l 1
504.374023438 714.330078125 m 1
 531.73046875 760.407226562 l 1
 473.158203125 759.626953125 l 1
 504.374023438 714.330078125 l 1
485.35546875 653.813476562 m 1
 405.415039062 769.813476562 l 1
 378.841796875 808.373046875 l 1
 425.666992188 808.998046875 l 1
 575.666992188 810.998046875 l 1
 620.26953125 811.592773438 l 1
 597.497070312 773.237304688 l 1
 527.4375 655.237304688 l 1
 506 653 l 1
 485.35546875 653.813476562 l 1
EndSplineSet
EndChar

StartChar: lt-XS
Encoding: 270 -1 39
Width: 1000
Flags: HW
LayerCount: 2
Fore
SplineSet
685.51087142 334.558633264 m 0
 688.435584203 314.091425754 699.214618274 306.754434892 705.394162732 307.195650837 c 0
 718.402884567 308.03459644 728.623148222 320.527213561 726.644412473 335.36258116 c 0
 724.305295937 354.081209351 710.6210385 365.608962962 695.392542729 364.223623248 c 0
 691.508252577 363.956128729 682.39407739 356.377158523 685.51087142 334.558633264 c 0
638.489124429 327.840809854 m 0
 634.413202425 356.371281735 643.2989703 408.244456726 691.607439524 411.576178826 c 0
 735.802503507 415.593369809 768.895422314 380.313518246 773.753681393 341.447445612 c 0
 778.977908945 302.269214511 751.39785617 262.565122113 708.614445433 259.804934152 c 0
 664.386979908 256.645972236 642.759366578 297.945177295 638.489124429 327.840809854 c 0
110.504882811 291.225616778 m 1
 88.0429146263 290.671712376 l 1
 86.8719076884 338.157280686 l 1
 110.614685383 338.742783996 l 1
 681.556640529 352.828286287 l 1
 682.728678249 305.342719314 l 1
 110.504882811 291.225616778 l 1
438.248952638 15.5533429914 m 1
 438.488210578 -6.9456924489 l 1
 438.501502504 -8.19562177679 l 1
 437.251573176 -8.20891370288 l 1
 414.752577152 -8.44817122387 l 1
 392.254557689 -8.68840530615 l 1
 391.004628367 -8.70175206427 l 1
 390.991282188 -7.45182273518 l 1
 390.751047813 15.0472007023 l 1
 393.250939805 15.0673252182 l 1
 390.751047463 15.0472334842 l 1
 383.551828889 690.946631019 l 1
 383.003000764 742.409521644 l 1
 382.972509829 745.268616484 l 1
 385.091955709 743.349423381 l 1
 423.241368199 708.80450293 l 1
 651.840939933 501.804537013 l 1
 668.51965087 486.702974513 l 1
 669.446288009 485.863960712 l 1
 668.607244395 484.937350568 l 1
 653.504705332 468.258639631 l 1
 638.40216627 451.579928693 l 1
 637.563125207 450.653321366 l 1
 636.636542324 451.492389424 l 1
 619.958829793 466.594908706 l 1
 431.62706706 637.130844693 l 1
 438.248952638 15.5533429914 l 1
393.250939805 15.0673252182 m 1
 393.256782316 14.5286456339 393.250939805 15.6038981374 393.250939805 15.0673252182 c 1
873.645507812 770.997070312 m 1
 898.643554688 771.3515625 l 1
 898.997070312 746.354492188 l 1
 908.997070312 40.3544921875 l 1
 909.3515625 15.3564453125 l 1
 884.354492188 15.0029296875 l 1
 859.356445312 14.6484375 l 1
 859.002929688 39.6455078125 l 1
 849.002929688 745.645507812 l 1
 848.6484375 770.643554688 l 1
 873.645507812 770.997070312 l 1
EndSplineSet
EndChar

StartChar: lt-KS
Encoding: 271 -1 40
Width: 1000
Flags: HW
LayerCount: 2
Fore
SplineSet
879.324033891 149.674927652 m 0
 879.848945684 146.001712438 881.080284446 144.263740692 881.602971881 143.624180861 c 0
 882.983999945 144.212166269 884.16624172 145.741737956 883.843940101 148.15848524 c 0
 883.295428922 152.548578365 880.782064941 154.309736905 879.335767024 154.77719242 c 1
 879.0310566 153.095701457 878.98734501 152.032455173 879.324033891 149.674927652 c 0
844.675942254 144.72563002 m 0
 842.736162422 158.306192729 846.617512833 187.914902198 874.605589991 189.845744233 c 0
 898.522560428 192.01913418 916.027272134 172.868928388 918.556418181 152.641555484 c 0
 921.35124927 131.680322319 906.576407459 110.049260212 883.186294754 108.540654836 c 0
 857.97386563 106.739675482 846.761543888 130.124255091 844.675942254 144.72563002 c 0
617.252808752 122.495894795 m 2
 609.946289062 122.315614814 l 1
 609.946289488 122.316033229 l 1
 600.136076638 122.074539272 l 1
 599.273043664 157.06241011 l 1
 877.463532737 163.925460728 l 1
 878.326565711 128.93758989 l 1
 617.63085702 122.505222702 l 1
 617.630857551 122.505201067 l 2
 617.504841284 122.505201067 617.378825018 122.495894795 617.252808752 122.495894795 c 2
769.499023411 6.94617221006 m 1
 769.684881063 -10.5125112353 l 1
 734.687684077 -10.8850763756 l 1
 734.501401882 6.61348690094 l 1
 730.873951148 347.040874231 l 1
 875.118006053 216.425565586 l 1
 851.62645529 190.481637769 l 1
 766.725260339 267.360119879 l 1
 769.499023438 6.9461914758 l 1
 769.499023411 6.94617221006 l 1
808.014648438 536.193359375 m 5
 783.603515625 541.588867188 l 5
 759.193359375 546.985351562 l 5
 764.588867188 571.396484375 l 5
 790.688476562 689.46484375 l 5
 106.456054688 22.103515625 l 5
 88.55859375 4.6474609375 l 5
 71.103515625 22.5439453125 l 5
 53.6474609375 40.44140625 l 5
 71.5439453125 57.896484375 l 5
 735.037109375 705.029296875 l 5
 611.116210938 673.759765625 l 5
 598.78515625 722.21484375 l 5
 629.82421875 730.180664062 l 5
 873 792 l 5
 808.014648438 536.193359375 l 5
EndSplineSet
EndChar

StartChar: lt-TS
Encoding: 272 -1 41
Width: 1000
Flags: HW
LayerCount: 2
Fore
SplineSet
746.273701935 297.582068484 m 0
 748.829188521 279.692714851 758.101911895 274.135912688 762.482624522 274.448916482 c 0
 773.172860152 275.138499253 781.748642981 285.444218773 780.083760611 297.928176994 c 0
 778.078414941 313.97002709 766.501802584 323.525613272 753.793017073 322.370110215 c 0
 751.650236015 322.222236002 743.537377896 316.73538167 746.273701935 297.582068484 c 0
701.726297307 291.217741509 m 0
 698.077377335 316.758203042 705.965214214 364.178379497 750.207035111 367.229504002 c 0
 790.346408081 370.879184131 820.322086149 338.820375826 824.713421314 303.692713988 c 0
 829.452882945 268.146751755 804.426679615 232.061781493 765.534567442 229.55225201 c 0
 725.100126472 226.664004237 705.559760606 264.380515946 701.726297307 291.217741509 c 0
233.844602181 302.493379818 m 1
 742.738376293 315.048189379 l 1
 743.847994067 270.061428394 l 1
 232.393554688 257.443420957 l 1
 232.393554688 257.443435438 l 1
 212.461819019 256.951810621 l 1
 211.35220132 301.938568597 l 1
 233.844602166 302.493380418 l 1
 233.844602181 302.493379818 l 1
526.498881695 13.8400978225 m 1
 526.711772428 -6.15893575514 l 1
 526.738383548 -8.65879412078 l 1
 524.238525182 -8.68540524065 l 1
 504.239562773 -8.898295216 l 1
 484.240600363 -9.11216175088 l 1
 481.740621241 -9.13889623146 l 1
 481.714008822 -6.63891580736 l 1
 481.501118282 13.3600995857 l 1
 475.101704335 614.159893435 l 1
 474.614399648 659.905010622 l 1
 474.553487213 665.623089192 l 1
 478.792305366 661.784788328 l 1
 512.702460498 631.078734652 l 1
 715.902685216 447.078708025 l 1
 730.727880528 433.653903338 l 1
 732.581002616 431.975827497 l 1
 730.902926775 430.122705409 l 1
 717.478182824 415.29757717 l 1
 704.054354699 400.472381858 l 1
 702.376285196 398.619131958 l 1
 700.523096034 400.297268537 l 1
 685.697936224 413.722041076 l 1
 520.646710974 563.176742928 l 1
 526.498881695 13.8400978225 l 1
226.38671875 581.861328125 m 1
 204.248046875 593.474609375 l 1
 215.861328125 615.61328125 l 1
 247.861328125 676.61328125 l 1
 254.8125 689.864257812 l 1
 269.774414062 689.999023438 l 1
 712.774414062 693.999023438 l 1
 725.374023438 694.112304688 l 1
 732.9609375 684.052734375 l 1
 778.9609375 623.052734375 l 1
 794.012695312 603.091796875 l 1
 774.052734375 588.0390625 l 1
 754.091796875 572.987304688 l 1
 739.0390625 592.947265625 l 1
 700.625976562 643.887695312 l 1
 285.1875 640.135742188 l 1
 260.138671875 592.38671875 l 1
 248.525390625 570.248046875 l 1
 226.38671875 581.861328125 l 1
504.374023438 714.330078125 m 1
 531.73046875 760.407226562 l 1
 473.158203125 759.626953125 l 1
 504.374023438 714.330078125 l 1
485.35546875 653.813476562 m 1
 405.415039062 769.813476562 l 1
 378.841796875 808.373046875 l 1
 425.666992188 808.998046875 l 1
 575.666992188 810.998046875 l 1
 620.26953125 811.592773438 l 1
 597.497070312 773.237304688 l 1
 527.4375 655.237304688 l 1
 506 653 l 1
 485.35546875 653.813476562 l 1
EndSplineSet
EndChar

StartChar: lt-SF
Encoding: 273 -1 42
Width: 1000
Flags: HW
LayerCount: 2
Fore
SplineSet
908.7890625 661.755859375 m 1
 932.544921875 653.966796875 l 1
 924.755859375 630.2109375 l 2
 885.165039062 509.458984375 864.908203125 438.061523438 763.681640625 347.37890625 c 0
 651.923828125 247.263671875 513.1796875 349.579101562 426.671875 293.069335938 c 0
 305.748046875 214.079101562 265.193359375 155.192382812 170.288085938 40.095703125 c 2
 154.383789062 20.806640625 l 1
 135.095703125 36.7119140625 l 1
 115.806640625 52.6162109375 l 1
 131.711914062 71.904296875 l 2
 224.806640625 184.807617188 272.251953125 251.920898438 399.328125 334.930664062 c 0
 529.234375 419.788085938 650.076171875 312.736328125 730.318359375 384.62109375 c 0
 823.1953125 467.823242188 836.834960938 522.541015625 877.244140625 645.7890625 c 2
 885.033203125 669.544921875 l 1
 908.7890625 661.755859375 l 1
787.41015625 780.997070312 m 1
 812.40625 780.586914062 l 1
 811.997070312 755.58984375 l 2
 809.98046875 632.60546875 798.638671875 551.611328125 695.681640625 459.37890625 c 0
 583.923828125 359.263671875 445.1796875 461.579101562 358.671875 405.069335938 c 0
 237.748046875 326.079101562 197.193359375 267.192382812 102.288085938 152.095703125 c 2
 86.3837890625 132.806640625 l 1
 67.095703125 148.711914062 l 1
 47.806640625 164.616210938 l 1
 63.7119140625 183.904296875 l 2
 156.806640625 296.807617188 204.251953125 363.920898438 331.328125 446.930664062 c 0
 461.234375 531.788085938 582.076171875 424.736328125 662.318359375 496.62109375 c 0
 753.46484375 578.2734375 760.01953125 635.39453125 762.002929688 756.41015625 c 2
 762.413085938 781.40625 l 1
 787.41015625 780.997070312 l 1
478.892578125 765.237304688 m 1
 497.91015625 785.215820312 l 1
 515.928710938 764.331054688 l 1
 708.259765625 541.40234375 l 1
 689.331054688 525.071289062 l 1
 670.40234375 508.740234375 l 1
 496.08984375 710.784179688 l 1
 299.870117188 504.655273438 l 1
 281.762695312 521.892578125 l 1
 263.655273438 539.129882812 l 1
 478.892578125 765.237304688 l 1
494.860351562 746 m 1
 519.860351562 746.138671875 l 1
 520 739.139648438 l 1
 524 42.1396484375 l 1
 524.138671875 17.1396484375 l 1
 499.139648438 17 l 1
 474.139648438 16.861328125 l 1
 474 41.8603515625 l 1
 470 738.860351562 l 1
 469.861328125 745.860351562 l 1
 494.860351562 746 l 1
852.749023438 371.53515625 m 4
 856.041015625 348.489257812 868.326171875 339.373046875 876.3046875 339.942382812 c 4
 891.6328125 340.931640625 903.498046875 355.607421875 901.206054688 372.797851562 c 4
 898.53125 394.193359375 882.741210938 407.69140625 864.9921875 406.078125 c 4
 859.3671875 405.690429688 849.251953125 396.016601562 852.749023438 371.53515625 c 4
803.250976562 364.46484375 m 4
 798.748046875 395.983398438 808.6328125 452.309570312 861.0078125 455.921875 c 4
 909.258789062 460.30859375 945.46875 421.806640625 950.793945312 379.202148438 c 4
 956.501953125 336.392578125 926.3671875 293.068359375 879.6953125 290.057617188 c 4
 831.673828125 286.626953125 807.958984375 331.510742188 803.250976562 364.46484375 c 4
56.0078125 349.383789062 m 1
 55.390625 374.375976562 l 1
 80.3837890625 374.9921875 l 1
 79.3837890625 374.967773438 80.3837890625 373.9921875 80.3837890625 374.9921875 c 1
 823.383789062 389.9921875 l 5
 848.375976562 390.609375 l 5
 848.9921875 365.616210938 l 5
 849.609375 340.624023438 l 5
 824.616210938 340.0078125 l 5
 81.6162109375 325.0078125 l 1
 81.6162109375 326.0078125 80.6171875 324.983398438 81.6162109375 325.0078125 c 1
 56.6240234375 324.390625 l 1
 56.0078125 349.383789062 l 1
EndSplineSet
EndChar

StartChar: lt-XF
Encoding: 274 -1 43
Width: 1000
Flags: HW
LayerCount: 2
Fore
SplineSet
778.299584953 596.76786821 m 1
 799.679475793 589.758099953 l 1
 800.867263246 589.368663223 l 1
 800.477826515 588.18087577 l 1
 793.468061037 566.800993405 l 2
 757.853301119 458.175341192 739.467165973 393.518418419 648.147535711 311.71055627 c 0
 546.92784112 221.034825554 421.301464391 312.762308464 344.688489039 262.716185624 c 0
 236.007806509 191.723253508 199.685660079 138.935118888 114.224173948 35.2906912577 c 2
 99.9097208233 17.9313162577 l 1
 99.1145012112 16.9669402292 l 1
 98.1500985535 17.7621275466 l 1
 80.7906912577 32.0756307392 l 1
 63.4313162577 46.3900838642 l 1
 62.4669402292 47.1853034763 l 1
 63.2621275466 48.149706134 l 1
 77.5756136574 65.509092714 l 2
 161.318578523 167.070021188 204.186673215 227.673064619 318.711904013 302.484011273 c 0
 436.561566793 379.465960102 545.180183469 283.241293919 616.453048093 347.090223069 c 0
 699.841385454 421.792417362 711.939429754 470.602888695 748.331743797 581.599397668 c 2
 755.341509422 602.97928048 l 1
 755.730940887 604.167051872 l 1
 756.918717544 603.777636469 l 1
 778.299584953 596.76786821 l 1
668.689425916 704.147293144 m 1
 691.186523348 703.778152075 l 1
 692.43635511 703.757644352 l 1
 692.415847387 702.50781259 l 1
 692.046707083 680.010761853 l 2
 690.231161328 569.257585024 679.916532862 495.79511965 586.947340398 412.510360957 c 0
 485.727648177 321.834632364 360.101263576 413.562109557 283.488298026 363.51599312 c 0
 174.808579403 292.523053624 138.485463742 239.735899438 53.0239786358 136.090495945 c 2
 38.7095255108 118.731120945 l 1
 37.9142792685 117.766712622 l 1
 36.9498709452 118.561958864 l 1
 19.590528241 132.876385359 l 1
 2.23115324105 147.189861922 l 1
 1.26668599079 147.985102498 l 1
 2.06195886418 148.949543117 l 1
 16.376390358 166.308891884 l 2
 100.118380988 267.869822568 142.987455362 328.473846917 257.5117087 403.283815961 c 0
 375.361371651 480.265764902 483.979987845 384.041098327 555.25285302 447.890027971 c 0
 637.004776384 521.126227362 642.768228339 571.905382011 644.552902613 680.78906241 c 2
 644.922043238 703.286132723 l 1
 644.942550071 704.535910247 l 1
 646.192328484 704.515457651 l 1
 668.689425916 704.147293144 l 1
390.097541235 689.574732693 m 1
 407.213742555 707.556167902 l 1
 408.164653614 708.555148066 l 1
 409.065589398 707.510874192 l 1
 425.282383054 688.714002922 l 1
 598.380039304 488.078260735 l 1
 599.196597431 487.13179647 l 1
 598.250117025 486.315257054 l 1
 581.214015315 471.618018263 l 1
 564.177882502 456.919776075 l 1
 563.231433119 456.10320917 l 1
 562.414880735 457.049671081 l 1
 406.434939973 637.845264433 l 1
 230.789170562 453.327603753 l 1
 229.92731077 452.422211308 l 1
 229.021928745 453.284082045 l 1
 212.725053745 468.79775392 l 1
 196.428178745 484.311425795 l 1
 195.522815808 485.17327836 l 1
 196.38466023 486.078649049 l 1
 390.097541235 689.574732693 l 1
405.367078947 672.650371336 m 1
 427.867133351 672.774395073 l 1
 429.099137972 672.781186071 l 1
 429.123773512 671.549409064 l 1
 429.249928282 665.241670609 l 1
 432.849590085 37.9327255873 l 1
 432.974590085 15.4327255873 l 1
 432.981534421 14.1827451784 l 1
 431.731554014 14.1758005414 l 1
 409.232584526 14.0508008422 l 1
 386.732584526 13.9248242797 l 1
 385.482549866 13.9178253878 l 1
 385.475605227 15.1678603502 l 1
 385.350606528 37.6676300347 l 1
 381.750071171 664.958622516 l 1
 381.62524599 671.249616587 l 1
 381.600092857 672.517295195 l 1
 382.868001108 672.524394469 l 1
 405.367078947 672.650371336 l 1
873.645507812 770.997070312 m 1
 898.643554688 771.3515625 l 1
 898.997070312 746.354492188 l 1
 908.997070312 40.3544921875 l 1
 909.3515625 15.3564453125 l 1
 884.354492188 15.0029296875 l 1
 859.356445312 14.6484375 l 1
 859.002929688 39.6455078125 l 1
 849.002929688 745.645507812 l 1
 848.6484375 770.643554688 l 1
 873.645507812 770.997070312 l 1
EndSplineSet
EndChar

StartChar: lt-KF
Encoding: 275 -1 44
Width: 1000
Flags: HW
LayerCount: 2
Fore
SplineSet
915.852146599 271.828905541 m 1
 925.354099724 268.713671166 l 1
 932.480856828 266.377149567 l 1
 930.144335229 259.250392463 l 1
 927.029053419 249.748294661 l 2
 911.294586263 201.758994541 902.264138554 170.80016761 860.476973526 133.364866424 c 0
 811.951059589 89.8944419036 751.907374255 128.675124968 724.770504085 110.9484296 c 0
 677.307908224 79.9455258334 662.148794769 57.651548548 623.901792237 11.2667393659 c 2
 617.540464112 3.55189561595 l 1
 612.76941396 -2.23430275728 l 1
 606.982919188 2.53638790788 l 1
 599.266303382 8.89837197161 l 1
 591.551459632 15.2606766591 l 1
 585.765697245 20.0320996906 l 1
 590.536684325 25.8182215716 l 1
 596.898034763 33.5330923814 l 2
 633.878836304 78.381963861 653.859208346 106.433896896 705.62976211 140.250707869 c 0
 763.193526925 177.853394209 810.701248444 135.76510485 837.123591037 159.434919116 c 0
 873.071123642 191.637641467 877.462465135 210.910394435 893.770920687 260.652612621 c 2
 896.887131625 270.154565746 l 1
 899.224097684 277.280444703 l 1
 906.350193474 274.944139916 l 1
 915.852146599 271.828905541 l 1
865.086909519 319.897428138 m 1
 875.085932956 319.733365638 l 1
 882.584935609 319.61032311 l 1
 882.461881066 312.111320654 l 1
 882.297820094 302.113366986 l 2
 881.484605579 252.518111293 876.309279391 216.715405315 833.276845917 178.165708324 c 0
 784.751143284 134.694413026 724.707628874 173.475699847 697.570455672 155.749306809 c 0
 650.108718196 124.745379572 634.948534308 102.451274226 596.701596925 56.0665440534 c 2
 590.3402688 48.3517003034 l 1
 585.569218648 42.5655019302 l 1
 579.782723875 47.3361925954 l 1
 572.066108069 53.6981766591 l 1
 564.351264319 60.0604813466 l 1
 558.565501933 64.8319043781 l 1
 563.336489013 70.6180262591 l 1
 569.69783945 78.3328970689 l 2
 606.678771445 123.181926758 626.659753678 151.233517632 678.429620827 185.051524413 c 0
 735.994376373 222.654151236 783.50120115 180.565042135 809.923301057 204.234638997 c 0
 844.705446349 235.394439958 846.511661897 254.454394804 847.302755197 302.685786694 c 2
 847.465841134 312.684810132 l 1
 847.588163209 320.184544983 l 1
 855.087886081 320.061490638 l 1
 865.086909519 319.897428138 l 1
736.124426742 311.265901704 m 1
 743.73192307 319.25719085 l 1
 749.437351744 325.250454373 l 1
 754.842712216 318.985216774 l 1
 762.049768616 310.631671998 l 1
 838.982385803 221.459796998 l 1
 843.881586807 215.781179066 l 1
 838.203017995 210.881921129 l 1
 830.631728932 204.349694567 l 1
 823.06043987 197.817468004 l 1
 817.381788115 192.918138508 l 1
 812.482484628 198.596812701 l 1
 748.162398852 273.148799963 l 1
 675.380514363 196.691190783 l 1
 670.209556013 191.259082019 l 1
 664.777291699 196.429876957 l 1
 657.534127636 203.324408207 l 1
 650.290963574 210.218939457 l 1
 644.858389394 215.390029346 l 1
 650.029625733 220.822464122 l 1
 736.124426742 311.265901704 l 1
747.902588538 305.90027447 m 1
 757.903320926 305.954965975 l 1
 765.29585468 305.995393894 l 1
 765.442853079 298.604211229 l 1
 765.499572151 295.752336496 l 1
 767.099493184 16.8972161501 l 1
 767.155157247 6.89721615011 l 1
 767.196904647 -0.60266765929 l 1
 759.697020838 -0.644415059406 l 1
 749.697024915 -0.700079099209 l 1
 739.698001477 -0.755743161709 l 1
 732.198113613 -0.797494661684 l 1
 732.156366191 6.70239322489 l 1
 732.10070953 16.7010839352 l 1
 730.500427963 295.447871613 l 1
 730.445817762 298.194668892 l 1
 730.294602292 305.800541736 l 1
 737.90185615 305.843629697 l 1
 747.902588538 305.90027447 l 1
808.014648438 536.193359375 m 5
 783.603515625 541.588867188 l 5
 759.193359375 546.985351562 l 5
 764.588867188 571.396484375 l 5
 790.688476562 689.46484375 l 5
 106.456054688 22.103515625 l 5
 88.55859375 4.6474609375 l 5
 71.103515625 22.5439453125 l 5
 53.6474609375 40.44140625 l 5
 71.5439453125 57.896484375 l 5
 735.037109375 705.029296875 l 5
 611.116210938 673.759765625 l 5
 598.78515625 722.21484375 l 5
 629.82421875 730.180664062 l 5
 873 792 l 5
 808.014648438 536.193359375 l 5
EndSplineSet
EndChar

StartChar: lt-TF
Encoding: 276 -1 45
Width: 1000
Flags: HW
LayerCount: 2
Fore
SplineSet
827.810127574 531.779870432 m 1
 846.813996783 525.549413826 l 1
 849.189546348 524.770585141 l 1
 848.410753798 522.395023729 l 1
 842.180262168 503.390071128 l 2
 810.541555098 406.891673135 794.027134302 348.974359571 712.613429543 276.041228604 c 0
 621.932518302 194.806575779 509.423164464 275.94485051 442.705101366 232.363034193 c 0
 346.268406531 169.36829271 314.178089447 122.678988322 238.159310859 30.4857102691 c 2
 225.435678046 15.0550462066 l 1
 223.84521644 13.1262040979 l 1
 222.398584859 14.3190503023 l 1
 221.916374332 14.7166657038 l 1
 206.485710269 27.4402985163 l 1
 191.055046207 40.1639313288 l 1
 189.126204098 41.7543929347 l 1
 190.319050302 43.2010245162 l 1
 190.716665704 43.6832350434 l 1
 203.440295442 59.1138953771 l 2
 277.83052971 149.331465495 316.122332019 203.426182359 418.094704338 270.037357096 c 0
 523.887749248 339.143815562 620.284259258 253.746291306 682.586754937 309.558371067 c 0
 756.487443079 375.761576741 767.043898126 418.664760565 799.419360464 517.409773992 c 2
 805.650805776 536.414656805 l 1
 806.429720393 538.790218216 l 1
 808.805281805 538.011303599 l 1
 827.810127574 531.779870432 l 1
729.968689468 627.296539514 m 1
 749.965698761 626.969392075 l 1
 752.465364274 626.928498001 l 1
 752.4244702 624.428832489 l 1
 752.09732024 604.431669204 l 2
 750.481853982 505.909740928 741.19431233 439.978843661 658.213038918 365.640837979 c 0
 567.532127677 284.406185154 455.022773839 365.544459885 388.304710741 321.962643568 c 0
 291.868048654 258.967923476 259.777642708 212.278529905 183.759946199 120.086356122 c 2
 171.036313387 104.654715497 l 1
 169.445862294 102.725764068 l 1
 167.516960269 104.316275079 l 1
 152.086356122 117.039858488 l 1
 136.654715497 129.763491301 l 1
 134.725823986 131.353892991 l 1
 136.316225676 133.282784503 l 1
 149.039904817 148.714481315 l 2
 223.430138015 238.932050135 261.721981908 293.025820158 363.695281271 359.636960589 c 0
 469.487390828 428.743457436 565.884770892 343.345862897 628.18735054 399.158965663 c 0
 700.54371876 463.978030496 705.516925515 508.415258021 707.102875549 605.1689458 c 2
 707.431000549 625.166016113 l 1
 707.472016662 627.665679626 l 1
 709.971680175 627.624663513 l 1
 729.968689468 627.296539514 l 1
481.303470693 613.913126531 m 1
 496.517304009 629.896489384 l 1
 498.419099344 631.894479257 l 1
 500.221000729 629.805953359 l 1
 514.636060811 613.097921182 l 1
 668.500318623 434.754171182 l 1
 670.133374556 432.861299354 l 1
 668.240524227 431.228218501 l 1
 653.097885726 418.163713288 l 1
 637.954331038 405.099260163 l 1
 636.061448852 403.466257138 l 1
 634.428400678 405.359100373 l 1
 496.78003779 564.905387305 l 1
 341.707241767 402.00090474 l 1
 339.983588983 400.190201819 l 1
 338.172834212 401.913800132 l 1
 323.686442046 415.702923592 l 1
 309.200113921 429.492962655 l 1
 307.389370854 431.216671894 l 1
 309.113074878 433.027419926 l 1
 481.303470693 613.913126531 l 1
495.874756075 599.299765957 m 1
 515.874756075 599.411094082 l 1
 518.339190427 599.424812125 l 1
 518.388177933 596.960826515 l 1
 518.499857433 591.343543614 l 1
 521.699179334 33.7249760501 l 1
 521.811484021 13.7259526126 l 1
 521.82552326 11.225869276 l 1
 519.325439238 11.2119527927 l 1
 499.325439238 11.1006246677 l 1
 479.325439238 10.9892965427 l 1
 476.825478647 10.9753807464 l 1
 476.811562171 13.475341333 l 1
 476.700236485 33.4739333983 l 1
 473.500142586 591.055872579 l 1
 473.389165644 596.638791521 l 1
 473.338764526 599.174321473 l 1
 475.874756075 599.188437832 l 1
 495.874756075 599.299765957 l 1
226.38671875 581.861328125 m 1
 204.248046875 593.474609375 l 1
 215.861328125 615.61328125 l 1
 247.861328125 676.61328125 l 1
 254.8125 689.864257812 l 1
 269.774414062 689.999023438 l 1
 712.774414062 693.999023438 l 1
 725.374023438 694.112304688 l 1
 732.9609375 684.052734375 l 1
 778.9609375 623.052734375 l 1
 794.012695312 603.091796875 l 1
 774.052734375 588.0390625 l 1
 754.091796875 572.987304688 l 1
 739.0390625 592.947265625 l 1
 700.625976562 643.887695312 l 1
 285.1875 640.135742188 l 1
 260.138671875 592.38671875 l 1
 248.525390625 570.248046875 l 1
 226.38671875 581.861328125 l 1
504.374023438 714.330078125 m 1
 531.73046875 760.407226562 l 1
 473.158203125 759.626953125 l 1
 504.374023438 714.330078125 l 1
485.35546875 653.813476562 m 1
 405.415039062 769.813476562 l 1
 378.841796875 808.373046875 l 1
 425.666992188 808.998046875 l 1
 575.666992188 810.998046875 l 1
 620.26953125 811.592773438 l 1
 597.497070312 773.237304688 l 1
 527.4375 655.237304688 l 1
 506 653 l 1
 485.35546875 653.813476562 l 1
EndSplineSet
EndChar

StartChar: lt-SN
Encoding: 277 -1 46
Width: 1000
Flags: HW
LayerCount: 2
Fore
SplineSet
765.5703125 73.06640625 m 5
 499.560546875 358.3671875 l 5
 225.577148438 68.3720703125 l 5
 765.5703125 73.06640625 l 5
787.073242188 662.977539062 m 5
 534.059570312 394.881835938 l 5
 796.3359375 113.416992188 l 5
 787.073242188 662.977539062 l 5
499.791015625 430.359375 m 5
 834.991210938 785.696289062 l 5
 847.275390625 56.8369140625 l 5
 848.424804688 22.3115234375 l 5
 822.744140625 22.3134765625 l 5
 798.999023438 22.009765625 l 5
 108.987304688 16.1015625 l 5
 465.291015625 393.844726562 l 5
 156.651367188 725.024414062 l 5
 193.294921875 759.04296875 l 5
 499.791015625 430.359375 l 5
852.749023438 371.53515625 m 4
 856.041015625 348.489257812 868.326171875 339.373046875 876.3046875 339.942382812 c 4
 891.6328125 340.931640625 903.498046875 355.607421875 901.206054688 372.797851562 c 4
 898.53125 394.193359375 882.741210938 407.69140625 864.9921875 406.078125 c 4
 859.3671875 405.690429688 849.251953125 396.016601562 852.749023438 371.53515625 c 4
803.250976562 364.46484375 m 4
 798.748046875 395.983398438 808.6328125 452.309570312 861.0078125 455.921875 c 4
 909.258789062 460.30859375 945.46875 421.806640625 950.793945312 379.202148438 c 4
 956.501953125 336.392578125 926.3671875 293.068359375 879.6953125 290.057617188 c 4
 831.673828125 286.626953125 807.958984375 331.510742188 803.250976562 364.46484375 c 4
56.0078125 349.383789062 m 1
 55.390625 374.375976562 l 1
 80.3837890625 374.9921875 l 1
 79.3837890625 374.967773438 80.3837890625 373.9921875 80.3837890625 374.9921875 c 1
 823.383789062 389.9921875 l 5
 848.375976562 390.609375 l 5
 848.9921875 365.616210938 l 5
 849.609375 340.624023438 l 5
 824.616210938 340.0078125 l 5
 81.6162109375 325.0078125 l 1
 81.6162109375 326.0078125 80.6171875 324.983398438 81.6162109375 325.0078125 c 1
 56.6240234375 324.390625 l 1
 56.0078125 349.383789062 l 1
EndSplineSet
EndChar

StartChar: lt-XN
Encoding: 278 -1 47
Width: 1000
Flags: HW
LayerCount: 2
Fore
SplineSet
646.162207463 66.9850258789 m 1
 409.598470619 320.703746769 l 1
 165.944238625 62.8106271288 l 1
 646.162207463 66.9850258789 l 1
667.16812356 593.588971277 m 1
 442.366956536 355.388120661 l 1
 675.397470933 105.308897392 l 1
 667.16812356 593.588971277 l 1
409.816791302 389.150465566 m 1
 710.582915703 707.984697142 l 1
 712.69025835 710.218635472 l 1
 712.742010006 707.148017413 l 1
 723.797501153 51.184644307 l 1
 724.831339517 20.1216576044 l 1
 724.874329502 18.8299689138 l 1
 723.581925618 18.8300781295 l 1
 700.477670497 18.8320305742 l 1
 679.110312064 18.5586395699 l 1
 58.0995698766 13.2412567574 l 1
 55.1678476387 13.216153988 l 1
 57.1795551877 15.3489123349 l 1
 377.04824734 354.465114113 l 1
 100.071873636 651.66926786 l 1
 99.2180247294 652.585473955 l 1
 100.1358631 653.437568018 l 1
 133.115355287 684.054755518 l 1
 134.029417149 684.903343582 l 1
 134.880022687 683.991158836 l 1
 409.816791302 389.150465566 l 1
873.645507812 770.997070312 m 1
 898.643554688 771.3515625 l 1
 898.997070312 746.354492188 l 1
 908.997070312 40.3544921875 l 1
 909.3515625 15.3564453125 l 1
 884.354492188 15.0029296875 l 1
 859.356445312 14.6484375 l 1
 859.002929688 39.6455078125 l 1
 849.002929688 745.645507812 l 1
 848.6484375 770.643554688 l 1
 873.645507812 770.997070312 l 1
EndSplineSet
EndChar

StartChar: lt-KN
Encoding: 279 -1 48
Width: 1000
Flags: HW
LayerCount: 2
Fore
SplineSet
839.119718021 36.5780986876 m 1
 749.788091846 132.387534463 l 1
 657.778763335 35.0014846057 l 1
 839.119718021 36.5780986876 l 1
857.640596586 246.647043171 m 1
 773.905815369 157.920526824 l 1
 860.706094009 64.7694812506 l 1
 857.640596586 246.647043171 l 1
749.947634536 183.106907921 m 1
 878.54046273 319.424784164 l 1
 891.184491996 332.828387155 l 1
 891.495028597 314.404717156 l 1
 896.408052004 22.9224196697 l 1
 896.865960459 9.17447176768 l 1
 897.124106305 1.42406751233 l 1
 889.369404192 1.42480472139 l 1
 879.145493335 1.42577666843 l 1
 869.679909377 1.30412357417 l 1
 593.658942672 -1.05929539355 l 1
 576.068625752 -1.20991180923 l 1
 588.138851096 11.5866343957 l 1
 725.835377383 157.568992683 l 1
 607.173438132 284.896457078 l 1
 602.050172183 290.393859757 l 1
 607.557531538 295.506421067 l 1
 622.215734663 309.113842942 l 1
 627.700105949 314.205064095 l 1
 632.803584758 308.732097323 l 1
 749.947634536 183.106907921 l 1
808.014648438 536.193359375 m 5
 783.603515625 541.588867188 l 5
 759.193359375 546.985351562 l 5
 764.588867188 571.396484375 l 5
 790.688476562 689.46484375 l 5
 106.456054688 22.103515625 l 5
 88.55859375 4.6474609375 l 5
 71.103515625 22.5439453125 l 5
 53.6474609375 40.44140625 l 5
 71.5439453125 57.896484375 l 5
 735.037109375 705.029296875 l 5
 611.116210938 673.759765625 l 5
 598.78515625 722.21484375 l 5
 629.82421875 730.180664062 l 5
 873 792 l 5
 808.014648438 536.193359375 l 5
EndSplineSet
EndChar

StartChar: lt-TN
Encoding: 280 -1 49
Width: 1000
Flags: HW
LayerCount: 2
Fore
SplineSet
706.753139996 60.9036369944 m 1
 499.636395051 283.040302185 l 1
 286.311327697 57.248216298 l 1
 706.753139996 60.9036369944 l 1
727.2620348 524.200381578 m 1
 530.675310852 315.894407379 l 1
 734.458997482 97.2008296877 l 1
 727.2620348 524.200381578 l 1
499.843540167 347.941552733 m 1
 766.174620389 630.272128576 l 1
 770.389306746 634.740006771 l 1
 770.492809081 628.598768792 l 1
 780.319611178 45.5324045921 l 1
 781.238848897 17.9328287958 l 1
 781.324890279 15.3494865156 l 1
 778.740115542 15.3496093778 l 1
 758.211253356 15.350585177 l 1
 739.22062412 15.1075135146 l 1
 187.210858495 10.3809510146 l 1
 181.347419521 10.3307455428 l 1
 185.37082797 14.5962609444 l 1
 468.805480536 315.086477494 l 1
 223.492379661 578.315098675 l 1
 221.784688059 580.147505115 l 1
 223.620353292 581.851693226 l 1
 252.934806417 609.066536976 l 1
 254.762927268 610.763721061 l 1
 256.464143874 608.939352205 l 1
 499.843540167 347.941552733 l 1
226.38671875 581.861328125 m 1
 204.248046875 593.474609375 l 1
 215.861328125 615.61328125 l 1
 247.861328125 676.61328125 l 1
 254.8125 689.864257812 l 1
 269.774414062 689.999023438 l 1
 712.774414062 693.999023438 l 1
 725.374023438 694.112304688 l 1
 732.9609375 684.052734375 l 1
 778.9609375 623.052734375 l 1
 794.012695312 603.091796875 l 1
 774.052734375 588.0390625 l 1
 754.091796875 572.987304688 l 1
 739.0390625 592.947265625 l 1
 700.625976562 643.887695312 l 1
 285.1875 640.135742188 l 1
 260.138671875 592.38671875 l 1
 248.525390625 570.248046875 l 1
 226.38671875 581.861328125 l 1
504.374023438 714.330078125 m 1
 531.73046875 760.407226562 l 1
 473.158203125 759.626953125 l 1
 504.374023438 714.330078125 l 1
485.35546875 653.813476562 m 1
 405.415039062 769.813476562 l 1
 378.841796875 808.373046875 l 1
 425.666992188 808.998046875 l 1
 575.666992188 810.998046875 l 1
 620.26953125 811.592773438 l 1
 597.497070312 773.237304688 l 1
 527.4375 655.237304688 l 1
 506 653 l 1
 485.35546875 653.813476562 l 1
EndSplineSet
EndChar

StartChar: lt-SM
Encoding: 281 -1 50
Width: 1000
Flags: HW
LayerCount: 2
Fore
SplineSet
198.01171875 527.243164062 m 1
 197.25390625 552.231445312 l 1
 222.243164062 552.98828125 l 2
 318.9609375 555.918945312 429.801757812 563.872070312 509.845703125 471.427734375 c 0
 516.032226562 464.376953125 520.73046875 455.422851562 522.30078125 445.893554688 c 0
 531.796875 388.247070312 439.221679688 339.361328125 429.717773438 325.698242188 c 1
 529.807617188 250.299804688 594.573242188 273.266601562 757.579101562 262.950195312 c 2
 782.529296875 261.37109375 l 1
 780.950195312 236.420898438 l 1
 779.37109375 211.470703125 l 1
 754.420898438 213.049804688 l 2
 602.274414062 222.6796875 514.98046875 197.921875 397.854492188 287.110351562 c 0
 388.091796875 294.543945312 379.837890625 305.65625 378.34765625 319.232421875 c 0
 376.517578125 335.905273438 384.294921875 348.758789062 391.377929688 357.950195312 c 0
 418.931640625 393.705078125 468.7265625 424.326171875 472.82421875 437.739257812 c 0
 472.766601562 437.8203125 472.560546875 438.110351562 472.154296875 438.572265625 c 0
 410.198242188 510.127929688 325.0390625 506.081054688 223.756835938 503.01171875 c 2
 198.768554688 502.25390625 l 1
 198.01171875 527.243164062 l 1
214.068359375 791 m 1
 239.068359375 790.931640625 l 1
 239 765.931640625 l 1
 239.002929688 766.931640625 240 765.931640625 239 765.931640625 c 1
 237.069335938 60.1748046875 l 1
 787.826171875 63.9990234375 l 1
 812.826171875 64.1728515625 l 1
 812.999023438 39.173828125 l 1
 813.172851562 14.173828125 l 1
 788.173828125 14.0009765625 l 1
 212.173828125 10.0009765625 l 1
 186.930664062 9.8251953125 l 1
 187 35.068359375 l 1
 189 766.068359375 l 1
 188 766.068359375 189.002929688 767.068359375 189 766.068359375 c 1
 189.068359375 791.068359375 l 1
 214.068359375 791 l 1
852.749023438 371.53515625 m 4
 856.041015625 348.489257812 868.326171875 339.373046875 876.3046875 339.942382812 c 4
 891.6328125 340.931640625 903.498046875 355.607421875 901.206054688 372.797851562 c 4
 898.53125 394.193359375 882.741210938 407.69140625 864.9921875 406.078125 c 4
 859.3671875 405.690429688 849.251953125 396.016601562 852.749023438 371.53515625 c 4
803.250976562 364.46484375 m 4
 798.748046875 395.983398438 808.6328125 452.309570312 861.0078125 455.921875 c 4
 909.258789062 460.30859375 945.46875 421.806640625 950.793945312 379.202148438 c 4
 956.501953125 336.392578125 926.3671875 293.068359375 879.6953125 290.057617188 c 4
 831.673828125 286.626953125 807.958984375 331.510742188 803.250976562 364.46484375 c 4
56.0078125 349.383789062 m 1
 55.390625 374.375976562 l 1
 80.3837890625 374.9921875 l 1
 79.3837890625 374.967773438 80.3837890625 373.9921875 80.3837890625 374.9921875 c 1
 823.383789062 389.9921875 l 5
 848.375976562 390.609375 l 5
 848.9921875 365.616210938 l 5
 849.609375 340.624023438 l 5
 824.616210938 340.0078125 l 5
 81.6162109375 325.0078125 l 1
 81.6162109375 326.0078125 80.6171875 324.983398438 81.6162109375 325.0078125 c 1
 56.6240234375 324.390625 l 1
 56.0078125 349.383789062 l 1
EndSplineSet
EndChar

StartChar: lt-XM
Encoding: 282 -1 51
Width: 1000
Flags: HW
LayerCount: 2
Fore
SplineSet
136.961511249 474.480685887 m 1
 136.278895732 496.969888674 l 1
 136.240970211 498.219369104 l 1
 137.490452334 498.257238775 l 1
 159.980694128 498.938879625 l 2
 246.911457992 501.573086089 347.314646308 508.824152264 419.800955328 425.109535241 c 0
 425.504082805 418.609110342 429.846090029 410.354194535 431.303689226 401.507866861 c 0
 439.795446358 349.959640976 359.720934672 305.881472517 348.5264837 293.355519249 c 1
 437.664791889 226.712469191 495.465576121 247.169844262 641.900227905 237.902778411 c 2
 664.35530603 236.481879974 l 1
 665.602811003 236.402941131 l 1
 665.523872161 235.155436158 l 1
 664.10297052 212.700307417 l 1
 662.68109552 190.24425273 l 1
 662.602105846 188.996747539 l 1
 661.354600871 189.075740634 l 1
 638.899555757 190.497613545 l 2
 502.258672148 199.146202471 423.130201241 176.826941476 317.312104981 257.404878353 c 0
 308.331885427 264.242340473 300.660013255 274.516802693 299.270153437 287.17322631 c 0
 297.57059372 302.661799882 304.812505598 314.564564454 311.250112673 322.918266894 c 0
 335.832669263 354.818570315 379.434915395 382.535092941 384.132099636 393.736524897 c 1
 328.561121787 457.918872882 252.73643983 454.22818101 161.418783201 451.461512919 c 2
 138.929525388 450.778895732 l 1
 137.679990753 450.740968565 l 1
 137.642173646 451.990506537 l 1
 136.961511249 474.480685887 l 1
128.850870643 689.924886936 m 1
 128.914555441 713.215327345 l 1
 176.414546095 713.085444559 l 1
 176.355204877 691.383513338 l 2
 177.197686438 687.799955857 176.347274916 688.483648475 176.347274916 688.483648475 c 1
 174.615752168 55.4159615792 l 1
 692.785288703 59.0145099557 l 1
 693.114118954 11.5155468002 l 1
 126.983837072 7.58401454804 l 1
 128.847281021 688.612517455 l 2
 128.334843472 689.47124195 128.255405391 689.020246076 128.490021358 689.992334214 c 2
 128.850870643 689.924886936 l 1
873.645507812 770.997070312 m 1
 898.643554688 771.3515625 l 1
 898.997070312 746.354492188 l 1
 908.997070312 40.3544921875 l 1
 909.3515625 15.3564453125 l 1
 884.354492188 15.0029296875 l 1
 859.356445312 14.6484375 l 1
 859.002929688 39.6455078125 l 1
 849.002929688 745.645507812 l 1
 848.6484375 770.643554688 l 1
 873.645507812 770.997070312 l 1
EndSplineSet
EndChar

StartChar: lt-KM
Encoding: 283 -1 52
Width: 1000
Flags: HW
LayerCount: 2
Fore
SplineSet
621.708526668 210.670048558 m 1
 621.404827185 220.664788781 l 1
 621.17701493 228.162082751 l 1
 628.674331774 228.389140999 l 1
 638.670378425 228.691873947 l 2
 676.67100205 229.842971975 724.866842867 233.604164295 759.592269383 193.499294075 c 0
 762.848543589 189.788118105 765.426938031 184.998476432 766.320167378 179.576588189 c 0
 770.230042237 155.843949327 744.14334046 138.235388077 734.213255708 130.780795165 c 1
 767.458085662 109.242476594 791.329644406 116.600082968 853.504376222 112.664749395 c 2
 863.484844972 112.03389002 l 1
 870.970636377 111.560717687 l 1
 870.4967345 104.074972431 l 1
 869.864898563 94.0945036812 l 1
 869.233062625 84.1140349312 l 1
 868.759204008 76.6289729959 l 1
 861.274144996 77.1028777987 l 1
 851.294728175 77.7347089649 l 2
 792.171860996 81.4773831256 753.891401391 71.3417913445 704.598030964 108.876676495 c 0
 699.533532246 112.732990222 694.768851226 118.818350815 693.883575043 126.875668086 c 0
 692.833899081 136.44607816 697.401376072 143.594444998 700.609993866 147.75757405 c 0
 709.49475088 159.287447452 723.576434755 169.712424361 729.178239956 174.782326778 c 1
 707.139189179 195.997290432 678.414812838 194.880670361 639.730719032 193.708538122 c 2
 629.735601844 193.404827185 l 1
 622.238307874 193.17701493 l 1
 622.011249626 200.674331774 l 1
 621.708526668 210.670048558 l 1
633.099519707 306.391059997 m 1
 618.099637413 306.448242111 l 1
 618.147488899 323.948214073 l 1
 653.147432823 323.852511101 l 1
 652.348792371 31.6227001515 l 1
 882.579405796 33.2207707855 l 1
 882.822084084 -1.77789206991 l 1
 617.251981649 -3.6228663974 l 1
 618.094159318 304.445506695 l 1
 633.099519707 306.391059997 l 1
808.014648438 536.193359375 m 5
 783.603515625 541.588867188 l 5
 759.193359375 546.985351562 l 5
 764.588867188 571.396484375 l 5
 790.688476562 689.46484375 l 5
 106.456054688 22.103515625 l 5
 88.55859375 4.6474609375 l 5
 71.103515625 22.5439453125 l 5
 53.6474609375 40.44140625 l 5
 71.5439453125 57.896484375 l 5
 735.037109375 705.029296875 l 5
 611.116210938 673.759765625 l 5
 598.78515625 722.21484375 l 5
 629.82421875 730.180664062 l 5
 873 792 l 5
 808.014648438 536.193359375 l 5
EndSplineSet
EndChar

StartChar: lt-TM
Encoding: 284 -1 53
Width: 1000
Flags: HW
LayerCount: 2
Fore
SplineSet
255.910327355 421.71917873 m 1
 255.303884004 441.70934843 l 1
 255.22807226 444.208328153 l 1
 257.727055904 444.284010541 l 1
 277.719197149 444.88947789 l 2
 354.863722024 447.227249775 444.827410207 453.778491447 509.756135844 378.79141781 c 0
 514.977170042 372.841004723 518.961630019 365.284712064 520.307577191 357.121181666 c 0
 527.825609423 311.481439522 460.074124589 272.802922788 447.458257478 260.926641324 c 1
 526.423295975 202.789103981 576.464428228 221.067259377 706.221436158 212.855356325 c 2
 726.181397095 211.59168445 l 1
 728.676401858 211.433724855 l 1
 728.518442263 208.938720092 l 1
 727.254778082 188.978880739 l 1
 725.99208277 169.018919801 l 1
 725.834244759 166.523907344 l 1
 723.962985416 166.642285852 l 1
 723.339232301 166.681745355 l 1
 703.379188404 167.944445917 l 2
 582.242968515 175.611738167 511.279877888 155.732055699 416.768717152 227.699423462 c 0
 408.572971716 233.939750329 401.481142403 243.377331741 400.192654554 255.113018368 c 0
 398.622620985 269.419281554 405.330152004 280.370425723 411.122326979 287.88637912 c 0
 432.483208917 315.604801589 469.72504988 340.055915009 475.358542189 349.767202254 c 1
 426.63017795 405.453736497 360.05780995 402.364891195 279.081663495 399.910329205 c 2
 259.090452558 399.303883892 l 1
 256.591476423 399.22807596 l 1
 256.515794146 401.727055904 l 1
 255.910327355 421.71917873 l 1
271.261718724 635.299795342 m 1
 291.261718724 635.245107842 l 1
 293.761709378 635.23827193 l 1
 293.756582445 633.363278939 l 1
 293.754873467 632.738281276 l 1
 293.700185967 612.738281276 l 2
 293.54131938 612.738281276 293.382452793 612.739514806 293.223586207 612.739514806 c 1
 293.620653751 612.309720292 293.875856283 611.993530047 293.875856283 611.993530047 c 1
 293.358832213 423.042475393 292.674883447 238.032337169 292.162171309 50.6571166435 c 1
 730.24340862 53.6991586588 l 1
 750.24340862 53.8378305338 l 1
 752.743347682 53.8551640956 l 1
 752.76068209 51.3552250391 l 1
 752.899353971 31.3562007552 l 1
 753.038025846 11.3562007552 l 1
 753.055360255 8.85613962236 l 1
 750.555298284 8.83892644118 l 1
 730.556424259 8.70123216186 l 1
 269.756666356 5.50103717471 l 1
 249.562330419 5.36041217471 l 1
 247.038095117 5.34283444448 l 1
 247.044931042 7.86712169097 l 1
 247.099618739 28.0615299268 l 1
 248.700204667 612.861331365 l 1
 248.754892158 632.861328099 l 1
 248.76172807 635.361318753 l 1
 251.261718724 635.354482842 l 1
 271.261718724 635.299795342 l 1
226.38671875 581.861328125 m 1
 204.248046875 593.474609375 l 1
 215.861328125 615.61328125 l 1
 247.861328125 676.61328125 l 1
 254.8125 689.864257812 l 1
 269.774414062 689.999023438 l 1
 712.774414062 693.999023438 l 1
 725.374023438 694.112304688 l 1
 732.9609375 684.052734375 l 1
 778.9609375 623.052734375 l 1
 794.012695312 603.091796875 l 1
 774.052734375 588.0390625 l 1
 754.091796875 572.987304688 l 1
 739.0390625 592.947265625 l 1
 700.625976562 643.887695312 l 1
 285.1875 640.135742188 l 1
 260.138671875 592.38671875 l 1
 248.525390625 570.248046875 l 1
 226.38671875 581.861328125 l 1
504.374023438 714.330078125 m 1
 531.73046875 760.407226562 l 1
 473.158203125 759.626953125 l 1
 504.374023438 714.330078125 l 1
485.35546875 653.813476562 m 1
 405.415039062 769.813476562 l 1
 378.841796875 808.373046875 l 1
 425.666992188 808.998046875 l 1
 575.666992188 810.998046875 l 1
 620.26953125 811.592773438 l 1
 597.497070312 773.237304688 l 1
 527.4375 655.237304688 l 1
 506 653 l 1
 485.35546875 653.813476562 l 1
EndSplineSet
EndChar

StartChar: lt-SH
Encoding: 285 -1 54
Width: 1000
Flags: HW
LayerCount: 2
Fore
SplineSet
786.161132812 760.319335938 m 1
 797.48046875 738.029296875 l 1
 775.189453125 726.708984375 l 2
 627.274414062 651.595703125 495.352539062 587.82421875 514.950195312 505.489257812 c 0
 530.67578125 439.419921875 799.318359375 499.698242188 811.450195312 361.53515625 c 0
 826.252929688 200.129882812 671.081054688 130.063476562 543.356445312 45.0859375 c 2
 522.54296875 31.23828125 l 1
 508.694335938 52.052734375 l 1
 494.846679688 72.8662109375 l 1
 515.661132812 86.71484375 l 2
 655.771484375 179.932617188 772.760742188 235.913085938 761.654296875 357.016601562 c 0
 754.3359375 440.36328125 502.430664062 342.150390625 466.309570312 493.911132812 c 0
 433.571289062 631.455078125 623.985351562 706.00390625 752.55078125 771.291015625 c 2
 774.840820312 782.610351562 l 1
 786.161132812 760.319335938 l 1
486.282226562 718.01953125 m 1
 497.6015625 695.729492188 l 1
 475.310546875 684.409179688 l 2
 327.395507812 609.295898438 195.473632812 545.524414062 215.071289062 463.188476562 c 0
 230.795898438 397.120117188 499.438476562 457.3984375 511.5703125 319.235351562 c 0
 526.374023438 157.830078125 371.202148438 87.763671875 243.477539062 2.7861328125 c 1
 244.477539062 2.7861328125 244.310546875 3.33984375 243.477539062 2.7861328125 c 1
 222.6640625 -11.0615234375 l 1
 208.815429688 9.7529296875 l 1
 194.967773438 30.56640625 l 1
 215.782226562 44.4150390625 l 2
 355.892578125 137.6328125 472.881835938 193.61328125 461.774414062 314.716796875 c 0
 454.456054688 398.063476562 202.55078125 299.850585938 166.430664062 451.612304688 c 0
 133.692382812 589.155273438 324.106445312 663.704101562 452.671875 728.991210938 c 2
 474.961914062 740.310546875 l 1
 486.282226562 718.01953125 l 1
852.749023438 371.53515625 m 4
 856.041015625 348.489257812 868.326171875 339.373046875 876.3046875 339.942382812 c 4
 891.6328125 340.931640625 903.498046875 355.607421875 901.206054688 372.797851562 c 4
 898.53125 394.193359375 882.741210938 407.69140625 864.9921875 406.078125 c 4
 859.3671875 405.690429688 849.251953125 396.016601562 852.749023438 371.53515625 c 4
803.250976562 364.46484375 m 4
 798.748046875 395.983398438 808.6328125 452.309570312 861.0078125 455.921875 c 4
 909.258789062 460.30859375 945.46875 421.806640625 950.793945312 379.202148438 c 4
 956.501953125 336.392578125 926.3671875 293.068359375 879.6953125 290.057617188 c 4
 831.673828125 286.626953125 807.958984375 331.510742188 803.250976562 364.46484375 c 4
56.0078125 349.383789062 m 1
 55.390625 374.375976562 l 1
 80.3837890625 374.9921875 l 1
 79.3837890625 374.967773438 80.3837890625 373.9921875 80.3837890625 374.9921875 c 1
 823.383789062 389.9921875 l 5
 848.375976562 390.609375 l 5
 848.9921875 365.616210938 l 5
 849.609375 340.624023438 l 5
 824.616210938 340.0078125 l 5
 81.6162109375 325.0078125 l 1
 81.6162109375 326.0078125 80.6171875 324.983398438 81.6162109375 325.0078125 c 1
 56.6240234375 324.390625 l 1
 56.0078125 349.383789062 l 1
EndSplineSet
EndChar

StartChar: lt-XH
Encoding: 286 -1 55
Width: 1000
Flags: HW
LayerCount: 2
Fore
SplineSet
668.659451088 684.853081665 m 1
 678.846951088 664.791558227 l 1
 679.412923378 663.677029014 l 1
 678.298394165 663.111056724 l 1
 658.236867191 652.923554929 l 2
 524.632871088 585.078258042 407.371639279 527.909469763 424.671105605 455.229872547 c 0
 438.230858446 398.261695444 680.544279831 450.835990541 691.549463622 325.495018944 c 0
 704.963400104 179.231783947 564.352843729 115.808206535 449.71385771 39.5364183259 c 2
 430.980459272 27.0735277009 l 1
 429.939754181 26.3811710114 l 1
 429.247372472 27.4218594573 l 1
 416.784465201 46.1543063526 l 1
 404.321574576 64.8877047901 l 1
 403.629217886 65.9284098815 l 1
 404.669906332 66.6207915907 l 1
 423.402322497 79.0836784162 l 2
 549.809708735 163.184932631 654.147197026 213.225390658 644.244049315 321.205110549 c 0
 637.80918143 394.486282803 411.405875786 305.820968268 378.462683821 444.231063428 c 0
 348.676383224 569.370645279 521.510636247 636.766519724 636.729926148 695.275662026 c 2
 656.791449585 705.463162026 l 1
 657.905978798 706.029134316 l 1
 658.471951088 704.914605102 l 1
 668.659451088 684.853081665 l 1
179.468839246 1.23195015456 m 1
 160.049145827 -11.6881899459 l 1
 133.737562071 27.8580431284 l 1
 153.511703083 41.0143461957 l 2
 279.919082512 125.114616934 384.25558945 175.156021909 374.351469902 283.135789286 c 0
 367.917558141 356.415983556 141.513283141 267.750648894 108.571080097 406.161736569 c 0
 78.7857684148 531.30131129 251.619998808 598.696207139 366.838324585 657.206326088 c 2
 388.014377236 667.959798378 l 1
 388.438856453 667.123901468 l 1
 388.580349526 666.845269165 l 1
 409.521321816 625.607693077 l 1
 388.345275429 614.854223968 l 2
 254.742250857 547.007942655 137.481005194 489.840153266 154.780485103 417.159541146 c 0
 168.339305369 360.191351305 410.652674765 412.765709773 421.657861298 287.425691305 c 0
 435.020953515 141.727533478 295.545440143 78.2317245416 181.15731391 2.35398849429 c 2
 179.468839246 1.23195015456 l 1
873.645507812 770.997070312 m 1
 898.643554688 771.3515625 l 1
 898.997070312 746.354492188 l 1
 908.997070312 40.3544921875 l 1
 909.3515625 15.3564453125 l 1
 884.354492188 15.0029296875 l 1
 859.356445312 14.6484375 l 1
 859.002929688 39.6455078125 l 1
 849.002929688 745.645507812 l 1
 848.6484375 770.643554688 l 1
 873.645507812 770.997070312 l 1
EndSplineSet
EndChar

StartChar: lt-KH
Encoding: 287 -1 56
Width: 1000
Flags: HW
LayerCount: 2
Fore
SplineSet
871.150992681 307.523861481 m 1
 875.679165133 298.608136985 l 1
 879.075388055 291.921159352 l 1
 872.388410423 288.52493643 l 1
 863.471974801 283.996402823 l 2
 801.423938212 252.487970286 757.4614696 228.3640622 763.276642629 203.93193184 c 0
 765.941885462 192.734270559 876.707360672 206.131115226 882.048736834 145.299193645 c 0
 888.519323507 74.7427981036 820.70510555 44.5290386779 771.496938389 11.7897490847 c 2
 763.170766514 6.2506865847 l 1
 756.926335912 2.09652163289 l 1
 752.77217096 8.3409522357 l 1
 747.233333182 16.6667863345 l 1
 741.694270682 24.991981647 l 1
 737.539543216 31.2365253071 l 1
 743.784311611 35.3909149778 l 1
 752.110224075 40.9298048949 l 2
 810.000701505 79.4454474258 851.075587789 99.7900385174 847.190862817 142.150534788 c 0
 845.169568979 165.167529568 746.305806222 124.077408904 729.227250568 195.827888629 c 0
 714.204490766 258.946110844 799.149239941 290.587266335 847.624867161 315.203874891 c 2
 856.540882786 319.731218641 l 1
 863.228156114 323.126859292 l 1
 866.623796766 316.439585964 l 1
 871.150992681 307.523861481 l 1
631.713186585 -6.91373526465 m 1
 617.588596079 14.3162656529 l 1
 632.158125816 24.0099164043 l 2
 690.049498581 62.5254834871 731.123443551 82.8700708572 727.23871438 125.230612913 c 0
 725.217453312 148.24723452 626.353351162 107.158028672 609.276107865 178.90784419 c 0
 594.252201526 242.026176432 679.197887957 273.667281433 727.673014384 298.284103137 c 2
 743.277134364 306.206641766 l 1
 759.122657385 275.000941769 l 1
 743.519826363 267.076480948 l 2
 681.47178695 235.568046977 637.509310728 211.444184166 643.324508646 187.011949233 c 0
 645.989902165 175.813241052 756.755204512 189.21127632 762.096578121 128.379383797 c 0
 768.528196306 58.2594726112 701.467564407 27.8283601208 652.338326324 -4.60291507951 c 2
 636.975164037 -14.8234002421 l 1
 631.713186585 -6.91373526465 l 1
808.014648438 536.193359375 m 5
 783.603515625 541.588867188 l 5
 759.193359375 546.985351562 l 5
 764.588867188 571.396484375 l 5
 790.688476562 689.46484375 l 5
 106.456054688 22.103515625 l 5
 88.55859375 4.6474609375 l 5
 71.103515625 22.5439453125 l 5
 53.6474609375 40.44140625 l 5
 71.5439453125 57.896484375 l 5
 735.037109375 705.029296875 l 5
 611.116210938 673.759765625 l 5
 598.78515625 722.21484375 l 5
 629.82421875 730.180664062 l 5
 873 792 l 5
 808.014648438 536.193359375 l 5
EndSplineSet
EndChar

StartChar: lt-TH
Encoding: 288 -1 57
Width: 1000
Flags: HW
LayerCount: 2
Fore
SplineSet
731.15776528 609.387811998 m 1
 740.213441853 591.554779547 l 1
 741.345369838 589.325712694 l 1
 739.116302985 588.193784709 l 1
 721.283301496 579.138123858 l 2
 601.991146324 518.560722378 499.390736279 467.995629375 514.392011184 404.969530518 c 0
 525.785809578 357.102841821 741.770238384 401.973260745 751.649708839 289.455854431 c 0
 763.674843239 158.33369373 637.625502271 101.553847359 536.070409434 33.9879528175 c 2
 519.419042247 22.908851255 l 1
 517.337574512 21.5239323967 l 1
 515.952740271 23.6054564301 l 1
 504.874671568 40.2567390033 l 1
 493.795570005 56.9081061908 l 1
 492.410707446 58.9894893108 l 1
 493.971744786 60.0281362302 l 1
 494.492090566 60.37435187 l 1
 511.143520555 71.4534952166 l 2
 623.847321002 146.436837268 715.532470329 190.54083337 706.83282349 285.3946155 c 0
 701.282396218 348.609306623 500.381076488 269.490578452 470.615798976 394.550010563 c 0
 443.781470043 507.286209179 599.035963447 567.529157363 700.909038359 619.26126839 c 2
 718.741069609 628.316932453 l 1
 720.970111437 629.448909718 l 1
 722.102088703 627.219867891 l 1
 731.15776528 609.387811998 l 1
491.254444966 575.547968249 m 1
 500.310121541 557.714935797 l 1
 501.442049526 555.485868944 l 1
 499.212982672 554.353940959 l 1
 481.379981184 545.298280108 l 2
 362.087797746 484.720864275 259.487430829 434.1559002 274.489687678 371.129601714 c 0
 285.88172916 323.262863017 501.865930453 368.133542077 511.745410251 255.616029353 c 0
 523.739349115 124.844809399 398.312066708 67.8807890016 296.816829604 0.580418361387 c 2
 279.515721934 -10.930992495 l 1
 277.434254199 -12.3159113533 l 1
 276.049419959 -10.2343873199 l 1
 264.971351255 6.41689525333 l 1
 253.892249693 23.0682624408 l 1
 252.507387133 25.1496455608 l 1
 254.068424473 26.1882924802 l 1
 254.588770253 26.53450812 l 1
 271.240200242 37.6136514666 l 2
 383.94400069 112.596993518 475.629150016 156.70098962 466.929503177 251.55477175 c 0
 461.379078684 314.769431229 260.47674693 235.651754584 230.712478663 360.710166813 c 0
 203.87814973 473.446365429 359.132643135 533.689313613 461.005718047 585.42142464 c 2
 478.837749297 594.477088703 l 1
 481.066791125 595.609065968 l 1
 482.19876839 593.380024141 l 1
 491.254444966 575.547968249 l 1
226.38671875 581.861328125 m 1
 204.248046875 593.474609375 l 1
 215.861328125 615.61328125 l 1
 247.861328125 676.61328125 l 1
 254.8125 689.864257812 l 1
 269.774414062 689.999023438 l 1
 712.774414062 693.999023438 l 1
 725.374023438 694.112304688 l 1
 732.9609375 684.052734375 l 1
 778.9609375 623.052734375 l 1
 794.012695312 603.091796875 l 1
 774.052734375 588.0390625 l 1
 754.091796875 572.987304688 l 1
 739.0390625 592.947265625 l 1
 700.625976562 643.887695312 l 1
 285.1875 640.135742188 l 1
 260.138671875 592.38671875 l 1
 248.525390625 570.248046875 l 1
 226.38671875 581.861328125 l 1
504.374023438 714.330078125 m 1
 531.73046875 760.407226562 l 1
 473.158203125 759.626953125 l 1
 504.374023438 714.330078125 l 1
485.35546875 653.813476562 m 1
 405.415039062 769.813476562 l 1
 378.841796875 808.373046875 l 1
 425.666992188 808.998046875 l 1
 575.666992188 810.998046875 l 1
 620.26953125 811.592773438 l 1
 597.497070312 773.237304688 l 1
 527.4375 655.237304688 l 1
 506 653 l 1
 485.35546875 653.813476562 l 1
EndSplineSet
EndChar

StartChar: lt-SZ
Encoding: 289 -1 58
Width: 1000
Flags: HW
LayerCount: 2
Fore
SplineSet
669.72265625 758.205078125 m 1
 689.927734375 743.482421875 l 1
 675.205078125 723.27734375 l 2
 580.912109375 593.875 530.118164062 520.91015625 534.986328125 375.838867188 c 0
 539.671875 236.211914062 605.799804688 172.599609375 700 47 c 2
 715 27 l 1
 695 12 l 1
 675 -3 l 1
 660 17 l 2
 568.3203125 139.240234375 490.189453125 215.784179688 485.013671875 374.161132812 c 0
 479.754882812 535.0859375 541.087890625 624.125 634.794921875 752.72265625 c 2
 649.517578125 772.927734375 l 1
 669.72265625 758.205078125 l 1
855.765625 395.525390625 m 5
 141.234375 2.0205078125 l 1
 133.163085938 16.6025390625 125.091796875 31.18359375 117.020507812 45.765625 c 1
 329.424804688 163.334960938 541.829101562 280.905273438 754.234375 398.474609375 c 1
 137.84375 754.87109375 l 1
 146.186523438 769.299804688 154.528320312 783.727539062 162.87109375 798.15625 c 1
 162.87109375 798.15625 632.014648438 524.897460938 855.765625 395.525390625 c 5
852.749023438 371.53515625 m 4
 856.041015625 348.489257812 868.326171875 339.373046875 876.3046875 339.942382812 c 4
 891.6328125 340.931640625 903.498046875 355.607421875 901.206054688 372.797851562 c 4
 898.53125 394.193359375 882.741210938 407.69140625 864.9921875 406.078125 c 4
 859.3671875 405.690429688 849.251953125 396.016601562 852.749023438 371.53515625 c 4
803.250976562 364.46484375 m 4
 798.748046875 395.983398438 808.6328125 452.309570312 861.0078125 455.921875 c 4
 909.258789062 460.30859375 945.46875 421.806640625 950.793945312 379.202148438 c 4
 956.501953125 336.392578125 926.3671875 293.068359375 879.6953125 290.057617188 c 4
 831.673828125 286.626953125 807.958984375 331.510742188 803.250976562 364.46484375 c 4
56.0078125 349.383789062 m 1
 55.390625 374.375976562 l 1
 80.3837890625 374.9921875 l 1
 79.3837890625 374.967773438 80.3837890625 373.9921875 80.3837890625 374.9921875 c 1
 823.383789062 389.9921875 l 5
 848.375976562 390.609375 l 5
 848.9921875 365.616210938 l 5
 849.609375 340.624023438 l 5
 824.616210938 340.0078125 l 5
 81.6162109375 325.0078125 l 1
 81.6162109375 326.0078125 80.6171875 324.983398438 81.6162109375 325.0078125 c 1
 56.6240234375 324.390625 l 1
 56.0078125 349.383789062 l 1
EndSplineSet
EndChar

StartChar: lt-XZ
Encoding: 290 -1 59
Width: 1000
Flags: HW
LayerCount: 2
Fore
SplineSet
563.487124777 683.395006096 m 1
 581.670749156 670.144007212 l 1
 582.680906049 669.407873008 l 1
 581.944833102 668.397671479 l 1
 568.694810465 650.2130701 l 2
 483.810710035 533.723925384 438.368762857 468.473196237 442.736601524 338.296804352 c 0
 446.937646003 213.102176379 506.120663893 156.221926929 591 43.0498046875 c 2
 604.5 25.0498046875 l 1
 605.25 24.0498046875 l 1
 604.25 23.2998046875 l 1
 586.25 9.7998046875 l 1
 568.25 -3.7001953125 l 1
 567.25 -4.4501953125 l 1
 566.6875 -3.7001953125 l 1
 566.5 -3.4501953125 l 1
 552.999996804 14.5498089482 l 2
 470.58481542 124.437692881 399.936913561 193.694599185 395.263362348 336.704286505 c 0
 390.516871726 481.936911048 445.979995366 562.462806305 530.30519272 678.186348334 c 2
 543.556169283 696.370918646 l 1
 544.292296482 697.381120177 l 1
 545.302523834 696.645028414 l 1
 563.487124777 683.395006096 l 1
730.792453825 354.877717824 m 1
 87.7133522623 0.723420949316 l 1
 86.6207512514 0.121707502468 l 1
 86.016704264 1.21302014249 l 1
 64.2246929919 40.5841483733 l 1
 63.619412749 41.6777704739 l 1
 64.7130103404 42.283094998 l 1
 636.272261147 358.650682269 l 1
 83.433881059 678.301655541 l 1
 82.351767123 678.92733347 l 1
 82.9774254669 680.00945873 l 1
 105.501839529 718.96648998 l 1
 106.129518392 720.052109886 l 1
 107.213120307 719.420953628 l 1
 107.213120307 719.420953628 529.442337435 473.488502817 730.815142467 357.05478972 c 2
 732.73253602 355.946153175 l 1
 730.792453825 354.877717824 l 1
873.645507812 770.997070312 m 1
 898.643554688 771.3515625 l 1
 898.997070312 746.354492188 l 1
 908.997070312 40.3544921875 l 1
 909.3515625 15.3564453125 l 1
 884.354492188 15.0029296875 l 1
 859.356445312 14.6484375 l 1
 859.002929688 39.6455078125 l 1
 849.002929688 745.645507812 l 1
 848.6484375 770.643554688 l 1
 873.645507812 770.997070312 l 1
EndSplineSet
EndChar

StartChar: lt-KZ
Encoding: 291 -1 60
Width: 1000
Flags: HW
LayerCount: 2
Fore
SplineSet
822.30666115 309.343579461 m 1
 830.388129327 303.453629663 l 1
 836.448353943 299.036806139 l 1
 832.032357327 292.975978942 l 1
 826.143504046 284.893698729 l 2
 788.317025014 232.982433954 769.621808747 206.257003928 771.489922113 150.586476118 c 0
 773.269715528 97.5441805467 797.717082616 74.3443559979 836 23.2998046875 c 2
 842 15.2998046875 l 1
 846.5 9.2998046875 l 1
 840.5 4.7998046875 l 1
 832.5 -1.2001953125 l 1
 824.5 -7.2001953125 l 1
 818.5 -11.7001953125 l 1
 814 -5.7001953125 l 1
 807.99997124 2.29984303409 l 2
 771.907264385 50.4240929342 738.672265402 83.2504983127 736.509860846 149.420077737 c 0
 734.327797278 216.19284377 760.438423241 254.155547436 797.856663147 305.505944772 c 2
 803.746311585 313.587976022 l 1
 808.163040565 319.648803256 l 1
 814.22421637 315.232552639 l 1
 822.30666115 309.343579461 l 1
895.924656694 151.640336921 m 1
 610.112156694 -5.76200682932 l 1
 603.557313712 -9.37188270339 l 1
 599.932682626 -2.8251873667 l 2
 596.702880097 3.00838097476 593.474209324 8.84166913909 590.245693701 14.6746769473 c 2
 586.613786102 21.2364991148 l 1
 593.17555219 24.8685080312 l 1
 836.463598336 159.532059047 l 1
 601.383556077 295.455443207 l 1
 594.890892627 299.209504079 l 1
 598.644817969 305.70224589 l 1
 608.655560156 323.016699015 l 1
 612.42162768 329.530441791 l 1
 618.923253786 325.743494801 l 1
 618.923253786 325.743494801 806.578776362 216.440813223 896.060753725 164.702775029 c 2
 907.565161783 158.050983003 l 1
 895.924656694 151.640336921 l 1
808.014648438 536.193359375 m 5
 783.603515625 541.588867188 l 5
 759.193359375 546.985351562 l 5
 764.588867188 571.396484375 l 5
 790.688476562 689.46484375 l 5
 106.456054688 22.103515625 l 5
 88.55859375 4.6474609375 l 5
 71.103515625 22.5439453125 l 5
 53.6474609375 40.44140625 l 5
 71.5439453125 57.896484375 l 5
 735.037109375 705.029296875 l 5
 611.116210938 673.759765625 l 5
 598.78515625 722.21484375 l 5
 629.82421875 730.180664062 l 5
 873 792 l 5
 808.014648438 536.193359375 l 5
EndSplineSet
EndChar

StartChar: lt-TZ
Encoding: 292 -1 61
Width: 1000
Flags: HW
LayerCount: 2
Fore
SplineSet
637.250599777 608.583969863 m 1
 653.414662277 596.805649551 l 1
 655.435213681 595.333327748 l 1
 653.962833775 593.312818684 l 1
 642.18454436 577.149775147 l 2
 566.710278332 473.573814962 526.618388234 416.036226831 530.486874372 300.754757918 c 0
 534.204382786 189.99159954 586.441653923 139.84407081 662 39.099609375 c 2
 674 23.099609375 l 1
 675.5 21.099609375 l 1
 673.5 19.599609375 l 1
 657.5 7.599609375 l 1
 641.5 -4.400390625 l 1
 639.5 -5.900390625 l 1
 638.375 -4.400390625 l 1
 638 -3.900390625 l 1
 625.999997603 12.0996125706 l 2
 552.849300386 109.634200191 489.683388817 171.60603822 485.513053172 299.247429472 c 0
 481.278857098 428.787887657 530.87109894 500.801555315 605.815486538 603.651048504 c 2
 617.59380685 619.814134441 l 1
 619.066102078 621.834527303 l 1
 621.086537277 620.362290176 l 1
 637.250599777 608.583969863 l 1
785.818307173 314.230045622 m 1
 214.193307173 -0.573665315644 l 1
 212.008158289 -1.77706435818 l 1
 210.800039801 0.405478796254 l 1
 191.428946051 35.4015725463 l 1
 190.218194987 37.588871619 l 1
 192.405512983 38.7995884968 l 1
 698.311118463 318.826752441 l 1
 209.023038032 601.7322159 l 1
 206.858673794 602.983647301 l 1
 208.110200959 605.147956165 l 1
 228.132582552 639.776725193 l 1
 229.387940143 641.947975811 l 1
 231.555150107 640.685655367 l 1
 231.555150107 640.685655367 606.869055073 422.078565135 785.863680837 318.584190281 c 2
 789.698473564 316.366919934 l 1
 785.818307173 314.230045622 l 1
226.38671875 581.861328125 m 1
 204.248046875 593.474609375 l 1
 215.861328125 615.61328125 l 1
 247.861328125 676.61328125 l 1
 254.8125 689.864257812 l 1
 269.774414062 689.999023438 l 1
 712.774414062 693.999023438 l 1
 725.374023438 694.112304688 l 1
 732.9609375 684.052734375 l 1
 778.9609375 623.052734375 l 1
 794.012695312 603.091796875 l 1
 774.052734375 588.0390625 l 1
 754.091796875 572.987304688 l 1
 739.0390625 592.947265625 l 1
 700.625976562 643.887695312 l 1
 285.1875 640.135742188 l 1
 260.138671875 592.38671875 l 1
 248.525390625 570.248046875 l 1
 226.38671875 581.861328125 l 1
504.374023438 714.330078125 m 1
 531.73046875 760.407226562 l 1
 473.158203125 759.626953125 l 1
 504.374023438 714.330078125 l 1
485.35546875 653.813476562 m 1
 405.415039062 769.813476562 l 1
 378.841796875 808.373046875 l 1
 425.666992188 808.998046875 l 1
 575.666992188 810.998046875 l 1
 620.26953125 811.592773438 l 1
 597.497070312 773.237304688 l 1
 527.4375 655.237304688 l 1
 506 653 l 1
 485.35546875 653.813476562 l 1
EndSplineSet
EndChar

StartChar: lt-SY
Encoding: 293 -1 62
Width: 1000
Flags: HW
LayerCount: 2
Fore
SplineSet
312.860351562 574.19921875 m 1
 295.719726562 592.3984375 l 1
 313.918945312 609.5390625 l 1
 490.860351562 792.19921875 l 1
 506.607421875 807.030273438 l 1
 523.546875 793.578125 l 1
 712.516601562 613.702148438 l 1
 732.09375 598.155273438 l 1
 716.546875 578.578125 l 1
 701 559 l 1
 681.421875 574.546875 l 1
 509.392578125 740.969726562 l 1
 348.19921875 573.139648438 l 1
 330 556 l 1
 312.860351562 574.19921875 l 1
507.576171875 633.00390625 m 0
 362.40625 635.463867188 245.74609375 490.340820312 241.9921875 337.38671875 c 0
 238.415039062 191.572265625 356.766601562 49.6884765625 499.471679688 46.9951171875 c 0
 662.408203125 43.9208984375 792.381835938 171.866210938 797.009765625 335.706054688 c 0
 801.604492188 498.350585938 671.1953125 630.23046875 507.576171875 633.00390625 c 0
508.423828125 682.99609375 m 0
 698.8046875 679.76953125 852.395507812 525.649414062 846.990234375 334.293945312 c 0
 841.618164062 144.133789062 689.580078125 -6.6005859375 498.528320312 -2.9951171875 c 0
 323.233398438 0.3115234375 187.831054688 168.421875 192.0078125 338.61328125 c 0
 196.25390625 511.659179688 327.5859375 686.061523438 508.423828125 682.99609375 c 0
852.749023438 371.53515625 m 4
 856.041015625 348.489257812 868.326171875 339.373046875 876.3046875 339.942382812 c 4
 891.6328125 340.931640625 903.498046875 355.607421875 901.206054688 372.797851562 c 4
 898.53125 394.193359375 882.741210938 407.69140625 864.9921875 406.078125 c 4
 859.3671875 405.690429688 849.251953125 396.016601562 852.749023438 371.53515625 c 4
803.250976562 364.46484375 m 4
 798.748046875 395.983398438 808.6328125 452.309570312 861.0078125 455.921875 c 4
 909.258789062 460.30859375 945.46875 421.806640625 950.793945312 379.202148438 c 4
 956.501953125 336.392578125 926.3671875 293.068359375 879.6953125 290.057617188 c 4
 831.673828125 286.626953125 807.958984375 331.510742188 803.250976562 364.46484375 c 4
56.0078125 349.383789062 m 1
 55.390625 374.375976562 l 1
 80.3837890625 374.9921875 l 1
 79.3837890625 374.967773438 80.3837890625 373.9921875 80.3837890625 374.9921875 c 1
 823.383789062 389.9921875 l 5
 848.375976562 390.609375 l 5
 848.9921875 365.616210938 l 5
 849.609375 340.624023438 l 5
 824.616210938 340.0078125 l 5
 81.6162109375 325.0078125 l 1
 81.6162109375 326.0078125 80.6171875 324.983398438 81.6162109375 325.0078125 c 1
 56.6240234375 324.390625 l 1
 56.0078125 349.383789062 l 1
EndSplineSet
EndChar

StartChar: lt-XY
Encoding: 294 -1 63
Width: 1000
Flags: HW
LayerCount: 2
Fore
SplineSet
602.126477601 553.237431986 m 1
 620.641031473 538.541374449 l 1
 591.101989707 501.34337539 l 1
 572.454106664 516.150894136 l 1
 418.485644643 665.102382264 l 1
 274.258727888 514.937692394 l 1
 256.947047215 498.63341694 l 1
 224.380460077 533.211127159 l 1
 241.670331627 549.494922597 l 1
 400.895562615 713.869805792 l 1
 415.876662349 727.978651045 l 1
 432.01362523 715.163760845 l 1
 602.126477601 553.237431986 l 1
416.797173199 568.453304555 m 0
 287.038786725 570.652993768 182.40810706 440.770029051 179.042592711 303.617778784 c 0
 175.837910434 172.997573044 281.931144617 45.9540720384 409.54799273 43.5456760363 c 0
 555.488521494 40.7923195414 671.912622761 155.372410097 676.059092364 302.171044959 c 0
 680.174566519 447.833563858 563.385113956 565.968548988 416.797173199 568.453304555 c 0
417.602236095 615.946109589 m 0
 589.615185347 613.031450084 728.426039318 473.767815102 723.540517102 300.82895826 c 0
 718.686952318 129.026881495 581.302109551 -7.20348256804 408.652201709 -3.9460666448 c 0
 250.074314082 -0.954179193784 127.784332815 151.004567027 131.557016911 304.78262191 c 0
 135.391531723 461.022935547 253.958466331 618.719982441 417.602236095 615.946109589 c 0
873.645507812 770.997070312 m 1
 898.643554688 771.3515625 l 1
 898.997070312 746.354492188 l 1
 908.997070312 40.3544921875 l 1
 909.3515625 15.3564453125 l 1
 884.354492188 15.0029296875 l 1
 859.356445312 14.6484375 l 1
 859.002929688 39.6455078125 l 1
 849.002929688 745.645507812 l 1
 848.6484375 770.643554688 l 1
 873.645507812 770.997070312 l 1
EndSplineSet
EndChar

StartChar: lt-KY
Encoding: 295 -1 64
Width: 1000
Flags: HW
LayerCount: 2
Fore
SplineSet
670.299950295 249.157121978 m 1
 740.956770669 322.098163534 l 1
 741.076386535 322.221646389 l 1
 741.201534856 322.339518644 l 1
 747.500362981 328.272135832 l 1
 752.224805358 332.721901326 l 1
 757.307014789 328.685576758 l 1
 764.083381977 323.30374082 l 1
 764.346521222 323.09475388 l 1
 764.589916598 322.863071997 l 1
 839.934257164 251.144705806 l 1
 847.501993491 245.135060597 l 1
 853.375692071 240.470674445 l 1
 848.710949184 234.597259171 l 1
 842.492765696 226.767894434 l 1
 836.274015696 218.935863184 l 1
 831.610269505 213.062238114 l 1
 825.736644434 217.725984304 l 1
 817.904613184 223.944734304 l 1
 817.617291097 224.172872341 l 1
 817.353607325 224.427964115 l 1
 753.951945016 285.763716419 l 1
 694.688454695 224.060571926 l 1
 694.558178745 223.924933007 l 1
 694.421268293 223.795993998 l 1
 687.141971418 216.940525248 l 1
 681.682106041 211.79855383 l 1
 676.540134623 217.258419207 l 1
 669.684848651 224.537522004 l 1
 662.828586129 231.816624815 l 1
 657.686226569 237.276124624 l 1
 663.145726378 242.418484184 l 1
 670.299950295 249.157121978 l 1
752.903156548 245.702249199 m 0
 700.19955143 246.595695895 655.722426717 192.932483619 654.294619807 134.771168335 c 0
 652.954198874 80.124082583 697.752983937 27.2811002951 749.93052344 26.296517364 c 0
 810.892085465 25.1464887957 859.567500665 72.902431617 861.306701924 134.494018558 c 0
 863.023000862 195.247535552 814.337984938 244.660903237 752.903156548 245.702249199 c 0
753.496235914 280.69716523 m 0
 833.663824805 279.339106946 898.576731105 214.356846005 896.29290856 133.50602068 c 0
 894.032870612 53.490404425 829.912254651 -10.2189716883 749.269619013 -8.69690699162 c 0
 674.278876122 -7.28169171839 617.545913926 63.9186006119 619.304993218 135.629371044 c 0
 621.077723631 207.842665105 675.818274024 282.014327414 753.496235914 280.69716523 c 0
808.014648438 536.193359375 m 5
 783.603515625 541.588867188 l 5
 759.193359375 546.985351562 l 5
 764.588867188 571.396484375 l 5
 790.688476562 689.46484375 l 5
 106.456054688 22.103515625 l 5
 88.55859375 4.6474609375 l 5
 71.103515625 22.5439453125 l 5
 53.6474609375 40.44140625 l 5
 71.5439453125 57.896484375 l 5
 735.037109375 705.029296875 l 5
 611.116210938 673.759765625 l 5
 598.78515625 722.21484375 l 5
 629.82421875 730.180664062 l 5
 873 792 l 5
 808.014648438 536.193359375 l 5
EndSplineSet
EndChar

StartChar: lt-TY
Encoding: 296 -1 65
Width: 1000
Flags: HW
LayerCount: 2
Fore
SplineSet
671.656173166 492.849966858 m 1
 687.229565093 480.482147466 l 1
 689.187239048 478.927434272 l 1
 687.632585303 476.969713107 l 1
 675.195085303 461.307603732 l 1
 662.757585303 445.645494357 l 1
 661.202884348 443.687713741 l 1
 659.245103732 445.242414697 l 1
 643.582994357 457.679914697 l 1
 643.487284533 457.755919206 l 1
 643.399444629 457.840896893 l 1
 507.57969135 589.23503455 l 1
 380.362629212 456.779962819 l 1
 380.319202704 456.734748277 l 1
 380.273564552 456.691767172 l 1
 365.713994239 442.979853109 l 1
 363.894042661 441.26585887 l 1
 362.180048422 443.085810448 l 1
 348.468134359 457.645380761 l 1
 334.756220297 472.204951073 l 1
 333.042283437 474.024841725 l 1
 334.862116709 475.738839509 l 1
 349.378985716 489.411455402 l 1
 490.891840223 635.499192532 l 1
 490.931781591 635.54042514 l 1
 490.97357346 635.579780959 l 1
 503.572206273 647.444038771 l 1
 505.146926977 648.926968919 l 1
 506.840840716 647.581798535 l 1
 520.392598529 636.820079785 l 1
 520.480367587 636.750380641 l 1
 520.56154772 636.673107332 l 1
 671.656173166 492.849966858 l 1
506.019161687 503.903679242 m 0
 391.670331434 505.841159422 299.071109206 391.199844012 296.092997743 269.847855001 c 0
 293.260785137 154.422871007 387.095657501 42.2187086193 499.624320098 40.0962346148 c 0
 628.569809898 37.6627722554 731.443419798 138.878654939 735.109394904 268.635031716 c 0
 738.743680445 397.315588962 635.57585196 501.707606543 506.019161687 503.903679242 c 0
506.781621916 548.897101968 m 0
 660.424695404 546.292380974 784.455593281 421.885338902 780.090800249 267.364962623 c 0
 775.756724764 113.918990099 653.024210774 -7.80638140143 498.775094687 -4.8960393159 c 0
 356.915237559 -2.21889770256 247.736637169 133.586588234 251.107197406 270.951943041 c 0
 254.528173059 410.386700845 360.331057715 551.378426878 506.781621916 548.897101968 c 0
226.38671875 581.861328125 m 1
 204.248046875 593.474609375 l 1
 215.861328125 615.61328125 l 1
 247.861328125 676.61328125 l 1
 254.8125 689.864257812 l 1
 269.774414062 689.999023438 l 1
 712.774414062 693.999023438 l 1
 725.374023438 694.112304688 l 1
 732.9609375 684.052734375 l 1
 778.9609375 623.052734375 l 1
 794.012695312 603.091796875 l 1
 774.052734375 588.0390625 l 1
 754.091796875 572.987304688 l 1
 739.0390625 592.947265625 l 1
 700.625976562 643.887695312 l 1
 285.1875 640.135742188 l 1
 260.138671875 592.38671875 l 1
 248.525390625 570.248046875 l 1
 226.38671875 581.861328125 l 1
504.374023438 714.330078125 m 1
 531.73046875 760.407226562 l 1
 473.158203125 759.626953125 l 1
 504.374023438 714.330078125 l 1
485.35546875 653.813476562 m 1
 405.415039062 769.813476562 l 1
 378.841796875 808.373046875 l 1
 425.666992188 808.998046875 l 1
 575.666992188 810.998046875 l 1
 620.26953125 811.592773438 l 1
 597.497070312 773.237304688 l 1
 527.4375 655.237304688 l 1
 506 653 l 1
 485.35546875 653.813476562 l 1
EndSplineSet
EndChar

StartChar: lt-SC
Encoding: 297 -1 66
Width: 1000
Flags: HW
LayerCount: 2
Fore
SplineSet
480.741210938 719.614257812 m 0
 484.033203125 696.567382812 496.318359375 687.451171875 504.296875 688.020507812 c 0
 519.625 689.009765625 531.490234375 703.685546875 529.198242188 720.875976562 c 0
 526.5234375 742.271484375 510.733398438 755.76953125 492.984375 754.15625 c 0
 487.359375 753.768554688 477.243164062 744.094726562 480.741210938 719.614257812 c 0
431.243164062 712.54296875 m 0
 426.740234375 744.0625 436.625 800.388671875 489 804 c 0
 537.250976562 808.38671875 573.4609375 769.884765625 578.786132812 727.28125 c 0
 584.494140625 684.470703125 554.359375 641.146484375 507.6875 638.135742188 c 0
 459.666015625 634.706054688 435.951171875 679.588867188 431.243164062 712.54296875 c 0
476.8984375 640.405273438 m 1
 498.1328125 673.831054688 l 1
 519.177734375 640.286132812 l 1
 886.177734375 41.2861328125 l 1
 910.234375 2.9384765625 l 1
 864.965820312 3 l 1
 126.965820312 4 l 1
 81.5390625 4.0615234375 l 1
 105.8984375 42.4052734375 l 1
 476.8984375 640.405273438 l 1
497.8671875 580.168945312 m 1
 172.4609375 53.9384765625 l 1
 819.765625 53.0615234375 l 1
 497.8671875 580.168945312 l 1
852.749023438 371.53515625 m 4
 856.041015625 348.489257812 868.326171875 339.373046875 876.3046875 339.942382812 c 4
 891.6328125 340.931640625 903.498046875 355.607421875 901.206054688 372.797851562 c 4
 898.53125 394.193359375 882.741210938 407.69140625 864.9921875 406.078125 c 4
 859.3671875 405.690429688 849.251953125 396.016601562 852.749023438 371.53515625 c 4
803.250976562 364.46484375 m 4
 798.748046875 395.983398438 808.6328125 452.309570312 861.0078125 455.921875 c 4
 909.258789062 460.30859375 945.46875 421.806640625 950.793945312 379.202148438 c 4
 956.501953125 336.392578125 926.3671875 293.068359375 879.6953125 290.057617188 c 4
 831.673828125 286.626953125 807.958984375 331.510742188 803.250976562 364.46484375 c 4
56.0078125 349.383789062 m 1
 55.390625 374.375976562 l 1
 80.3837890625 374.9921875 l 1
 79.3837890625 374.967773438 80.3837890625 373.9921875 80.3837890625 374.9921875 c 1
 823.383789062 389.9921875 l 5
 848.375976562 390.609375 l 5
 848.9921875 365.616210938 l 5
 849.609375 340.624023438 l 5
 824.616210938 340.0078125 l 5
 81.6162109375 325.0078125 l 1
 81.6162109375 326.0078125 80.6171875 324.983398438 81.6162109375 325.0078125 c 1
 56.6240234375 324.390625 l 1
 56.0078125 349.383789062 l 1
EndSplineSet
EndChar

StartChar: lt-XC
Encoding: 298 -1 67
Width: 1000
Flags: HW
LayerCount: 2
Fore
SplineSet
393.904426929 647.829135324 m 0
 396.828171818 627.360993785 407.607153664 620.024939653 413.786740857 620.466158649 c 0
 426.795459671 621.305104057 437.01575112 633.797832511 435.037974902 648.633027035 c 0
 432.69790544 667.351684098 419.014594008 678.878544891 403.785079605 677.49412822 c 0
 399.900884732 677.226640263 390.786664716 669.64766853 393.904426929 647.829135324 c 0
346.881705415 641.112274208 m 0
 342.805778845 669.641795892 351.692552878 721.514989307 400.000015691 724.845710204 c 0
 444.195036795 728.86389115 477.288991531 693.584016241 482.146259518 654.717953425 c 0
 487.37048372 615.539747447 459.791430988 575.835631211 417.007998119 573.075441821 c 0
 372.779553475 569.916481351 351.152922047 611.215726538 346.881705415 641.112274208 c 0
388.150307346 577.02987509 m 1
 407.264229119 607.118503033 l 1
 408.325939901 608.789819944 l 1
 409.378206621 607.112540972 l 1
 428.322157992 576.916497836 l 1
 758.621967446 37.8159041178 l 1
 780.269817883 3.30881457436 l 1
 781.472673311 1.39143990996 l 1
 779.209229647 1.39453241671 l 1
 738.4680339 1.45019645854 l 1
 74.2678293933 2.34961053353 l 1
 33.3830637683 2.40527459603 l 1
 31.1116950065 2.40836703427 l 1
 32.3296776381 4.32556392667 l 1
 54.2499259784 38.8296946995 l 1
 388.150307346 577.02987509 l 1
408.073420782 519.764874933 m 1
 117.455614343 49.7918842763 l 1
 695.559198069 49.00790792 l 1
 408.073420782 519.764874933 l 1
873.645507812 770.997070312 m 1
 898.643554688 771.3515625 l 1
 898.997070312 746.354492188 l 1
 908.997070312 40.3544921875 l 1
 909.3515625 15.3564453125 l 1
 884.354492188 15.0029296875 l 1
 859.356445312 14.6484375 l 1
 859.002929688 39.6455078125 l 1
 849.002929688 745.645507812 l 1
 848.6484375 770.643554688 l 1
 873.645507812 770.997070312 l 1
EndSplineSet
EndChar

StartChar: lt-KC
Encoding: 299 -1 68
Width: 1000
Flags: HW
LayerCount: 2
Fore
SplineSet
749.721498057 288.906350403 m 0
 750.246036304 285.233026181 751.477172556 283.494899392 751.999771655 282.855398659 c 0
 753.380076908 283.442986663 754.563225762 284.974218803 754.241398753 287.389979969 c 0
 753.692576255 291.778056199 751.178448919 293.540722186 749.732461718 294.008014163 c 1
 749.428311063 292.328940311 749.384618617 291.263566137 749.721498057 288.906350403 c 0
715.072465106 283.95680595 m 0
 713.132659192 297.537551262 717.015275847 327.146677317 745.002047938 329.076214699 c 0
 768.918436983 331.250761912 786.42490929 312.100438247 788.95293052 291.872791068 c 0
 791.747675525 270.912203533 776.974426851 249.280989875 753.583747737 247.771124414 c 0
 728.369930695 245.971419324 717.159064082 269.356021615 715.072465106 283.95680595 c 0
734.407677326 260.149911523 m 1
 742.922233785 273.553705071 l 1
 749.292457841 283.581845527 l 1
 755.606153791 273.518019268 l 1
 764.045250881 260.06637263 l 1
 910.845058044 20.4667592149 l 1
 920.446979139 5.16156592821 l 1
 927.664225428 -6.34252250838 l 1
 914.083637831 -6.32421193293 l 1
 895.976180426 -6.29979782244 l 1
 600.775652896 -5.90038330309 l 1
 582.604754458 -5.87499267809 l 1
 568.976596457 -5.85594973145 l 1
 576.284837147 5.6469486494 l 1
 586.007433524 20.9499528684 l 1
 734.407677326 260.149911523 l 1
749.106559264 217.74258324 m 1
 632.429004182 29.0569978628 l 1
 864.52705082 28.7427319813 l 1
 749.106559264 217.74258324 l 1
808.014648438 536.193359375 m 5
 783.603515625 541.588867188 l 5
 759.193359375 546.985351562 l 5
 764.588867188 571.396484375 l 5
 790.688476562 689.46484375 l 5
 106.456054688 22.103515625 l 5
 88.55859375 4.6474609375 l 5
 71.103515625 22.5439453125 l 5
 53.6474609375 40.44140625 l 5
 71.5439453125 57.896484375 l 5
 735.037109375 705.029296875 l 5
 611.116210938 673.759765625 l 5
 598.78515625 722.21484375 l 5
 629.82421875 730.180664062 l 5
 873 792 l 5
 808.014648438 536.193359375 l 5
EndSplineSet
EndChar

StartChar: lt-TC
Encoding: 300 -1 69
Width: 1000
Flags: HW
LayerCount: 2
Fore
SplineSet
487.067647248 576.044959106 m 0
 489.62310938 558.155776661 498.896315075 552.598530975 503.27637198 552.910817774 c 0
 513.966887129 553.601269935 522.542590282 563.906207967 520.877705923 576.391067619 c 0
 518.872375866 592.432792816 507.295768967 601.987633613 494.586877313 600.832994969 c 0
 492.444253827 600.68513163 484.331322942 595.198274165 487.067647248 576.044959106 c 0
442.519264848 569.680640592 m 0
 438.871345183 595.221023908 446.75914202 642.641268914 491.001011718 645.692396785 c 0
 531.140346194 649.341057923 561.116024341 617.283324028 565.507367861 582.155595356 c 0
 570.246817936 546.608706226 545.220591309 510.523652679 506.32850825 508.015142313 c 0
 465.893128475 505.1269009 446.353707591 542.842523847 442.519264848 569.680640592 c 0
479.401208693 513.653513181 m 1
 496.395662288 540.405000869 l 1
 498.519096082 543.747562763 l 1
 500.623600743 540.393050693 l 1
 517.466580642 513.545887839 l 1
 811.067182322 34.3456668316 l 1
 830.305273395 3.67913245469 l 1
 832.71094628 -0.155637324091 l 1
 828.184061863 -0.149411698341 l 1
 791.969269543 -0.099607081042 l 1
 201.56988324 0.700197569007 l 1
 165.228086365 0.749025694007 l 1
 160.685354638 0.755129219194 l 1
 163.121243862 4.58956431211 l 1
 182.601401861 35.2540956608 l 1
 479.401208693 513.653513181 l 1
498.280628909 459.359832423 m 1
 242.450301888 45.6443247965 l 1
 751.352775768 44.9552596068 l 1
 498.280628909 459.359832423 l 1
226.38671875 581.861328125 m 1
 204.248046875 593.474609375 l 1
 215.861328125 615.61328125 l 1
 247.861328125 676.61328125 l 1
 254.8125 689.864257812 l 1
 269.774414062 689.999023438 l 1
 712.774414062 693.999023438 l 1
 725.374023438 694.112304688 l 1
 732.9609375 684.052734375 l 1
 778.9609375 623.052734375 l 1
 794.012695312 603.091796875 l 1
 774.052734375 588.0390625 l 1
 754.091796875 572.987304688 l 1
 739.0390625 592.947265625 l 1
 700.625976562 643.887695312 l 1
 285.1875 640.135742188 l 1
 260.138671875 592.38671875 l 1
 248.525390625 570.248046875 l 1
 226.38671875 581.861328125 l 1
504.374023438 714.330078125 m 1
 531.73046875 760.407226562 l 1
 473.158203125 759.626953125 l 1
 504.374023438 714.330078125 l 1
485.35546875 653.813476562 m 1
 405.415039062 769.813476562 l 1
 378.841796875 808.373046875 l 1
 425.666992188 808.998046875 l 1
 575.666992188 810.998046875 l 1
 620.26953125 811.592773438 l 1
 597.497070312 773.237304688 l 1
 527.4375 655.237304688 l 1
 506 653 l 1
 485.35546875 653.813476562 l 1
EndSplineSet
EndChar

StartChar: lt-SX
Encoding: 301 -1 70
Width: 1000
Flags: HW
LayerCount: 2
Fore
SplineSet
836.645507812 770.997070312 m 1
 861.643554688 771.3515625 l 1
 861.997070312 746.354492188 l 1
 871.997070312 40.3544921875 l 1
 872.3515625 15.3564453125 l 1
 847.354492188 15.0029296875 l 1
 822.356445312 14.6484375 l 1
 822.002929688 39.6455078125 l 1
 812.002929688 745.645507812 l 1
 811.6484375 770.643554688 l 1
 836.645507812 770.997070312 l 1
344.107421875 117.015625 m 1
 319.124023438 117.908203125 l 1
 320.015625 142.892578125 l 2
 322.673828125 217.310546875 289.579101562 282.509765625 330.368164062 368.62109375 c 0
 398.208984375 514.54296875 561.795898438 496.0703125 536.723632812 598.02734375 c 0
 511.1875 701.822265625 393.140625 694.49609375 254.734375 719.366210938 c 0
 250.25 720.11328125 244.59765625 720.064453125 239.165039062 719.079101562 c 0
 212.947265625 714.325195312 196.52734375 693.356445312 199.596679688 676.471679688 c 2
 204.069335938 651.875 l 1
 179.471679688 647.403320312 l 1
 154.875 642.930664062 l 1
 150.403320312 667.528320312 l 2
 140.505859375 721.963867188 187.311523438 760.4921875 230.244140625 768.27734375 c 0
 240.984375 770.224609375 251.828125 770.540039062 263.265625 768.633789062 c 0
 380.859375 747.50390625 548.8125 758.177734375 585.276367188 609.97265625 c 0
 620.204101562 467.9296875 413.791015625 429.45703125 375.631835938 347.37890625 c 0
 344.420898438 281.490234375 373.326171875 234.689453125 369.984375 141.107421875 c 2
 369.091796875 116.124023438 l 1
 344.107421875 117.015625 l 1
344.053710938 81.478515625 m 4
 347.345703125 58.431640625 359.630859375 49.3154296875 367.609375 49.884765625 c 4
 382.9375 50.8740234375 394.802734375 65.5498046875 392.510742188 82.740234375 c 4
 389.8359375 104.135742188 374.045898438 117.633789062 356.296875 116.020507812 c 4
 350.671875 115.6328125 340.555664062 105.958984375 344.053710938 81.478515625 c 4
294.555664062 74.4072265625 m 4
 290.052734375 105.926757812 299.9375 162.252929688 352.3125 165.864257812 c 4
 400.563476562 170.250976562 436.7734375 131.749023438 442.098632812 89.1455078125 c 4
 447.806640625 46.3349609375 417.671875 3.0107421875 371 0 c 4
 322.978515625 -3.4296875 299.263671875 41.453125 294.555664062 74.4072265625 c 4
852.749023438 371.53515625 m 4
 856.041015625 348.489257812 868.326171875 339.373046875 876.3046875 339.942382812 c 4
 891.6328125 340.931640625 903.498046875 355.607421875 901.206054688 372.797851562 c 4
 898.53125 394.193359375 882.741210938 407.69140625 864.9921875 406.078125 c 4
 859.3671875 405.690429688 849.251953125 396.016601562 852.749023438 371.53515625 c 4
803.250976562 364.46484375 m 4
 798.748046875 395.983398438 808.6328125 452.309570312 861.0078125 455.921875 c 4
 909.258789062 460.30859375 945.46875 421.806640625 950.793945312 379.202148438 c 4
 956.501953125 336.392578125 926.3671875 293.068359375 879.6953125 290.057617188 c 4
 831.673828125 286.626953125 807.958984375 331.510742188 803.250976562 364.46484375 c 4
56.0078125 349.383789062 m 1
 55.390625 374.375976562 l 1
 80.3837890625 374.9921875 l 1
 79.3837890625 374.967773438 80.3837890625 373.9921875 80.3837890625 374.9921875 c 1
 823.383789062 389.9921875 l 5
 848.375976562 390.609375 l 5
 848.9921875 365.616210938 l 5
 849.609375 340.624023438 l 5
 824.616210938 340.0078125 l 5
 81.6162109375 325.0078125 l 1
 81.6162109375 326.0078125 80.6171875 324.983398438 81.6162109375 325.0078125 c 1
 56.6240234375 324.390625 l 1
 56.0078125 349.383789062 l 1
EndSplineSet
EndChar

StartChar: lt-KX
Encoding: 302 -1 71
Width: 1000
Flags: HW
LayerCount: 2
Fore
SplineSet
884.55200223 315.898662116 m 1
 894.551025667 316.040263679 l 1
 902.050273721 316.146464574 l 1
 902.156474616 308.64721652 l 1
 902.298075887 298.64821368 l 1
 906.298076179 16.2478024579 l 1
 906.439677741 6.24877902038 l 1
 906.545878637 -1.25046903325 l 1
 899.046630583 -1.35666992863 l 1
 889.047607145 -1.49827149113 l 1
 879.048583708 -1.63987305363 l 1
 871.549335654 -1.746073949 l 1
 871.443134759 5.75317410462 l 1
 871.301533488 15.7521769447 l 1
 867.301533196 298.152588167 l 1
 867.159931634 308.151611605 l 1
 867.053730738 315.650859658 l 1
 874.552978792 315.757060554 l 1
 884.55200223 315.898662116 l 1
687.375855128 39.311419675 m 1
 677.38209331 39.6678514772 l 1
 669.886127362 39.9351983182 l 1
 670.154205725 47.4311381411 l 1
 670.511609206 57.4247639361 l 2
 671.464733454 84.1271354545 657.705165016 113.369196839 675.357894166 150.634543371 c 0
 706.946619542 218.582076956 765.806644786 203.257948924 757.406643399 237.419099759 c 0
 748.859023443 272.160353564 709.097011848 269.847916519 650.614168658 280.355867353 c 0
 649.946077521 280.467155262 648.305545197 280.487888285 647.003967428 280.25214184 c 0
 639.151945361 278.828556128 637.025771665 272.986709036 637.217868075 271.930636877 c 2
 639.006930575 262.09176969 l 1
 640.348700265 254.712768802 l 1
 632.969699377 253.370999112 l 1
 623.130123206 251.581807729 l 1
 613.291256018 249.793721791 l 1
 605.91296412 248.452813358 l 1
 604.57121787 255.830952945 l 1
 602.782097897 265.669159644 l 2
 597.802742271 293.056843846 621.153514221 311.135817586 640.758968066 314.690107427 c 0
 645.813476777 315.607019896 651.010910092 315.772729938 656.586460611 314.843273171 c 0
 700.496001662 306.954032456 775.190716647 311.637767732 791.393383551 245.780191943 c 0
 806.689317234 183.577583597 717.745101657 158.786085617 707.042507387 135.76489436 c 0
 696.107901866 112.681107298 706.921262476 96.2951826633 705.488398523 56.1760386228 c 2
 705.13195321 46.1818979978 l 1
 704.864605436 38.685905885 l 1
 697.368640385 38.9540113486 l 1
 687.375855128 39.311419675 l 1
695.045713578 33.6524667146 m 0
 695.570649222 29.9790845956 696.801677877 28.2416300173 697.324922113 27.6013888858 c 0
 698.705902048 28.1891915833 699.88794514 29.718122496 699.565619788 32.1350477401 c 0
 699.017059256 36.5255358725 696.503591311 38.2867993301 695.057387194 38.7541780523 c 1
 694.75279319 37.0734344004 694.709037964 36.0099013406 695.045713578 33.6524667146 c 0
660.397616173 28.7022329088 m 0
 658.457898805 42.2834102055 662.339399291 71.8927873759 690.327255198 73.8223095353 c 0
 714.244057746 75.996894345 731.748944962 56.8453614752 734.278094372 36.6191207716 c 0
 737.072892556 15.6581343942 722.298561942 -5.97413064687 698.908950051 -7.48278263791 c 0
 673.69571142 -9.28372825443 662.483240104 14.1007018752 660.397616173 28.7022329088 c 0
808.014648438 536.193359375 m 5
 783.603515625 541.588867188 l 5
 759.193359375 546.985351562 l 5
 764.588867188 571.396484375 l 5
 790.688476562 689.46484375 l 5
 106.456054688 22.103515625 l 5
 88.55859375 4.6474609375 l 5
 71.103515625 22.5439453125 l 5
 53.6474609375 40.44140625 l 5
 71.5439453125 57.896484375 l 5
 735.037109375 705.029296875 l 5
 611.116210938 673.759765625 l 5
 598.78515625 722.21484375 l 5
 629.82421875 730.180664062 l 5
 873 792 l 5
 808.014648438 536.193359375 l 5
EndSplineSet
EndChar

StartChar: lt-TX
Encoding: 303 -1 72
Width: 1000
Flags: HW
LayerCount: 2
Fore
SplineSet
769.281005952 619.297600914 m 1
 789.279052827 619.580804039 l 1
 791.778802178 619.616204337 l 1
 791.805352402 617.741392324 l 1
 791.814202476 617.116454986 l 1
 792.097405503 597.118415038 l 1
 800.097405601 32.3186034235 l 1
 800.380608726 12.3205565485 l 1
 800.416009025 9.82080719725 l 1
 798.541197011 9.79425697341 l 1
 797.916259673 9.78540689879 l 1
 777.918214527 9.50220379827 l 1
 757.921144214 9.21900067327 l 1
 755.421515202 9.18360035029 l 1
 755.385994568 11.6832276561 l 1
 755.101813247 31.6813896495 l 1
 747.101813149 596.481201264 l 1
 746.818610024 616.479248139 l 1
 746.783209725 618.97899749 l 1
 749.282959077 619.014397789 l 1
 769.281005952 619.297600914 l 1
375.196899632 91.1138977071 m 1
 355.209594945 91.8277648946 l 1
 352.711187964 91.916998075 l 1
 352.800421145 94.4154050554 l 1
 353.514287759 114.402693695 l 2
 355.603632678 172.912029318 328.959004484 226.138998679 362.027941205 295.950428701 c 0
 417.791742705 415.895531129 546.466110459 398.466532419 526.951301378 477.824602376 c 0
 507.077365869 558.601890255 415.126171813 552.946402172 303.360573897 573.029768214 c 0
 300.150879881 573.564571573 295.832545346 573.539056051 291.778126069 572.803793949 c 0
 271.682439381 569.159474196 260.026195158 553.235365742 262.137422821 541.624872776 c 2
 265.714571258 521.947138401 l 1
 266.161705754 519.487471437 l 1
 263.702042695 519.040315459 l 1
 244.025381563 515.4631846 l 1
 224.347647188 511.8850596 l 1
 221.887980226 511.437803037 l 1
 221.552537803 513.282553259 l 1
 221.440723662 513.897469999 l 1
 217.86259085 533.575247342 l 2
 209.604460006 578.994966985 248.598997338 610.707535231 283.749353798 617.08197292 c 0
 292.594221265 618.685469579 301.555335013 618.950700618 311.038827448 617.370624655 c 0
 404.071690502 600.653623633 540.939212618 609.330778497 570.648380454 488.575493669 c 0
 599.03701164 373.129980912 431.790668631 339.265708966 402.765204825 276.83310625 c 0
 378.321667046 225.229975825 401.191351113 188.553425292 398.485711668 112.796509007 c 2
 397.77184448 92.8092043196 l 1
 397.6826113 90.3107973393 l 1
 395.808806065 90.3777222245 l 1
 395.18420432 90.4000305196 l 1
 375.196899632 91.1138977071 l 1
377.71803047 65.5362218704 m 0
 380.273521256 47.6468388331 389.546258465 42.0900150988 393.926947696 42.403017221 c 0
 404.616201369 43.092591566 413.192081719 53.3975139543 411.528096548 65.8822785563 c 0
 409.522764969 81.9240159305 397.945233923 91.4797213775 385.236376448 90.3242117777 c 0
 383.093527661 90.17633289 374.980749394 84.6905037896 377.71803047 65.5362218704 c 0
333.169662183 59.1718045654 m 0
 329.520742399 84.7122647813 337.409542194 132.133508473 381.650424221 135.183608206 c 0
 421.79068858 138.833277051 451.76645701 106.774437447 456.156780689 71.6468155502 c 0
 460.896231598 36.1009337368 435.871011329 0.0148629200226 396.977926817 -2.4936464278 c 0
 356.543487766 -5.38189406329 337.004099826 32.333723514 333.169662183 59.1718045654 c 0
226.38671875 581.861328125 m 1
 204.248046875 593.474609375 l 1
 215.861328125 615.61328125 l 1
 247.861328125 676.61328125 l 1
 254.8125 689.864257812 l 1
 269.774414062 689.999023438 l 1
 712.774414062 693.999023438 l 1
 725.374023438 694.112304688 l 1
 732.9609375 684.052734375 l 1
 778.9609375 623.052734375 l 1
 794.012695312 603.091796875 l 1
 774.052734375 588.0390625 l 1
 754.091796875 572.987304688 l 1
 739.0390625 592.947265625 l 1
 700.625976562 643.887695312 l 1
 285.1875 640.135742188 l 1
 260.138671875 592.38671875 l 1
 248.525390625 570.248046875 l 1
 226.38671875 581.861328125 l 1
504.374023438 714.330078125 m 1
 531.73046875 760.407226562 l 1
 473.158203125 759.626953125 l 1
 504.374023438 714.330078125 l 1
485.35546875 653.813476562 m 1
 405.415039062 769.813476562 l 1
 378.841796875 808.373046875 l 1
 425.666992188 808.998046875 l 1
 575.666992188 810.998046875 l 1
 620.26953125 811.592773438 l 1
 597.497070312 773.237304688 l 1
 527.4375 655.237304688 l 1
 506 653 l 1
 485.35546875 653.813476562 l 1
EndSplineSet
EndChar

StartChar: lt-SL
Encoding: 304 -1 73
Width: 1000
Flags: HW
LayerCount: 2
Fore
SplineSet
466.963867188 396.544921875 m 1
 465.743164062 312.015625 468.227539062 229.083007812 482.704101562 135.834960938 c 0
 494.38671875 60.5859375 590.734375 47.1005859375 705.458984375 44.99609375 c 0
 801.66015625 43.23046875 825.202148438 62.376953125 906.353515625 127.498046875 c 2
 925.8515625 143.14453125 l 1
 941.498046875 123.646484375 l 1
 957.14453125 104.1484375 l 1
 937.646484375 88.501953125 l 2
 856.797851562 23.623046875 812.462890625 -6.9765625 704.541015625 -4.99609375 c 0
 601.265625 -3.1005859375 452.759765625 2.7890625 433.295898438 128.165039062 c 0
 418.920898438 220.759765625 415.969726562 303.474609375 416.822265625 385.572265625 c 1
 122.220703125 542.94921875 l 1
 83.9521484375 563.392578125 l 1
 120.829101562 586.249023438 l 1
 433.829101562 780.249023438 l 1
 470.581054688 803.028320312 l 1
 471.986328125 759.8125 l 2
 476.291015625 627.469726562 469.43359375 519.291015625 467.293945312 415.296875 c 1
 467 409 l 1
 466.963867188 396.544921875 l 1
417.905273438 441.680664062 m 1
 420.185546875 527.374023438 424.594726562 612.514648438 423.051757812 714.744140625 c 1
 184.047851562 566.607421875 l 1
 417.905273438 441.680664062 l 1
852.749023438 371.53515625 m 4
 856.041015625 348.489257812 868.326171875 339.373046875 876.3046875 339.942382812 c 4
 891.6328125 340.931640625 903.498046875 355.607421875 901.206054688 372.797851562 c 4
 898.53125 394.193359375 882.741210938 407.69140625 864.9921875 406.078125 c 4
 859.3671875 405.690429688 849.251953125 396.016601562 852.749023438 371.53515625 c 4
803.250976562 364.46484375 m 4
 798.748046875 395.983398438 808.6328125 452.309570312 861.0078125 455.921875 c 4
 909.258789062 460.30859375 945.46875 421.806640625 950.793945312 379.202148438 c 4
 956.501953125 336.392578125 926.3671875 293.068359375 879.6953125 290.057617188 c 4
 831.673828125 286.626953125 807.958984375 331.510742188 803.250976562 364.46484375 c 4
56.0078125 349.383789062 m 1
 55.390625 374.375976562 l 1
 80.3837890625 374.9921875 l 1
 79.3837890625 374.967773438 80.3837890625 373.9921875 80.3837890625 374.9921875 c 1
 823.383789062 389.9921875 l 5
 848.375976562 390.609375 l 5
 848.9921875 365.616210938 l 5
 849.609375 340.624023438 l 5
 824.616210938 340.0078125 l 5
 81.6162109375 325.0078125 l 1
 81.6162109375 326.0078125 80.6171875 324.983398438 81.6162109375 325.0078125 c 1
 56.6240234375 324.390625 l 1
 56.0078125 349.383789062 l 1
EndSplineSet
EndChar

StartChar: lt-XL
Encoding: 305 -1 74
Width: 1000
Flags: HW
LayerCount: 2
Fore
SplineSet
381.517552177 356.879802908 m 2
 380.419191409 280.822469084 382.652823145 206.280752637 395.668798191 122.44370815 c 0
 405.985154754 55.9901202187 491.400834204 43.645593556 594.936021089 41.7458833238 c 0
 681.254261239 40.1618391013 701.868250283 57.0886621159 774.935449937 115.722967354 c 2
 792.484278062 129.804998604 l 1
 793.459172058 130.587300853 l 1
 794.24150079 129.612428109 l 1
 808.323553291 112.064550063 l 1
 822.405584541 94.5157219382 l 1
 823.187908042 93.5408014592 l 1
 822.212987563 92.7584779585 l 1
 804.664171857 78.6764566745 l 2
 731.887779138 20.2756235854 691.51218343 -7.53395073964 594.063987201 -5.74588347592 c 0
 501.407651809 -4.04614234252 366.441828678 1.07701006285 348.731595647 115.156857092 c 0
 335.835734562 198.21733756 333.148175495 273.284541949 333.881958626 346.269332076 c 1
 69.4090718111 487.551750561 l 1
 34.9676655611 505.950188061 l 1
 33.0542274744 506.972337703 l 1
 34.8981087603 508.115201214 l 1
 68.0875650202 528.686492219 l 1
 349.787773546 703.287086346 l 1
 382.864921984 723.788062909 l 1
 384.702519754 724.926992671 l 1
 384.772777265 722.766207987 l 1
 386.037425604 683.871679789 l 2
 389.912964196 564.687630384 383.739618739 467.318549356 381.813853202 373.725563023 c 2
 381.549720835 368.068646929 l 1
 381.517552177 356.879802908 l 2
334.91895527 399.568412224 m 1
 336.990267808 475.958037669 340.797018287 551.404000384 339.528559684 641.044263816 c 1
 128.145960942 510.027646808 l 1
 334.91895527 399.568412224 l 1
873.645507812 770.997070312 m 1
 898.643554688 771.3515625 l 1
 898.997070312 746.354492188 l 1
 908.997070312 40.3544921875 l 1
 909.3515625 15.3564453125 l 1
 884.354492188 15.0029296875 l 1
 859.356445312 14.6484375 l 1
 859.002929688 39.6455078125 l 1
 849.002929688 745.645507812 l 1
 848.6484375 770.643554688 l 1
 873.645507812 770.997070312 l 1
EndSplineSet
EndChar

StartChar: lt-KL
Encoding: 306 -1 75
Width: 1000
Flags: HW
LayerCount: 2
Fore
SplineSet
744.284997013 158.552985599 m 2
 743.798354317 124.854925481 744.782151265 92.2686640393 750.493252587 55.4845487153 c 0
 753.984069874 32.9988704667 784.615472609 26.3729105281 832.321183524 25.4967847057 c 0
 869.224744041 24.8196637471 875.200513853 30.6509556675 907.847144287 56.8486022139 c 2
 915.646948974 63.1073912764 l 1
 921.496170236 67.8009757343 l 1
 926.190112189 61.9520413551 l 1
 932.449188151 54.1528557131 l 1
 938.707977214 46.3530510256 l 1
 943.401848552 40.5034722493 l 1
 937.552269776 35.8096009111 l 1
 929.752547071 29.5508776353 l 2
 897.333933457 3.53649672609 876.763728622 -10.3249477786 831.678843995 -9.49678521061 c 0
 792.11320871 -8.77096471036 724.851524362 -7.49562731795 715.907137309 50.1150653585 c 0
 710.362523486 85.8301754935 709.020288604 119.461973573 709.191606758 149.751692158 c 1
 595.353837444 210.564413616 l 1
 580.047196819 218.741171428 l 1
 568.56704016 224.873833908 l 1
 579.62964736 231.731112373 l 1
 594.380885294 240.874829067 l 1
 719.581053964 318.474421929 l 1
 734.281249276 327.585750054 l 1
 745.30658246 334.419361866 l 1
 745.728454202 321.454862398 l 1
 746.290958358 304.168601841 l 2
 748.027546856 250.773676866 745.269710651 207.458464961 744.414355125 165.866314293 c 2
 744.299287821 163.412813096 l 1
 744.284997013 158.552985599 l 2
710.017328437 188.991794836 m 1
 710.854092562 215.85346611 711.915928809 242.399946725 711.843083942 272.501056386 c 1
 638.633592535 227.125769341 l 1
 710.017328437 188.991794836 l 1
808.014648438 536.193359375 m 5
 783.603515625 541.588867188 l 5
 759.193359375 546.985351562 l 5
 764.588867188 571.396484375 l 5
 790.688476562 689.46484375 l 5
 106.456054688 22.103515625 l 5
 88.55859375 4.6474609375 l 5
 71.103515625 22.5439453125 l 5
 53.6474609375 40.44140625 l 5
 71.5439453125 57.896484375 l 5
 735.037109375 705.029296875 l 5
 611.116210938 673.759765625 l 5
 598.78515625 722.21484375 l 5
 629.82421875 730.180664062 l 5
 873 792 l 5
 808.014648438 536.193359375 l 5
EndSplineSet
EndChar

StartChar: lt-TL
Encoding: 307 -1 76
Width: 1000
Flags: HW
LayerCount: 2
Fore
SplineSet
476.071237759 317.214725095 m 2
 475.095218111 249.628292531 477.079082489 183.478496547 488.63349305 109.051490197 c 0
 497.584699083 51.3933768493 572.06003575 40.1907495632 664.413082465 38.4966490074 c 0
 740.848389324 37.0932142162 758.53427664 51.8012873426 823.518398704 103.948894802 c 2
 839.117031517 116.465496365 l 1
 841.066902882 118.030105473 l 1
 842.63151199 116.080234108 l 1
 855.148053966 100.481675551 l 1
 867.665632091 84.883042739 l 1
 869.230375044 82.9331567045 l 1
 867.280429421 81.3684880102 l 1
 851.681870885 68.8519460514 l 2
 786.977620732 16.9281310493 750.561730105 -8.09231856973 663.586929422 -6.49664922567 c 0
 581.548690923 -4.99072881635 460.1229239 -0.634094019043 444.166312161 102.148701745 c 0
 432.755070363 175.652176957 430.327596593 243.12778226 430.942921185 306.967214835 c 1
 196.598418307 432.154281706 l 1
 165.983183932 448.508773893 l 1
 162.156348296 450.553048739 l 1
 165.844047851 452.838787705 l 1
 195.346037285 471.124943022 l 1
 445.746399644 626.324144252 l 1
 475.147766831 644.547777065 l 1
 478.822899692 646.82570759 l 1
 478.963521267 642.504157568 l 1
 480.088523326 607.93085207 l 2
 483.535900288 501.904206409 478.045656412 415.347658746 476.334732492 332.153006563 c 2
 476.099442781 327.138029991 l 1
 476.071237759 317.214725095 l 2
431.934610418 357.455610797 m 1
 433.792803997 424.530448339 437.003967726 490.307579756 436.003912273 567.342891884 c 1
 252.243116851 453.446901207 l 1
 431.934610418 357.455610797 l 1
226.38671875 581.861328125 m 1
 204.248046875 593.474609375 l 1
 215.861328125 615.61328125 l 1
 247.861328125 676.61328125 l 1
 254.8125 689.864257812 l 1
 269.774414062 689.999023438 l 1
 712.774414062 693.999023438 l 1
 725.374023438 694.112304688 l 1
 732.9609375 684.052734375 l 1
 778.9609375 623.052734375 l 1
 794.012695312 603.091796875 l 1
 774.052734375 588.0390625 l 1
 754.091796875 572.987304688 l 1
 739.0390625 592.947265625 l 1
 700.625976562 643.887695312 l 1
 285.1875 640.135742188 l 1
 260.138671875 592.38671875 l 1
 248.525390625 570.248046875 l 1
 226.38671875 581.861328125 l 1
504.374023438 714.330078125 m 1
 531.73046875 760.407226562 l 1
 473.158203125 759.626953125 l 1
 504.374023438 714.330078125 l 1
485.35546875 653.813476562 m 1
 405.415039062 769.813476562 l 1
 378.841796875 808.373046875 l 1
 425.666992188 808.998046875 l 1
 575.666992188 810.998046875 l 1
 620.26953125 811.592773438 l 1
 597.497070312 773.237304688 l 1
 527.4375 655.237304688 l 1
 506 653 l 1
 485.35546875 653.813476562 l 1
EndSplineSet
EndChar

StartChar: lt-SW
Encoding: 308 -1 77
Width: 1000
Flags: HW
LayerCount: 2
Fore
SplineSet
543.48046875 -1.791015625 m 5
 522.823242188 -36.4814453125 l 5
 500.9765625 -2.52734375 l 5
 103.9765625 614.47265625 l 5
 79.224609375 652.940429688 l 5
 124.967773438 653 l 5
 889.967773438 654 l 5
 934.017578125 654.057617188 l 5
 911.48046875 616.208984375 l 5
 543.48046875 -1.791015625 l 5
521.176757812 58.4814453125 m 5
 845.982421875 603.942382812 l 5
 170.775390625 603.059570312 l 5
 521.176757812 58.4814453125 l 5
471.51953125 786.791015625 m 5
 492.176757812 821.481445312 l 5
 514.0234375 787.52734375 l 5
 911.0234375 170.52734375 l 5
 935.775390625 132.059570312 l 5
 890.032226562 132 l 5
 125.032226562 131 l 5
 80.982421875 130.942382812 l 5
 103.51953125 168.791015625 l 5
 471.51953125 786.791015625 l 5
493.823242188 726.518554688 m 5
 169.017578125 181.057617188 l 5
 844.224609375 181.940429688 l 5
 493.823242188 726.518554688 l 5
852.749023438 371.53515625 m 4
 856.041015625 348.489257812 868.326171875 339.373046875 876.3046875 339.942382812 c 4
 891.6328125 340.931640625 903.498046875 355.607421875 901.206054688 372.797851562 c 4
 898.53125 394.193359375 882.741210938 407.69140625 864.9921875 406.078125 c 4
 859.3671875 405.690429688 849.251953125 396.016601562 852.749023438 371.53515625 c 4
803.250976562 364.46484375 m 4
 798.748046875 395.983398438 808.6328125 452.309570312 861.0078125 455.921875 c 4
 909.258789062 460.30859375 945.46875 421.806640625 950.793945312 379.202148438 c 4
 956.501953125 336.392578125 926.3671875 293.068359375 879.6953125 290.057617188 c 4
 831.673828125 286.626953125 807.958984375 331.510742188 803.250976562 364.46484375 c 4
56.0078125 349.383789062 m 1
 55.390625 374.375976562 l 1
 80.3837890625 374.9921875 l 1
 79.3837890625 374.967773438 80.3837890625 373.9921875 80.3837890625 374.9921875 c 1
 823.383789062 389.9921875 l 5
 848.375976562 390.609375 l 5
 848.9921875 365.616210938 l 5
 849.609375 340.624023438 l 5
 824.616210938 340.0078125 l 5
 81.6162109375 325.0078125 l 1
 81.6162109375 326.0078125 80.6171875 324.983398438 81.6162109375 325.0078125 c 1
 56.6240234375 324.390625 l 1
 56.0078125 349.383789062 l 1
EndSplineSet
EndChar

StartChar: lt-XW
Encoding: 309 -1 78
Width: 1000
Flags: HW
LayerCount: 2
Fore
SplineSet
450.206813595 -2.25185269121 m 1
 431.615010076 -33.4725669728 l 1
 430.582134472 -35.2070471207 l 1
 429.489813302 -33.5093758161 l 1
 409.827709962 -2.95079144511 l 1
 52.5279175805 552.348994117 l 1
 30.2505738305 586.970087867 l 1
 29.0129324481 588.89349933 l 1
 31.3001270052 588.896483311 l 1
 72.4690702033 588.950194246 l 1
 760.969040442 589.849608269 l 1
 800.614548255 589.902342644 l 1
 802.817115083 589.905272383 l 1
 801.690220056 588.012809222 l 1
 781.406038984 553.948353772 l 1
 450.206813595 -2.25185269121 l 1
429.017443306 55.00687373 m 1
 719.182905862 542.294975027 l 1
 115.987010931 541.506895475 l 1
 429.017443306 55.00687373 l 1
383.293186407 708.751852694 m 1
 401.884989924 739.972566973 l 1
 402.917865528 741.707047121 l 1
 404.010186698 740.009375816 l 1
 423.672290038 709.450791445 l 1
 780.97208242 154.151005883 l 1
 803.24942617 119.529912133 l 1
 804.487067552 117.60650067 l 1
 802.199872995 117.603516689 l 1
 761.030929797 117.549805754 l 1
 72.530959558 116.650391731 l 1
 32.8854517455 116.597657356 l 1
 30.682884917 116.594727617 l 1
 31.8097799436 118.487190778 l 1
 52.0939610156 152.551646228 l 1
 383.293186407 708.751852694 l 1
404.482556694 651.49312627 m 1
 114.317094138 164.205024973 l 1
 717.512989069 164.993104525 l 1
 404.482556694 651.49312627 l 1
873.645507812 770.997070312 m 1
 898.643554688 771.3515625 l 1
 898.997070312 746.354492188 l 1
 908.997070312 40.3544921875 l 1
 909.3515625 15.3564453125 l 1
 884.354492188 15.0029296875 l 1
 859.356445312 14.6484375 l 1
 859.002929688 39.6455078125 l 1
 849.002929688 745.645507812 l 1
 848.6484375 770.643554688 l 1
 873.645507812 770.997070312 l 1
EndSplineSet
EndChar

StartChar: lt-KW
Encoding: 310 -1 79
Width: 1000
Flags: HW
LayerCount: 2
Fore
SplineSet
773.836527681 -4.55418063935 m 1
 765.572753234 -18.430329436 l 1
 759.375133788 -28.8370860784 l 1
 752.821541587 -18.6507471939 l 1
 744.083446821 -5.0690057839 l 1
 585.283829233 241.730508136 l 1
 575.382462046 257.117226886 l 1
 567.956308975 268.657464363 l 1
 581.679446196 268.675774574 l 1
 599.977515135 268.700188923 l 1
 905.977328528 269.09960274 l 1
 923.597445716 269.12304024 l 1
 936.813221093 269.14061928 l 1
 930.051383288 257.785683025 l 1
 921.035848996 242.646186915 l 1
 773.836527681 -4.55418063935 l 1
758.223780265 37.636951527 m 1
 875.187285891 234.059857349 l 1
 632.043156531 233.741601268 l 1
 758.223780265 37.636951527 l 1
732.163472319 318.55418064 m 1
 740.427246766 332.430329436 l 1
 746.624866212 342.837086078 l 1
 753.178458413 332.650747194 l 1
 761.916553179 319.069005784 l 1
 920.716170767 72.2694918637 l 1
 930.617537954 56.8827731137 l 1
 938.043691025 45.3425356373 l 1
 924.320553804 45.3242254259 l 1
 906.022484865 45.2998110765 l 1
 600.022671472 44.9003972599 l 1
 582.402554284 44.8769597599 l 1
 569.186778907 44.8593807205 l 1
 575.948616712 56.2143169746 l 1
 584.964151004 71.3538130847 l 1
 732.163472319 318.55418064 l 1
747.776219735 276.363048473 m 1
 630.812714109 79.9401426512 l 1
 873.956843469 80.2583987323 l 1
 747.776219735 276.363048473 l 1
808.014648438 536.193359375 m 5
 783.603515625 541.588867188 l 5
 759.193359375 546.985351562 l 5
 764.588867188 571.396484375 l 5
 790.688476562 689.46484375 l 5
 106.456054688 22.103515625 l 5
 88.55859375 4.6474609375 l 5
 71.103515625 22.5439453125 l 5
 53.6474609375 40.44140625 l 5
 71.5439453125 57.896484375 l 5
 735.037109375 705.029296875 l 5
 611.116210938 673.759765625 l 5
 598.78515625 722.21484375 l 5
 629.82421875 730.180664062 l 5
 873 792 l 5
 808.014648438 536.193359375 l 5
EndSplineSet
EndChar

StartChar: lt-TW
Encoding: 311 -1 80
Width: 1000
Flags: HW
LayerCount: 2
Fore
SplineSet
536.93220357 -2.71167676378 m 1
 520.406824298 -30.4645873851 l 1
 518.341088125 -33.9338082982 l 1
 516.156368568 -30.5382582496 l 1
 498.678857274 -3.37423890713 l 1
 181.079260371 490.225351084 l 1
 161.277502558 520.999765147 l 1
 158.802290169 524.846555502 l 1
 163.376613795 524.852536925 l 1
 199.971342202 524.90038849 l 1
 811.971353177 525.700193192 l 1
 847.21061099 525.746091629 l 1
 851.615483279 525.751828889 l 1
 849.361915233 521.967074753 l 1
 831.332582845 491.687718238 l 1
 536.93220357 -2.71167676378 l 1
516.859099004 51.5332683077 m 1
 772.38436027 480.648533189 l 1
 241.197662369 479.9532551 l 1
 516.859099004 51.5332683077 l 1
475.067796427 630.711676759 m 1
 491.593175702 658.464587385 l 1
 493.658911875 661.933808298 l 1
 495.843631432 658.53825825 l 1
 513.321142726 631.374238907 l 1
 830.920739629 137.774648916 l 1
 850.722497442 107.000234853 l 1
 853.197709831 103.153444498 l 1
 848.623386205 103.147463075 l 1
 812.028657798 103.09961151 l 1
 200.028646823 102.299806808 l 1
 164.78938901 102.253908371 l 1
 160.384516721 102.248171111 l 1
 162.638084767 106.032925247 l 1
 180.667417155 136.312281762 l 1
 475.067796427 630.711676759 l 1
495.140900996 576.466731692 m 1
 239.61563973 147.351466811 l 1
 770.802337631 148.0467449 l 1
 495.140900996 576.466731692 l 1
226.38671875 581.861328125 m 1
 204.248046875 593.474609375 l 1
 215.861328125 615.61328125 l 1
 247.861328125 676.61328125 l 1
 254.8125 689.864257812 l 1
 269.774414062 689.999023438 l 1
 712.774414062 693.999023438 l 1
 725.374023438 694.112304688 l 1
 732.9609375 684.052734375 l 1
 778.9609375 623.052734375 l 1
 794.012695312 603.091796875 l 1
 774.052734375 588.0390625 l 1
 754.091796875 572.987304688 l 1
 739.0390625 592.947265625 l 1
 700.625976562 643.887695312 l 1
 285.1875 640.135742188 l 1
 260.138671875 592.38671875 l 1
 248.525390625 570.248046875 l 1
 226.38671875 581.861328125 l 1
504.374023438 714.330078125 m 1
 531.73046875 760.407226562 l 1
 473.158203125 759.626953125 l 1
 504.374023438 714.330078125 l 1
485.35546875 653.813476562 m 1
 405.415039062 769.813476562 l 1
 378.841796875 808.373046875 l 1
 425.666992188 808.998046875 l 1
 575.666992188 810.998046875 l 1
 620.26953125 811.592773438 l 1
 597.497070312 773.237304688 l 1
 527.4375 655.237304688 l 1
 506 653 l 1
 485.35546875 653.813476562 l 1
EndSplineSet
EndChar

StartChar: lt-SG
Encoding: 312 -1 81
Width: 1000
Flags: HW
LayerCount: 2
Fore
SplineSet
96.5947265625 288.409179688 m 2
 215.278320312 314.688476562 331.1171875 353.556640625 440.403320312 381.134765625 c 0
 445.357421875 382.385742188 463.014648438 388.873046875 466 393 c 0
 470.387695312 399.065429688 495.482421875 414.309570312 500 420 c 0
 504.517578125 425.690429688 497.176757812 422.325195312 502 428 c 1
 489.801757812 423.499023438 459.611328125 419.71875 447 418 c 0
 252.866210938 391.536132812 211.512695312 638.166015625 156.725585938 777.873046875 c 2
 147.598632812 801.147460938 l 1
 170.873046875 810.274414062 l 1
 194.147460938 819.401367188 l 1
 203.274414062 796.126953125 l 2
 268.487304688 629.833984375 300.391601562 440.927734375 438.623046875 459.770507812 c 0
 504.116210938 468.69921875 589.115234375 531.583984375 645 613 c 0
 692.172851562 681.723632812 713.853515625 763.086914062 724.473632812 785.846679688 c 1
 724.473632812 785.846679688 775.618164062 808.038085938 775.715820312 783.337890625 c 0
 775.793945312 763.7109375 773.353515625 772.375 769.920898438 764.997070312 c 0
 768.431640625 761.583984375 766.424804688 756.927734375 764.020507812 751.250976562 c 0
 722.3671875 652.891601562 680.950195312 583.48828125 641.981445312 529.966796875 c 0
 601.78125 474.756835938 564.359375 436.572265625 533.336914062 401.557617188 c 1
 642.358398438 421.060546875 746.217773438 421.108398438 835.6640625 368.5546875 c 0
 911.442382812 324.032226562 893.86328125 224.787109375 851.008789062 152.036132812 c 0
 822.67578125 103.938476562 780.078125 59.380859375 728.7890625 31.9541015625 c 0
 627.577148438 -22.16796875 443.670898438 -17.298828125 389.758789062 84.40625 c 0
 379.3984375 103.952148438 374.775390625 126.8046875 377.112304688 151.368164062 c 0
 384.163085938 225.46484375 398.591796875 279.720703125 419.267578125 323.952148438 c 1
 321.8203125 297.772460938 216.551757812 263.759765625 107.405273438 239.590820312 c 2
 82.99609375 234.186523438 l 1
 77.5908203125 258.594726562 l 1
 72.1865234375 283.00390625 l 1
 96.5947265625 288.409179688 l 2
96.5947265625 288.409179688 m 1
 97.5712890625 288.625 95.5947265625 288.409179688 96.5947265625 288.409179688 c 1
485.600585938 340.637695312 m 0
 483.4453125 337.302734375 481.260742188 333.801757812 479.276367188 330.481445312 c 0
 453.857421875 287.927734375 435.288085938 234.911132812 426.887695312 146.631835938 c 0
 425.40234375 131.020507812 428.19921875 118.646484375 433.936523438 107.823242188 c 0
 466.095703125 47.154296875 616.329101562 28.517578125 705.2109375 76.0458984375 c 0
 746.75 98.2587890625 783.809570312 136.469726562 807.927734375 177.413085938 c 0
 848.55859375 246.389648438 845.53515625 304.763671875 810.3359375 325.4453125 c 0
 727.677734375 374.009765625 625.668945312 370.905273438 505.836914062 345.153320312 c 0
 499.303710938 343.75 492.391601562 342.204101562 485.600585938 340.637695312 c 0
852.749023438 371.53515625 m 4
 856.041015625 348.489257812 868.326171875 339.373046875 876.3046875 339.942382812 c 4
 891.6328125 340.931640625 903.498046875 355.607421875 901.206054688 372.797851562 c 4
 898.53125 394.193359375 882.741210938 407.69140625 864.9921875 406.078125 c 4
 859.3671875 405.690429688 849.251953125 396.016601562 852.749023438 371.53515625 c 4
803.250976562 364.46484375 m 4
 798.748046875 395.983398438 808.6328125 452.309570312 861.0078125 455.921875 c 4
 909.258789062 460.30859375 945.46875 421.806640625 950.793945312 379.202148438 c 4
 956.501953125 336.392578125 926.3671875 293.068359375 879.6953125 290.057617188 c 4
 831.673828125 286.626953125 807.958984375 331.510742188 803.250976562 364.46484375 c 4
56.0078125 349.383789062 m 1
 55.390625 374.375976562 l 1
 80.3837890625 374.9921875 l 1
 79.3837890625 374.967773438 80.3837890625 373.9921875 80.3837890625 374.9921875 c 1
 823.383789062 389.9921875 l 5
 848.375976562 390.609375 l 5
 848.9921875 365.616210938 l 5
 849.609375 340.624023438 l 5
 824.616210938 340.0078125 l 5
 81.6162109375 325.0078125 l 1
 81.6162109375 326.0078125 80.6171875 324.983398438 81.6162109375 325.0078125 c 1
 56.6240234375 324.390625 l 1
 56.0078125 349.383789062 l 1
EndSplineSet
EndChar

StartChar: lt-XG
Encoding: 313 -1 82
Width: 1000
Flags: HW
LayerCount: 2
Fore
SplineSet
46.6652853466 260.788793194 m 2
 153.395735464 284.421343971 257.633410639 319.396617265 356.057426236 344.233487968 c 0
 360.388781133 345.326526488 376.215340011 351.430186795 378.387538717 354.432746343 c 0
 382.676899036 360.363373151 405.2782335 374.062567232 409.020988444 378.77719777 c 0
 409.893397152 379.876143546 410.121659915 380.533535482 410.121659915 380.533535482 c 2
 409.82842367 380.803635716 409.013951107 381.532165583 408.996782424 382.975176934 c 1
 395.877532419 379.207015737 372.946516185 376.389590737 362.468639352 374.961649853 c 0
 186.390419525 350.959214586 148.950549247 574.523256098 99.889011007 699.629595608 c 2
 91.6751438195 720.57588467 l 1
 91.2188203666 721.739561016 l 1
 92.382478272 722.19593149 l 1
 113.328832797 730.410800911 l 1
 134.276098422 738.624668099 l 1
 135.439763559 739.080965883 l 1
 135.896126802 737.917326415 l 1
 144.110983135 716.971005268 l 2
 203.064283887 566.639107431 231.603991865 398.267247683 354.591906538 415.032490638 c 0
 412.980850113 422.991937079 489.310852959 479.333247778 539.469425149 552.407595819 c 0
 581.799460363 614.07601327 601.21933006 687.058959159 610.893631364 707.790310799 c 2
 611.094443332 708.220636814 l 1
 611.530326503 708.409082528 l 2
 611.576835724 708.429189896 630.247192384 716.595162879 644.231444688 716.753180794 c 0
 652.183503552 716.843036708 659.358259503 714.079921672 659.394521347 705.008881885 c 0
 659.463983108 687.55854389 656.446323587 693.094224828 654.06834675 687.984280292 c 0
 652.743617469 684.948884577 650.927758309 680.733917169 648.770176817 675.63851817 c 0
 611.247513877 587.036201095 573.921556308 524.480201572 538.793717719 476.234931247 c 0
 503.595087245 427.892869173 470.607967158 393.852201822 443.326643868 363.259323514 c 1
 540.74717821 380.250248225 632.812171163 379.732134827 712.730874253 332.776964063 c 0
 781.942778483 292.112232555 765.605670375 201.762568944 726.984258746 136.197601053 c 0
 701.381588955 92.7335612289 662.900600352 52.4688755114 616.499598902 27.6564926597 c 0
 525.115246534 -21.210431789 358.733955227 -17.1634476111 309.678765162 75.3804001341 c 0
 300.23677441 93.193405938 296.031711489 114.013729907 298.15698835 136.349856924 c 0
 304.385203411 201.801707003 317.232420573 250.61590659 335.083965394 289.655487114 c 1
 248.018795428 266.163191929 154.296041858 235.970552163 56.9343006268 214.411396937 c 2
 34.9665271893 209.547139124 l 1
 33.7460881885 209.276900997 l 1
 33.4758500616 210.497339998 l 1
 28.6115922491 232.465113436 l 1
 23.7473344366 254.432886873 l 1
 23.4771077612 255.653274158 l 1
 24.6974835933 255.923552548 l 1
 46.6652853466 260.788793194 l 2
397.81594813 305.470056659 m 0
 395.595691446 302.015183829 394.174664069 299.725250343 392.421754844 296.791595265 c 0
 369.649906076 258.669696812 352.991669288 211.180659717 345.443597805 131.850340677 c 0
 344.127059932 118.014672035 346.593830082 107.159232117 351.647396949 97.6264542242 c 0
 380.03398571 44.0752378521 514.431979512 26.9411983614 594.100985694 69.5437019354 c 0
 631.238601562 89.4027514744 664.459005126 123.639871782 686.057729155 160.30629792 c 0
 722.564601353 222.282672838 719.329203062 273.808087926 688.6685293 291.822651486 c 0
 614.709738427 335.277336784 523.27772859 332.573564087 415.516510534 309.416567546 c 0
 409.829170244 308.194478816 403.605424712 306.801328604 397.81594813 305.470056659 c 0
873.645507812 770.997070312 m 1
 898.643554688 771.3515625 l 1
 898.997070312 746.354492188 l 1
 908.997070312 40.3544921875 l 1
 909.3515625 15.3564453125 l 1
 884.354492188 15.0029296875 l 1
 859.356445312 14.6484375 l 1
 859.002929688 39.6455078125 l 1
 849.002929688 745.645507812 l 1
 848.6484375 770.643554688 l 1
 873.645507812 770.997070312 l 1
EndSplineSet
EndChar

StartChar: lt-KG
Encoding: 314 -1 83
Width: 1000
Flags: HW
LayerCount: 2
Fore
SplineSet
587.016145353 122.685888419 m 2
 632.954634532 132.857692207 678.340314857 147.910324752 721.479007496 159.00287063 c 1
 642.289229184 155.61915702 625.496142863 257.952311581 605.708272262 308.410896637 c 2
 602.056905075 317.72046695 l 1
 599.31804103 324.70350812 l 1
 606.301428786 327.441488342 l 1
 615.61109195 331.091532425 l 1
 624.920662262 334.742899613 l 1
 631.90345451 337.481666026 l 1
 634.64158606 330.498624808 l 1
 638.291882281 321.189295242 l 2
 665.94715257 250.667372421 677.686956241 184.96697948 724.436166399 191.339469836 c 0
 747.303854579 194.456861012 780.283593841 218.073648075 801.816565853 249.444620144 c 0
 819.880107915 275.760252352 828.112189831 307.0519662 832.993870405 317.510947195 c 2
 834.210169565 320.116863253 l 1
 836.85692151 321.241534891 l 2
 837.047676641 321.322591556 844.858655663 324.974688848 852.811045357 325.456602257 c 0
 857.288375042 325.727927644 867.744620735 323.849228968 867.786073394 313.36481516 c 0
 867.804029078 308.854010633 866.791388573 304.644506407 864.269172999 301.68022992 c 0
 863.312552514 299.460132508 863.224760388 299.252200718 862.514575841 297.575155786 c 0
 845.652068283 257.759199745 828.776381295 229.438799588 812.855158336 207.571804793 c 0
 802.298475163 193.07263484 791.264047554 180.403799198 782.921909894 171.130969065 c 1
 821.318543593 175.515244992 855.969968103 172.745682762 888.064833855 153.888405142 c 0
 924.447474445 132.512915152 914.301898705 86.6088999849 896.865506865 57.0078608228 c 0
 884.911037991 36.7135918617 867.011831543 17.9103120139 845.05225526 6.16745786496 c 0
 802.806701787 -16.4227445035 724.050458596 -16.4848852675 699.276461915 30.2506093543 c 0
 694.426631759 39.4016204849 692.313326064 50.0595938471 693.378453049 61.2573395109 c 0
 695.551196796 84.0907095668 699.744828884 103.206921668 705.018189452 118.31266771 c 1
 668.602408142 108.081361536 633.492965677 97.1296279159 594.583463619 88.5143068058 c 2
 584.819791744 86.3521974308 l 1
 577.497184487 84.7306478743 l 1
 575.875634931 92.053255131 l 1
 573.713405193 101.817470638 l 1
 571.55227238 111.580165951 l 1
 569.93142102 118.902195344 l 1
 577.253295823 120.52374489 l 1
 587.016145353 122.685888419 l 2
748.928077927 129.631365575 m 2
 748.406957486 128.777882426 748.662256703 129.20477144 748.149618999 128.346166417 c 0
 738.611168403 112.378514296 731.512787017 92.5322211387 728.221203738 57.9423776689 c 0
 727.749578263 52.9825531777 728.569012472 49.7206678861 730.200739638 46.642605535 c 0
 739.724415715 28.6768156228 794.947232585 19.0646254389 828.547211032 37.0316843712 c 0
 843.681177453 45.1247763765 857.704773875 59.486888993 866.708750867 74.7715022293 c 0
 882.596315127 101.742081634 878.247091288 119.062370736 870.334444016 123.71128425 c 0
 839.868761385 141.611312573 801.318604053 140.916941549 753.91054576 130.728888681 c 0
 752.437394121 130.412348251 748.928077927 129.631365575 748.928077927 129.631365575 c 2
808.014648438 536.193359375 m 5
 783.603515625 541.588867188 l 5
 759.193359375 546.985351562 l 5
 764.588867188 571.396484375 l 5
 790.688476562 689.46484375 l 5
 106.456054688 22.103515625 l 5
 88.55859375 4.6474609375 l 5
 71.103515625 22.5439453125 l 5
 53.6474609375 40.44140625 l 5
 71.5439453125 57.896484375 l 5
 735.037109375 705.029296875 l 5
 611.116210938 673.759765625 l 5
 598.78515625 722.21484375 l 5
 629.82421875 730.180664062 l 5
 873 792 l 5
 808.014648438 536.193359375 l 5
EndSplineSet
EndChar

